<svg width="14" height="14" viewBox="0 0 14 14" fill="none" xmlns="http://www.w3.org/2000/svg">
    <path d="M1.20628 0.0533723C0.464661 -0.19858 -0.217877 0.484343 0.0655988 1.20326C0.7462 2.92935 1.57403 4.64155 1.96437 5.42646C2.12601 5.74927 2.40878 5.99865 2.75378 6.12264L5.17624 7.00005L2.75378 7.87778C2.40884 8.00169 2.12607 8.25095 1.96437 8.57365C1.57403 9.35855 0.746523 11.0708 0.0655988 12.7968C-0.217877 13.5158 0.464661 14.1984 1.20628 13.9467C3.69816 13.1018 8.95538 11.1055 13.481 7.97408C13.6412 7.86453 13.7721 7.71878 13.8625 7.54921C13.9528 7.37964 14 7.19126 14 7.00005C14 6.80884 13.9528 6.62046 13.8625 6.45089C13.7721 6.28132 13.6412 6.13557 13.481 6.02603C8.95538 2.89462 3.69816 0.89858 1.20628 0.0533723Z" fill="white"/>
</svg>
