<svg width="61" height="52" viewBox="0 0 61 52" fill="none" xmlns="http://www.w3.org/2000/svg">
<path d="M3.07563 52C1.02521 43.0374 0 35.2585 0 28.6634C0 19.1935 2.22129 12.0911 6.66387 7.35609C11.1064 2.45203 17.5994 0 26.1429 0V10.1463C21.7003 10.1463 18.4538 11.3301 16.4034 13.6976C14.5238 16.065 13.584 19.6163 13.584 24.3512V30.1854H26.3992V52H3.07563ZM37.6765 52C35.6261 43.0374 34.6008 35.2585 34.6008 28.6634C34.6008 19.1935 36.8221 12.0911 41.2647 7.35609C45.7073 2.45203 52.2003 0 60.7437 0V10.1463C56.3011 10.1463 53.0546 11.3301 51.0042 13.6976C49.1247 16.065 48.1849 19.6163 48.1849 24.3512V30.1854H61V52H37.6765Z" fill="white"/>
</svg>
