<svg width="468" height="254" viewBox="0 0 468 254" fill="none" xmlns="http://www.w3.org/2000/svg">
<path d="M171.415 230.564C171.754 235.457 170.947 240.361 169.061 244.886C166.859 248.902 163.376 252.061 159.171 253.856L155.875 248.663C158.416 247.711 160.569 245.939 161.997 243.627C163.409 240.517 164.106 237.128 164.037 233.712L157.131 233.869V218.131H171.415V230.564ZM194.49 230.564C194.861 235.474 193.997 240.398 191.979 244.886C189.861 248.967 186.352 252.151 182.09 253.856L178.95 248.663C181.445 247.702 183.546 245.928 184.915 243.627C186.392 240.533 187.143 237.142 187.112 233.712L180.049 233.869V218.131H194.49V230.564ZM71.8945 211.363C72.1106 217.3 74.581 222.931 78.8008 227.102C80.9561 229.29 83.5227 231.028 86.3516 232.217C89.1804 233.405 92.216 234.02 95.2832 234.026H140.806V237.646H95.9111C92.3534 237.707 88.8207 237.039 85.5283 235.687C82.2361 234.334 79.253 232.323 76.7607 229.777C74.2973 227.361 72.3452 224.47 71.0234 221.279C69.7017 218.088 69.0368 214.661 69.0684 211.206V168.084H71.8945V211.363ZM467.311 237.646H214.112V234.813H467.311V237.646ZM71.8945 129.997V152.031H69.0693V129.997H71.8945ZM398.085 124.017H395.26V101.983H398.085V124.017ZM371.87 16.21C378.82 16.2172 385.483 18.9912 390.394 23.9219C392.843 26.3492 394.784 29.2421 396.104 32.4307C397.425 35.6194 398.099 39.0404 398.085 42.4932V85.9307H395.26V42.4932C395.254 39.418 394.64 36.3743 393.454 33.5381C392.269 30.7018 390.535 28.1287 388.353 25.9678C386.19 23.8013 383.618 22.0875 380.789 20.9258C377.96 19.764 374.928 19.1771 371.87 19.2002H326.348V16.21H371.87ZM288.203 5.19336C285.708 6.15475 283.608 7.92834 282.238 10.2295C280.782 13.3304 280.032 16.7172 280.041 20.1445L287.104 19.9873V35.7256H272.663V23.293C272.312 18.3846 273.175 13.4647 275.175 8.9707C277.336 4.92296 280.831 1.75225 285.063 0L288.203 5.19336ZM311.278 5.19336C308.766 6.1946 306.626 7.95464 305.156 10.2295C303.759 13.3444 303.063 16.7296 303.116 20.1445L310.022 19.9873V35.7256H295.738V23.293C295.4 18.4003 296.206 13.4955 298.093 8.9707C300.362 4.9511 303.895 1.79698 308.139 0L311.278 5.19336ZM253.198 19.043H0V16.21H253.198V19.043Z" fill="#FEF0F0"/>
</svg>
