<svg width="948" height="957" viewBox="0 0 948 957" fill="none" xmlns="http://www.w3.org/2000/svg">
<path d="M634.6 13.0366C634.542 10.4925 635.246 7.98922 636.623 5.84928C638 3.70934 639.986 2.03083 642.326 1.03003C644.665 0.0292399 647.251 -0.24795 649.75 0.234149C652.248 0.716247 654.545 1.93554 656.344 3.73494C658.144 5.53435 659.363 7.83139 659.845 10.33C660.327 12.8287 660.05 15.4145 659.049 17.7542C658.048 20.0938 656.37 22.0802 654.23 23.4573C652.09 24.8344 649.587 25.5391 647.043 25.4806C643.743 25.4806 640.578 24.1695 638.245 21.8358C635.911 19.5021 634.6 16.3369 634.6 13.0366Z" fill="url(#paint0_radial_60_198)"/>
<path d="M291.821 13.0365C291.762 10.505 292.459 8.01328 293.823 5.87955C295.186 3.74581 297.155 2.06683 299.477 1.05697C301.799 0.0470973 304.369 -0.247845 306.859 0.209769C309.35 0.667382 311.647 1.85681 313.459 3.62619C315.27 5.39558 316.513 7.66465 317.029 10.1438C317.545 12.6229 317.311 15.1995 316.356 17.5448C315.401 19.8901 313.769 21.8976 311.668 23.3111C309.567 24.7245 307.093 25.4798 304.561 25.4805C302.902 25.52 301.252 25.2273 299.708 24.6197C298.164 24.012 296.757 23.1017 295.57 21.9422C294.383 20.7827 293.44 19.3975 292.796 17.8681C292.152 16.3387 291.821 14.6959 291.821 13.0365Z" fill="url(#paint1_radial_60_198)"/>
<path d="M702.149 792.858L785.399 840.857C791.759 844.494 798.959 846.408 806.286 846.408C813.613 846.408 820.813 844.494 827.173 840.857L910.423 792.858C916.721 789.153 921.946 783.872 925.582 777.533C929.219 771.195 931.142 764.019 931.162 756.712V659.53C931.171 652.217 929.261 645.029 925.621 638.686C921.982 632.343 916.741 627.066 910.423 623.384L827.173 575.385C820.864 571.599 813.644 569.598 806.286 569.598C798.928 569.598 791.708 571.599 785.399 575.385L702.149 623.384C695.831 627.066 690.59 632.343 686.951 638.686C683.312 645.029 681.401 652.217 681.41 659.53V755.527C681.221 763.034 683.044 770.455 686.691 777.02C690.338 783.584 695.675 789.053 702.149 792.858Z" fill="url(#paint2_linear_60_198)"/>
<path d="M800.805 885.892V957H807.323V885.892L908.942 825.153L905.683 819.524L804.064 880.262L702.741 819.524L699.186 825.153L800.805 885.892Z" fill="url(#paint3_linear_60_198)"/>
<path d="M807.323 531.535V414.799H800.805V531.535L699.186 592.273L702.741 597.903L804.064 537.164L905.683 597.903L908.942 592.273L807.323 531.535Z" fill="url(#paint4_linear_60_198)"/>
<path d="M947.456 653.012H942.123V771.229H947.456V653.012Z" fill="url(#paint5_linear_60_198)"/>
<path d="M671.633 653.012H666.3V771.229H671.633V653.012Z" fill="url(#paint6_linear_60_198)"/>
<path d="M544.832 356.134L627.786 404.132C634.146 407.77 641.346 409.684 648.673 409.684C656 409.684 663.2 407.77 669.56 404.132L752.81 356.134C759.149 352.475 764.406 347.203 768.048 340.855C771.69 334.506 773.588 327.307 773.549 319.988V223.991C773.619 216.666 771.734 209.455 768.089 203.101C764.443 196.747 759.169 191.481 752.81 187.844L669.56 141.031C663.2 137.394 656 135.48 648.673 135.48C641.346 135.48 634.146 137.394 627.786 141.031L544.832 189.326C538.439 192.948 533.122 198.203 529.426 204.554C525.73 210.905 523.787 218.124 523.797 225.473V318.802C523.606 326.345 525.46 333.798 529.164 340.371C532.867 346.944 538.282 352.391 544.832 356.134Z" fill="url(#paint7_radial_60_198)"/>
<path d="M643.488 450.353V567.089H650.006V450.353L751.329 389.615L748.07 383.985L646.747 444.724L545.128 383.985L541.869 389.615L643.488 450.353Z" fill="url(#paint8_radial_60_198)"/>
<path d="M650.006 95.9963V14.8142H643.488V95.9963L541.869 156.735L545.128 162.068L646.747 101.626L748.07 162.068L751.329 156.735L650.006 95.9963Z" fill="url(#paint9_radial_60_198)"/>
<path d="M789.843 217.473H784.51V335.691H789.843V217.473Z" fill="url(#paint10_radial_60_198)"/>
<path d="M514.02 217.473H508.687V335.691H514.02V217.473Z" fill="url(#paint11_radial_60_198)"/>
<path d="M202.645 356.134L285.896 404.132C292.256 407.77 299.456 409.684 306.783 409.684C314.109 409.684 321.309 407.77 327.669 404.132L410.92 356.134C417.218 352.429 422.442 347.147 426.079 340.809C429.715 334.471 431.638 327.295 431.658 319.988V223.991C431.668 216.678 429.757 209.49 426.118 203.147C422.478 196.804 417.238 191.527 410.92 187.844L327.669 141.031C321.309 137.394 314.109 135.48 306.783 135.48C299.456 135.48 292.256 137.394 285.896 141.031L202.645 189.326C196.327 193.008 191.087 198.285 187.447 204.629C183.808 210.972 181.897 218.159 181.907 225.473V318.802C181.717 326.31 183.541 333.731 187.187 340.296C190.834 346.86 196.172 352.329 202.645 356.134Z" fill="url(#paint12_radial_60_198)"/>
<path d="M301.302 450.353V567.089H307.819V450.353L409.438 389.615L406.179 383.985L304.561 444.724L203.238 383.985L199.683 389.615L301.302 450.353Z" fill="url(#paint13_radial_60_198)"/>
<path d="M307.819 95.9963V14.8142H301.302V95.9963L199.683 156.735L203.238 162.068L304.561 101.626L406.179 162.068L409.438 156.735L307.819 95.9963Z" fill="url(#paint14_radial_60_198)"/>
<path d="M447.953 217.473H442.62V335.691H447.953V217.473Z" fill="url(#paint15_radial_60_198)"/>
<path d="M172.13 217.473H166.797V335.691H172.13V217.473Z" fill="url(#paint16_radial_60_198)"/>
<path d="M369.146 792.858L452.101 839.672C458.461 843.309 465.661 845.223 472.987 845.223C480.314 845.223 487.514 843.309 493.874 839.672L577.125 792.858C583.498 789.213 588.798 783.953 592.491 777.607C596.184 771.261 598.139 764.054 598.159 756.712V659.53C598.169 652.182 596.227 644.963 592.531 638.612C588.835 632.261 583.518 627.005 577.125 623.384L494.17 575.385C487.861 571.599 480.642 569.598 473.284 569.598C465.926 569.598 458.706 571.599 452.397 575.385L369.146 623.384C362.753 627.005 357.436 632.261 353.74 638.612C350.044 644.963 348.102 652.182 348.112 659.53V755.527C347.92 763.069 349.775 770.522 353.478 777.095C357.182 783.668 362.596 789.115 369.146 792.858Z" fill="url(#paint17_radial_60_198)"/>
<path d="M467.803 885.892V957H474.321V885.892L575.94 825.153L572.384 819.524L471.062 880.262L369.443 819.524L366.184 825.153L467.803 885.892Z" fill="url(#paint18_radial_60_198)"/>
<path d="M474.321 531.535V414.799H467.803V531.535L366.184 592.273L369.443 597.903L471.062 537.164L572.384 597.903L575.94 592.273L474.321 531.535Z" fill="url(#paint19_radial_60_198)"/>
<path d="M614.454 653.012H609.121V771.229H614.454V653.012Z" fill="url(#paint20_radial_60_198)"/>
<path d="M338.335 653.012H333.002V771.229H338.335V653.012Z" fill="url(#paint21_radial_60_198)"/>
<path d="M37.3293 792.858L120.58 840.857C126.94 844.494 134.14 846.408 141.467 846.408C148.793 846.408 155.993 844.494 162.353 840.857L244.715 792.858C251.013 789.153 256.237 783.872 259.874 777.533C263.51 771.195 265.433 764.019 265.454 756.712V659.53C265.463 652.217 263.552 645.029 259.913 638.686C256.274 632.343 251.033 627.066 244.715 623.384L161.464 575.385C155.155 571.599 147.936 569.598 140.578 569.598C133.22 569.598 126 571.599 119.691 575.385L37.3293 623.384C31.0113 627.066 25.7706 632.343 22.1313 638.686C18.4919 645.029 16.5814 652.217 16.5908 659.53V755.527C16.4014 763.034 18.2248 770.455 21.8715 777.02C25.5183 783.584 30.8556 789.053 37.3293 792.858Z" fill="url(#paint22_linear_60_198)"/>
<path d="M134.504 885.892V957H141.022V885.892L242.641 825.153L239.382 819.524L137.763 880.262L36.4404 819.524L32.8853 825.153L134.504 885.892Z" fill="url(#paint23_linear_60_198)"/>
<path d="M141.022 531.535V414.799H134.504V531.535L32.8853 592.273L36.4404 597.903L137.763 537.164L239.382 597.903L242.641 592.273L141.022 531.535Z" fill="url(#paint24_linear_60_198)"/>
<path d="M281.156 653.012H275.823V771.229H281.156V653.012Z" fill="url(#paint25_linear_60_198)"/>
<path d="M5.33277 653.012H0V771.229H5.33277V653.012Z" fill="url(#paint26_linear_60_198)"/>
<path d="M389.922 274.397C389.922 274.96 389.855 275.577 389.721 276.247H374.158C374.238 277.936 374.667 279.156 375.445 279.907C376.222 280.631 377.214 280.993 378.421 280.993C379.439 280.993 380.284 280.738 380.954 280.229C381.624 279.719 382.067 279.062 382.281 278.258H389.56C389.265 279.84 388.622 281.261 387.63 282.521C386.638 283.754 385.378 284.733 383.85 285.456C382.322 286.153 380.619 286.502 378.742 286.502C376.544 286.502 374.587 286.046 372.871 285.135C371.182 284.196 369.855 282.856 368.89 281.113C367.925 279.371 367.442 277.333 367.442 275.001C367.442 272.641 367.911 270.604 368.85 268.888C369.815 267.145 371.155 265.818 372.871 264.907C374.587 263.968 376.544 263.499 378.742 263.499C380.968 263.499 382.925 263.955 384.614 264.867C386.303 265.778 387.603 267.065 388.515 268.727C389.453 270.363 389.922 272.253 389.922 274.397ZM382.965 273.352C382.992 271.877 382.59 270.778 381.759 270.054C380.954 269.304 379.949 268.928 378.742 268.928C377.482 268.928 376.437 269.304 375.606 270.054C374.775 270.805 374.305 271.904 374.198 273.352H382.965Z" fill="white"/>
<path d="M353.575 279.505L358.441 263.781H365.76L357.797 286.221H349.272L341.309 263.781H348.628L353.575 279.505Z" fill="white"/>
<path d="M332.6 268.003C333.458 266.636 334.557 265.55 335.898 264.746C337.265 263.941 338.74 263.539 340.321 263.539V270.899H338.351C336.528 270.899 335.107 271.287 334.088 272.065C333.096 272.842 332.6 274.156 332.6 276.006V286.22H325.723V263.781H332.6V268.003Z" fill="white"/>
<path d="M322.138 274.397C322.138 274.96 322.071 275.577 321.937 276.247H306.374C306.455 277.936 306.884 279.156 307.661 279.907C308.439 280.631 309.431 280.993 310.637 280.993C311.656 280.993 312.5 280.738 313.171 280.229C313.841 279.719 314.283 279.062 314.498 278.258H321.776C321.482 279.84 320.838 281.261 319.846 282.521C318.854 283.754 317.594 284.733 316.066 285.456C314.538 286.153 312.835 286.502 310.959 286.502C308.76 286.502 306.803 286.046 305.087 285.135C303.398 284.196 302.071 282.856 301.106 281.113C300.141 279.371 299.658 277.333 299.658 275.001C299.658 272.641 300.128 270.604 301.066 268.888C302.031 267.145 303.372 265.818 305.087 264.907C306.803 263.968 308.76 263.499 310.959 263.499C313.184 263.499 315.141 263.955 316.83 264.867C318.519 265.778 319.819 267.065 320.731 268.727C321.669 270.363 322.138 272.253 322.138 274.397ZM315.181 273.352C315.208 271.877 314.806 270.778 313.975 270.054C313.171 269.304 312.165 268.928 310.959 268.928C309.699 268.928 308.653 269.304 307.822 270.054C306.991 270.805 306.522 271.904 306.415 273.352H315.181Z" fill="white"/>
<path d="M286.682 263.499C289.523 263.499 291.789 264.21 293.478 265.631C295.194 267.052 296.266 268.928 296.695 271.261H290.261C290.073 270.349 289.644 269.639 288.974 269.129C288.33 268.593 287.513 268.325 286.521 268.325C285.743 268.325 285.154 268.499 284.751 268.848C284.349 269.17 284.148 269.639 284.148 270.255C284.148 270.952 284.51 271.475 285.234 271.824C285.985 272.172 287.151 272.521 288.733 272.869C290.448 273.271 291.856 273.687 292.955 274.116C294.054 274.518 295.006 275.188 295.81 276.127C296.615 277.065 297.017 278.325 297.017 279.907C297.017 281.194 296.668 282.333 295.971 283.325C295.274 284.317 294.269 285.095 292.955 285.658C291.641 286.221 290.086 286.502 288.29 286.502C285.261 286.502 282.834 285.832 281.011 284.491C279.188 283.151 278.076 281.234 277.674 278.741H284.309C284.416 279.706 284.818 280.443 285.515 280.952C286.239 281.462 287.164 281.716 288.29 281.716C289.068 281.716 289.658 281.542 290.06 281.194C290.462 280.818 290.663 280.336 290.663 279.746C290.663 278.968 290.288 278.419 289.537 278.097C288.813 277.749 287.62 277.387 285.958 277.011C284.296 276.663 282.928 276.288 281.856 275.885C280.784 275.483 279.859 274.84 279.081 273.955C278.304 273.044 277.915 271.81 277.915 270.255C277.915 268.245 278.679 266.623 280.207 265.389C281.735 264.129 283.893 263.499 286.682 263.499Z" fill="white"/>
<path d="M265.258 263.499C267.108 263.499 268.757 263.968 270.205 264.907C271.679 265.818 272.832 267.145 273.663 268.888C274.521 270.604 274.95 272.641 274.95 275.001C274.95 277.333 274.521 279.371 273.663 281.113C272.832 282.856 271.679 284.196 270.205 285.135C268.757 286.046 267.108 286.502 265.258 286.502C263.542 286.502 262.068 286.113 260.835 285.336C259.601 284.558 258.703 283.499 258.14 282.159V286.22H251.263V256.462H258.14V267.842C258.703 266.502 259.601 265.443 260.835 264.665C262.068 263.888 263.542 263.499 265.258 263.499ZM263.046 269.531C261.599 269.531 260.406 270.027 259.467 271.019C258.556 271.985 258.1 273.312 258.1 275.001C258.1 276.663 258.556 277.99 259.467 278.982C260.406 279.974 261.599 280.47 263.046 280.47C264.521 280.47 265.7 279.987 266.585 279.022C267.497 278.057 267.952 276.716 267.952 275.001C267.952 273.285 267.497 271.944 266.585 270.979C265.7 270.014 264.521 269.531 263.046 269.531Z" fill="white"/>
<path d="M233.044 257.346C235.725 257.346 238.151 257.976 240.322 259.237C242.521 260.47 244.25 262.199 245.51 264.424C246.77 266.623 247.4 269.116 247.4 271.904C247.4 274.692 246.757 277.199 245.47 279.424C244.21 281.649 242.481 283.392 240.282 284.652C238.111 285.885 235.698 286.502 233.044 286.502C230.389 286.502 227.963 285.885 225.765 284.652C223.593 283.392 221.864 281.649 220.577 279.424C219.317 277.199 218.687 274.692 218.687 271.904C218.687 269.116 219.317 266.623 220.577 264.424C221.864 262.199 223.593 260.47 225.765 259.237C227.963 257.976 230.389 257.346 233.044 257.346ZM233.044 263.741C230.792 263.741 228.995 264.478 227.655 265.952C226.341 267.4 225.684 269.384 225.684 271.904C225.684 274.397 226.341 276.381 227.655 277.856C228.995 279.33 230.792 280.068 233.044 280.068C235.269 280.068 237.052 279.33 238.392 277.856C239.733 276.381 240.403 274.397 240.403 271.904C240.403 269.411 239.733 267.427 238.392 265.952C237.078 264.478 235.296 263.741 233.044 263.741Z" fill="white"/>
<path d="M191.868 709.519C191.868 710.083 191.801 710.699 191.667 711.369H176.104C176.184 713.058 176.613 714.278 177.391 715.029C178.168 715.753 179.16 716.115 180.367 716.115C181.385 716.115 182.23 715.86 182.9 715.351C183.57 714.841 184.013 714.184 184.227 713.38H191.506C191.211 714.962 190.568 716.383 189.576 717.643C188.584 718.876 187.324 719.855 185.795 720.579C184.267 721.276 182.565 721.624 180.688 721.624C178.49 721.624 176.533 721.168 174.817 720.257C173.128 719.318 171.801 717.978 170.836 716.235C169.871 714.493 169.388 712.455 169.388 710.123C169.388 707.763 169.857 705.726 170.795 704.01C171.761 702.267 173.101 700.94 174.817 700.029C176.533 699.091 178.49 698.621 180.688 698.621C182.913 698.621 184.871 699.077 186.56 699.989C188.249 700.9 189.549 702.187 190.46 703.849C191.399 705.485 191.868 707.375 191.868 709.519ZM184.911 708.474C184.938 706.999 184.535 705.9 183.704 705.176C182.9 704.426 181.895 704.05 180.688 704.05C179.428 704.05 178.383 704.426 177.552 705.176C176.72 705.927 176.251 707.026 176.144 708.474H184.911Z" fill="white"/>
<path d="M155.521 714.627L160.387 698.903H167.706L159.743 721.343H151.218L143.255 698.903H150.574L155.521 714.627Z" fill="white"/>
<path d="M140.397 691.584V721.343H133.521V691.584H140.397Z" fill="white"/>
<path d="M118.333 698.621C120.558 698.621 122.542 699.091 124.284 700.029C126.054 700.94 127.435 702.267 128.427 704.01C129.445 705.753 129.955 707.79 129.955 710.123C129.955 712.455 129.445 714.493 128.427 716.235C127.435 717.978 126.054 719.318 124.284 720.257C122.542 721.168 120.558 721.624 118.333 721.624C116.107 721.624 114.11 721.168 112.341 720.257C110.571 719.318 109.177 717.978 108.158 716.235C107.166 714.493 106.67 712.455 106.67 710.123C106.67 707.79 107.166 705.753 108.158 704.01C109.177 702.267 110.571 700.94 112.341 700.029C114.11 699.091 116.107 698.621 118.333 698.621ZM118.333 704.573C117.019 704.573 115.906 705.056 114.995 706.021C114.11 706.959 113.668 708.326 113.668 710.123C113.668 711.919 114.11 713.286 114.995 714.225C115.906 715.163 117.019 715.632 118.333 715.632C119.646 715.632 120.746 715.163 121.63 714.225C122.515 713.286 122.957 711.919 122.957 710.123C122.957 708.326 122.515 706.959 121.63 706.021C120.746 705.056 119.646 704.573 118.333 704.573Z" fill="white"/>
<path d="M104.035 713.34C104.035 714.841 103.646 716.222 102.869 717.482C102.118 718.742 100.992 719.747 99.4905 720.498C98.016 721.249 96.2197 721.624 94.1018 721.624C90.9114 721.624 88.284 720.847 86.2197 719.292C84.1553 717.737 83.0293 715.565 82.8417 712.777H90.1607C90.268 713.849 90.6433 714.694 91.2867 715.31C91.957 715.927 92.8015 716.235 93.8202 716.235C94.705 716.235 95.402 715.994 95.9114 715.511C96.4208 715.029 96.6755 714.385 96.6755 713.581C96.6755 712.857 96.4342 712.254 95.9516 711.772C95.4959 711.289 94.9194 710.9 94.2224 710.605C93.5253 710.284 92.5602 709.908 91.3269 709.479C89.5307 708.863 88.0562 708.273 86.9033 707.71C85.7773 707.12 84.7988 706.262 83.9677 705.136C83.1634 703.983 82.7612 702.495 82.7612 700.672C82.7612 698.983 83.1902 697.522 84.0481 696.289C84.906 695.056 86.0856 694.117 87.587 693.474C89.1151 692.804 90.8578 692.469 92.8149 692.469C95.9784 692.469 98.4851 693.219 100.335 694.721C102.212 696.222 103.271 698.286 103.512 700.914H96.0723C95.9382 699.975 95.5897 699.238 95.0267 698.702C94.4905 698.139 93.7532 697.857 92.8149 697.857C92.0106 697.857 91.3538 698.072 90.8444 698.501C90.3618 698.93 90.1205 699.56 90.1205 700.391C90.1205 701.061 90.335 701.637 90.7639 702.12C91.2197 702.576 91.7827 702.951 92.453 703.246C93.1232 703.541 94.0883 703.916 95.3484 704.372C97.1715 704.989 98.6594 705.605 99.8122 706.222C100.965 706.812 101.957 707.683 102.788 708.836C103.619 709.989 104.035 711.49 104.035 713.34Z" fill="white"/>
<path d="M563.737 706.302C563.737 706.865 563.67 707.482 563.536 708.152H547.973C548.053 709.841 548.482 711.061 549.26 711.812C550.037 712.535 551.029 712.897 552.235 712.897C553.254 712.897 554.099 712.643 554.769 712.133C555.439 711.624 555.882 710.967 556.096 710.163H563.375C563.08 711.745 562.437 713.166 561.445 714.426C560.453 715.659 559.193 716.637 557.664 717.361C556.136 718.058 554.434 718.407 552.557 718.407C550.359 718.407 548.402 717.951 546.686 717.04C544.997 716.101 543.67 714.761 542.705 713.018C541.739 711.275 541.257 709.238 541.257 706.905C541.257 704.546 541.726 702.509 542.664 700.793C543.629 699.05 544.97 697.723 546.686 696.812C548.402 695.873 550.359 695.404 552.557 695.404C554.782 695.404 556.739 695.86 558.428 696.771C560.117 697.683 561.418 698.97 562.329 700.632C563.268 702.267 563.737 704.157 563.737 706.302ZM556.78 705.257C556.806 703.782 556.404 702.683 555.573 701.959C554.769 701.208 553.764 700.833 552.557 700.833C551.297 700.833 550.251 701.208 549.42 701.959C548.589 702.71 548.12 703.809 548.013 705.257H556.78Z" fill="white"/>
<path d="M531.824 699.908C532.682 698.541 533.781 697.455 535.122 696.651C536.489 695.846 537.963 695.444 539.545 695.444V702.804H537.575C535.752 702.804 534.331 703.192 533.312 703.97C532.32 704.747 531.824 706.061 531.824 707.911V718.125H524.947V695.686H531.824V699.908Z" fill="white"/>
<path d="M520.207 695.686V718.125H513.291V714.064C512.647 715.377 511.682 716.423 510.395 717.2C509.135 717.978 507.661 718.367 505.972 718.367C503.398 718.367 501.347 717.509 499.819 715.793C498.317 714.077 497.567 711.718 497.567 708.715V695.686H504.403V707.871C504.403 709.399 504.792 710.592 505.569 711.45C506.374 712.281 507.446 712.696 508.787 712.696C510.181 712.696 511.28 712.254 512.084 711.369C512.888 710.485 513.291 709.224 513.291 707.589V695.686H520.207Z" fill="white"/>
<path d="M483.746 695.404C486.587 695.404 488.853 696.115 490.542 697.535C492.258 698.956 493.33 700.833 493.759 703.165H487.325C487.137 702.254 486.708 701.543 486.038 701.034C485.394 700.498 484.577 700.23 483.585 700.23C482.807 700.23 482.217 700.404 481.815 700.753C481.413 701.074 481.212 701.543 481.212 702.16C481.212 702.857 481.574 703.38 482.298 703.728C483.049 704.077 484.215 704.426 485.797 704.774C487.512 705.176 488.92 705.592 490.019 706.021C491.118 706.423 492.07 707.093 492.874 708.031C493.679 708.97 494.081 710.23 494.081 711.812C494.081 713.098 493.732 714.238 493.035 715.23C492.338 716.222 491.333 716.999 490.019 717.562C488.705 718.125 487.15 718.407 485.354 718.407C482.325 718.407 479.898 717.737 478.075 716.396C476.252 715.056 475.14 713.139 474.738 710.645H481.373C481.48 711.611 481.882 712.348 482.579 712.857C483.303 713.367 484.228 713.621 485.354 713.621C486.132 713.621 486.722 713.447 487.124 713.098C487.526 712.723 487.727 712.241 487.727 711.651C487.727 710.873 487.352 710.324 486.601 710.002C485.877 709.653 484.684 709.291 483.022 708.916C481.36 708.568 479.992 708.192 478.92 707.79C477.847 707.388 476.923 706.745 476.145 705.86C475.368 704.948 474.979 703.715 474.979 702.16C474.979 700.149 475.743 698.527 477.271 697.294C478.799 696.034 480.957 695.404 483.746 695.404Z" fill="white"/>
<path d="M461.439 695.404C464.281 695.404 466.546 696.115 468.235 697.535C469.951 698.956 471.023 700.833 471.452 703.165H465.018C464.83 702.254 464.401 701.543 463.731 701.034C463.088 700.498 462.27 700.23 461.278 700.23C460.501 700.23 459.911 700.404 459.509 700.753C459.107 701.074 458.905 701.543 458.905 702.16C458.905 702.857 459.267 703.38 459.991 703.728C460.742 704.077 461.908 704.426 463.49 704.774C465.206 705.176 466.613 705.592 467.712 706.021C468.812 706.423 469.763 707.093 470.568 708.031C471.372 708.97 471.774 710.23 471.774 711.812C471.774 713.098 471.426 714.238 470.729 715.23C470.032 716.222 469.026 716.999 467.712 717.562C466.399 718.125 464.844 718.407 463.048 718.407C460.018 718.407 457.592 717.737 455.769 716.396C453.946 715.056 452.833 713.139 452.431 710.645H459.066C459.174 711.611 459.576 712.348 460.273 712.857C460.997 713.367 461.922 713.621 463.048 713.621C463.825 713.621 464.415 713.447 464.817 713.098C465.219 712.723 465.42 712.241 465.42 711.651C465.42 710.873 465.045 710.324 464.294 710.002C463.57 709.653 462.377 709.291 460.715 708.916C459.053 708.568 457.686 708.192 456.613 707.79C455.541 707.388 454.616 706.745 453.838 705.86C453.061 704.948 452.672 703.715 452.672 702.16C452.672 700.149 453.436 698.527 454.964 697.294C456.493 696.034 458.651 695.404 461.439 695.404Z" fill="white"/>
<path d="M449.691 706.302C449.691 706.865 449.624 707.482 449.49 708.152H433.927C434.007 709.841 434.436 711.061 435.213 711.812C435.991 712.535 436.983 712.897 438.189 712.897C439.208 712.897 440.053 712.643 440.723 712.133C441.393 711.624 441.835 710.967 442.05 710.163H449.329C449.034 711.745 448.39 713.166 447.398 714.426C446.406 715.659 445.146 716.637 443.618 717.361C442.09 718.058 440.388 718.407 438.511 718.407C436.313 718.407 434.355 717.951 432.64 717.04C430.951 716.101 429.624 714.761 428.658 713.018C427.693 711.275 427.211 709.238 427.211 706.905C427.211 704.546 427.68 702.509 428.618 700.793C429.583 699.05 430.924 697.723 432.64 696.812C434.355 695.873 436.313 695.404 438.511 695.404C440.736 695.404 442.693 695.86 444.382 696.771C446.071 697.683 447.372 698.97 448.283 700.632C449.221 702.267 449.691 704.157 449.691 706.302ZM442.734 705.257C442.76 703.782 442.358 702.683 441.527 701.959C440.723 701.208 439.717 700.833 438.511 700.833C437.251 700.833 436.205 701.208 435.374 701.959C434.543 702.71 434.074 703.809 433.967 705.257H442.734Z" fill="white"/>
<path d="M423.628 689.895V718.125H416.752V700.471L410.639 718.125H404.687L398.534 700.431V718.125H391.658V689.895H400.063L407.744 709.559L415.264 689.895H423.628Z" fill="white"/>
<path d="M919.312 715.431V721.342H916.216C913.588 721.342 911.537 720.699 910.063 719.412C908.615 718.098 907.891 715.94 907.891 712.938V704.694H904.875V698.903H907.891V693.393H914.768V698.903H919.272V704.694H914.768V713.058C914.768 713.943 914.942 714.56 915.291 714.908C915.666 715.257 916.283 715.431 917.14 715.431H919.312Z" fill="white"/>
<path d="M893.664 698.661C896.238 698.661 898.275 699.519 899.777 701.235C901.305 702.951 902.069 705.31 902.069 708.313V721.342H895.192V709.117C895.192 707.616 894.79 706.45 893.986 705.619C893.208 704.761 892.163 704.332 890.849 704.332C889.455 704.332 888.342 704.774 887.511 705.659C886.707 706.543 886.305 707.803 886.305 709.439V721.342H879.428V698.903H886.305V703.005C886.948 701.664 887.9 700.605 889.16 699.828C890.447 699.05 891.948 698.661 893.664 698.661Z" fill="white"/>
<path d="M875.843 709.519C875.843 710.083 875.776 710.699 875.642 711.369H860.079C860.16 713.058 860.589 714.278 861.366 715.029C862.143 715.753 863.135 716.115 864.342 716.115C865.361 716.115 866.205 715.86 866.875 715.351C867.546 714.841 867.988 714.184 868.202 713.38H875.481C875.186 714.962 874.543 716.383 873.551 717.643C872.559 718.876 871.299 719.855 869.771 720.579C868.243 721.276 866.54 721.624 864.664 721.624C862.465 721.624 860.508 721.168 858.792 720.257C857.103 719.318 855.776 717.978 854.811 716.235C853.846 714.493 853.363 712.455 853.363 710.123C853.363 707.763 853.832 705.726 854.771 704.01C855.736 702.267 857.076 700.94 858.792 700.029C860.508 699.091 862.465 698.621 864.664 698.621C866.889 698.621 868.846 699.077 870.535 699.989C872.224 700.9 873.524 702.187 874.436 703.849C875.374 705.485 875.843 707.375 875.843 709.519ZM868.886 708.474C868.913 706.999 868.511 705.9 867.68 705.176C866.875 704.426 865.87 704.05 864.664 704.05C863.404 704.05 862.358 704.426 861.527 705.176C860.696 705.927 860.227 707.026 860.119 708.474H868.886Z" fill="white"/>
<path d="M841.073 698.661C843.835 698.661 846.006 699.519 847.588 701.235C849.17 702.924 849.961 705.283 849.961 708.313V721.342H843.124V709.117C843.124 707.696 842.735 706.597 841.958 705.82C841.207 705.015 840.175 704.613 838.861 704.613C837.494 704.613 836.408 705.042 835.604 705.9C834.827 706.731 834.438 707.911 834.438 709.439V721.342H827.561V709.117C827.561 707.696 827.186 706.597 826.435 705.82C825.684 705.015 824.652 704.613 823.339 704.613C821.971 704.613 820.885 705.029 820.081 705.86C819.277 706.691 818.875 707.884 818.875 709.439V721.342H811.998V698.903H818.875V702.723C819.465 701.463 820.363 700.471 821.569 699.747C822.802 699.023 824.237 698.661 825.872 698.661C827.588 698.661 829.103 699.064 830.416 699.868C831.73 700.645 832.722 701.771 833.392 703.246C834.17 701.852 835.229 700.739 836.569 699.908C837.936 699.077 839.438 698.661 841.073 698.661Z" fill="white"/>
<path d="M808.413 709.519C808.413 710.083 808.346 710.699 808.212 711.369H792.649C792.729 713.058 793.158 714.278 793.936 715.029C794.713 715.753 795.705 716.115 796.912 716.115C797.93 716.115 798.775 715.86 799.445 715.351C800.115 714.841 800.558 714.184 800.772 713.38H808.051C807.756 714.962 807.113 716.383 806.121 717.643C805.129 718.876 803.869 719.855 802.341 720.579C800.813 721.276 799.11 721.624 797.233 721.624C795.035 721.624 793.078 721.168 791.362 720.257C789.673 719.318 788.346 717.978 787.381 716.235C786.416 714.493 785.933 712.455 785.933 710.123C785.933 707.763 786.402 705.726 787.341 704.01C788.306 702.267 789.646 700.94 791.362 700.029C793.078 699.091 795.035 698.621 797.233 698.621C799.459 698.621 801.416 699.077 803.105 699.989C804.794 700.9 806.094 702.187 807.006 703.849C807.944 705.485 808.413 707.375 808.413 709.519ZM801.456 708.474C801.483 706.999 801.081 705.9 800.25 705.176C799.445 704.426 798.44 704.05 797.233 704.05C795.973 704.05 794.928 704.426 794.097 705.176C793.266 705.927 792.796 707.026 792.689 708.474H801.456Z" fill="white"/>
<path d="M782.352 691.584V721.343H775.475V691.584H782.352Z" fill="white"/>
<path d="M762.215 698.621C764.065 698.621 765.714 699.091 767.161 700.029C768.636 700.94 769.789 702.267 770.62 704.01C771.478 705.726 771.907 707.763 771.907 710.123C771.907 712.455 771.478 714.493 770.62 716.235C769.789 717.978 768.636 719.318 767.161 720.257C765.714 721.168 764.065 721.624 762.215 721.624C760.499 721.624 759.025 721.235 757.791 720.458C756.558 719.68 755.66 718.621 755.097 717.281V732.04H748.22V698.903H755.097V702.965C755.66 701.624 756.558 700.565 757.791 699.788C759.025 699.01 760.499 698.621 762.215 698.621ZM760.003 704.654C758.555 704.654 757.362 705.15 756.424 706.141C755.512 707.107 755.057 708.434 755.057 710.123C755.057 711.785 755.512 713.112 756.424 714.104C757.362 715.096 758.555 715.592 760.003 715.592C761.478 715.592 762.657 715.109 763.542 714.144C764.454 713.179 764.909 711.839 764.909 710.123C764.909 708.407 764.454 707.066 763.542 706.101C762.657 705.136 761.478 704.654 760.003 704.654Z" fill="white"/>
<path d="M734.764 698.661C737.525 698.661 739.697 699.519 741.278 701.235C742.86 702.924 743.651 705.283 743.651 708.313V721.342H736.815V709.117C736.815 707.696 736.426 706.597 735.648 705.82C734.898 705.015 733.866 704.613 732.552 704.613C731.185 704.613 730.099 705.042 729.294 705.9C728.517 706.731 728.128 707.911 728.128 709.439V721.342H721.252V709.117C721.252 707.696 720.876 706.597 720.126 705.82C719.375 705.015 718.343 704.613 717.029 704.613C715.662 704.613 714.576 705.029 713.772 705.86C712.967 706.691 712.565 707.884 712.565 709.439V721.342H705.688V698.903H712.565V702.723C713.155 701.463 714.053 700.471 715.26 699.747C716.493 699.023 717.927 698.661 719.563 698.661C721.278 698.661 722.793 699.064 724.107 699.868C725.42 700.645 726.412 701.771 727.083 703.246C727.86 701.852 728.919 700.739 730.26 699.908C731.627 699.077 733.128 698.661 734.764 698.661Z" fill="white"/>
<path d="M700.941 692.911V721.342H694.064V692.911H700.941Z" fill="white"/>
<path d="M728.128 274.397C728.128 274.96 728.061 275.577 727.927 276.247H712.364C712.445 277.936 712.874 279.156 713.651 279.907C714.429 280.631 715.421 280.993 716.627 280.993C717.646 280.993 718.49 280.738 719.161 280.229C719.831 279.719 720.273 279.062 720.488 278.258H727.766C727.472 279.84 726.828 281.261 725.836 282.521C724.844 283.754 723.584 284.733 722.056 285.456C720.528 286.153 718.825 286.502 716.949 286.502C714.75 286.502 712.793 286.046 711.077 285.135C709.388 284.196 708.061 282.856 707.096 281.113C706.131 279.371 705.648 277.333 705.648 275.001C705.648 272.641 706.118 270.604 707.056 268.888C708.021 267.145 709.362 265.818 711.077 264.907C712.793 263.968 714.75 263.499 716.949 263.499C719.174 263.499 721.131 263.955 722.82 264.867C724.509 265.778 725.809 267.065 726.721 268.727C727.659 270.363 728.128 272.253 728.128 274.397ZM721.171 273.352C721.198 271.877 720.796 270.778 719.965 270.054C719.161 269.304 718.155 268.928 716.949 268.928C715.689 268.928 714.643 269.304 713.812 270.054C712.981 270.805 712.512 271.904 712.404 273.352H721.171Z" fill="white"/>
<path d="M693.172 280.47H703.548V286.221H685.652V280.792L695.304 269.491H685.813V263.781H703.146V269.21L693.172 280.47Z" fill="white"/>
<path d="M666.8 263.781L672.189 277.534L677.216 263.781H684.817L670.822 296.918H663.261L668.53 285.376L659.119 263.781H666.8Z" fill="white"/>
<path d="M656.865 256.462V286.22H649.988V256.462H656.865Z" fill="white"/>
<path d="M631.259 263.499C632.974 263.499 634.449 263.888 635.682 264.665C636.915 265.443 637.827 266.502 638.417 267.842V263.781H645.253V286.221H638.417V282.159C637.827 283.499 636.915 284.558 635.682 285.336C634.449 286.113 632.974 286.502 631.259 286.502C629.409 286.502 627.747 286.046 626.272 285.135C624.824 284.196 623.671 282.856 622.814 281.113C621.982 279.371 621.567 277.333 621.567 275.001C621.567 272.641 621.982 270.604 622.814 268.888C623.671 267.145 624.824 265.818 626.272 264.907C627.747 263.968 629.409 263.499 631.259 263.499ZM633.47 269.531C631.996 269.531 630.803 270.014 629.891 270.979C629.007 271.944 628.564 273.285 628.564 275.001C628.564 276.716 629.007 278.057 629.891 279.022C630.803 279.987 631.996 280.47 633.47 280.47C634.918 280.47 636.098 279.974 637.009 278.982C637.948 277.99 638.417 276.663 638.417 275.001C638.417 273.312 637.948 271.985 637.009 271.019C636.098 270.027 634.918 269.531 633.47 269.531Z" fill="white"/>
<path d="M609.793 263.539C612.367 263.539 614.404 264.397 615.906 266.113C617.434 267.829 618.198 270.188 618.198 273.191V286.22H611.321V273.995C611.321 272.494 610.919 271.328 610.115 270.496C609.337 269.639 608.292 269.21 606.978 269.21C605.584 269.21 604.471 269.652 603.64 270.537C602.836 271.421 602.434 272.681 602.434 274.317V286.22H595.557V263.781H602.434V267.882C603.077 266.542 604.029 265.483 605.289 264.706C606.576 263.928 608.077 263.539 609.793 263.539Z" fill="white"/>
<path d="M583.795 281.033H573.138L571.369 286.22H564.13L574.546 257.99H582.468L592.884 286.22H585.565L583.795 281.033ZM582.026 275.805L578.487 265.349L574.908 275.805H582.026Z" fill="white"/>
<defs>
<radialGradient id="paint0_radial_60_198" cx="0" cy="0" r="1" gradientUnits="userSpaceOnUse" gradientTransform="translate(591.049 -49.7758) rotate(180) scale(108.729 108.737)">
<stop offset="0.19" stop-color="#6B4292"/>
<stop offset="1" stop-color="#2C2D73"/>
</radialGradient>
<radialGradient id="paint1_radial_60_198" cx="0" cy="0" r="1" gradientUnits="userSpaceOnUse" gradientTransform="translate(248.27 -49.7759) rotate(180) scale(108.729 108.737)">
<stop offset="0.35" stop-color="#57BD7B"/>
<stop offset="0.92" stop-color="#1B763B"/>
</radialGradient>
<linearGradient id="paint2_linear_60_198" x1="941.827" y1="1036.11" x2="673.084" y2="384.294" gradientUnits="userSpaceOnUse">
<stop offset="0.18" stop-color="#3B7DC0"/>
<stop offset="0.92" stop-color="#0C52A4"/>
</linearGradient>
<linearGradient id="paint3_linear_60_198" x1="876.353" y1="999.665" x2="661.832" y2="479.103" gradientUnits="userSpaceOnUse">
<stop offset="0.18" stop-color="#3B7DC0"/>
<stop offset="0.92" stop-color="#0C52A4"/>
</linearGradient>
<linearGradient id="paint4_linear_60_198" x1="980.638" y1="1020.11" x2="711.895" y2="368.295" gradientUnits="userSpaceOnUse">
<stop offset="0.18" stop-color="#3B7DC0"/>
<stop offset="0.92" stop-color="#0C52A4"/>
</linearGradient>
<linearGradient id="paint5_linear_60_198" x1="1058.56" y1="988.11" x2="790.109" y2="336.295" gradientUnits="userSpaceOnUse">
<stop offset="0.18" stop-color="#3B7DC0"/>
<stop offset="0.92" stop-color="#0C52A4"/>
</linearGradient>
<linearGradient id="paint6_linear_60_198" x1="822.729" y1="1085.29" x2="554.282" y2="433.477" gradientUnits="userSpaceOnUse">
<stop offset="0.18" stop-color="#3B7DC0"/>
<stop offset="0.92" stop-color="#0C52A4"/>
</linearGradient>
<radialGradient id="paint7_radial_60_198" cx="0" cy="0" r="1" gradientUnits="userSpaceOnUse" gradientTransform="translate(772.956 565.015) rotate(180) scale(723.776 723.824)">
<stop offset="0.19" stop-color="#6B4292"/>
<stop offset="1" stop-color="#2C2D73"/>
</radialGradient>
<radialGradient id="paint8_radial_60_198" cx="0" cy="0" r="1" gradientUnits="userSpaceOnUse" gradientTransform="translate(773.252 565.015) rotate(180) scale(723.776 723.824)">
<stop offset="0.19" stop-color="#6B4292"/>
<stop offset="1" stop-color="#2C2D73"/>
</radialGradient>
<radialGradient id="paint9_radial_60_198" cx="0" cy="0" r="1" gradientUnits="userSpaceOnUse" gradientTransform="translate(773.252 486.204) rotate(180) scale(603.196 603.236)">
<stop offset="0.19" stop-color="#6B4292"/>
<stop offset="1" stop-color="#2C2D73"/>
</radialGradient>
<radialGradient id="paint10_radial_60_198" cx="0" cy="0" r="1" gradientUnits="userSpaceOnUse" gradientTransform="translate(773.252 565.015) rotate(180) scale(723.777 723.824)">
<stop offset="0.19" stop-color="#6B4292"/>
<stop offset="1" stop-color="#2C2D73"/>
</radialGradient>
<radialGradient id="paint11_radial_60_198" cx="0" cy="0" r="1" gradientUnits="userSpaceOnUse" gradientTransform="translate(773.252 565.015) rotate(180) scale(723.777 723.824)">
<stop offset="0.19" stop-color="#6B4292"/>
<stop offset="1" stop-color="#2C2D73"/>
</radialGradient>
<radialGradient id="paint12_radial_60_198" cx="0" cy="0" r="1" gradientUnits="userSpaceOnUse" gradientTransform="translate(430.769 565.015) rotate(180) scale(723.776 723.824)">
<stop offset="0.35" stop-color="#57BD7B"/>
<stop offset="0.92" stop-color="#1B763B"/>
</radialGradient>
<radialGradient id="paint13_radial_60_198" cx="0" cy="0" r="1" gradientUnits="userSpaceOnUse" gradientTransform="translate(431.066 565.015) rotate(180) scale(723.776 723.824)">
<stop offset="0.35" stop-color="#57BD7B"/>
<stop offset="0.92" stop-color="#1B763B"/>
</radialGradient>
<radialGradient id="paint14_radial_60_198" cx="0" cy="0" r="1" gradientUnits="userSpaceOnUse" gradientTransform="translate(431.066 486.204) rotate(180) scale(603.196 603.236)">
<stop offset="0.35" stop-color="#57BD7B"/>
<stop offset="0.92" stop-color="#1B763B"/>
</radialGradient>
<radialGradient id="paint15_radial_60_198" cx="0" cy="0" r="1" gradientUnits="userSpaceOnUse" gradientTransform="translate(431.066 565.015) rotate(180) scale(723.777 723.824)">
<stop offset="0.35" stop-color="#57BD7B"/>
<stop offset="0.92" stop-color="#1B763B"/>
</radialGradient>
<radialGradient id="paint16_radial_60_198" cx="0" cy="0" r="1" gradientUnits="userSpaceOnUse" gradientTransform="translate(431.065 565.015) rotate(180) scale(723.775 723.824)">
<stop offset="0.35" stop-color="#57BD7B"/>
<stop offset="0.92" stop-color="#1B763B"/>
</radialGradient>
<radialGradient id="paint17_radial_60_198" cx="0" cy="0" r="1" gradientUnits="userSpaceOnUse" gradientTransform="translate(597.271 1000.85) rotate(180) scale(723.776 723.824)">
<stop offset="0.14" stop-color="#F47820"/>
<stop offset="0.54" stop-color="#EE5023"/>
</radialGradient>
<radialGradient id="paint18_radial_60_198" cx="0" cy="0" r="1" gradientUnits="userSpaceOnUse" gradientTransform="translate(597.567 955.519) rotate(180) scale(660.968 661.011)">
<stop offset="0.14" stop-color="#F47820"/>
<stop offset="0.54" stop-color="#EE5023"/>
</radialGradient>
<radialGradient id="paint19_radial_60_198" cx="0" cy="0" r="1" gradientUnits="userSpaceOnUse" gradientTransform="translate(597.567 1000.85) rotate(180) scale(723.776 723.824)">
<stop offset="0.14" stop-color="#F47820"/>
<stop offset="0.54" stop-color="#EE5023"/>
</radialGradient>
<radialGradient id="paint20_radial_60_198" cx="0" cy="0" r="1" gradientUnits="userSpaceOnUse" gradientTransform="translate(597.567 1000.85) rotate(180) scale(723.777 723.824)">
<stop offset="0.14" stop-color="#F47820"/>
<stop offset="0.54" stop-color="#EE5023"/>
</radialGradient>
<radialGradient id="paint21_radial_60_198" cx="0" cy="0" r="1" gradientUnits="userSpaceOnUse" gradientTransform="translate(597.567 1000.85) rotate(180) scale(723.777 723.824)">
<stop offset="0.14" stop-color="#F47820"/>
<stop offset="0.54" stop-color="#EE5023"/>
</radialGradient>
<linearGradient id="paint22_linear_60_198" x1="316.115" y1="1088.25" x2="22.7804" y2="453.923" gradientUnits="userSpaceOnUse">
<stop offset="0.35" stop-color="#D63287"/>
<stop offset="0.92" stop-color="#742060"/>
</linearGradient>
<linearGradient id="paint23_linear_60_198" x1="239.678" y1="1045" x2="4.12179" y2="535.991" gradientUnits="userSpaceOnUse">
<stop offset="0.35" stop-color="#D63287"/>
<stop offset="0.92" stop-color="#742060"/>
</linearGradient>
<linearGradient id="paint24_linear_60_198" x1="358.481" y1="1068.7" x2="65.146" y2="434.665" gradientUnits="userSpaceOnUse">
<stop offset="0.35" stop-color="#D63287"/>
<stop offset="0.92" stop-color="#742060"/>
</linearGradient>
<linearGradient id="paint25_linear_60_198" x1="428.695" y1="1036.11" x2="135.36" y2="402.074" gradientUnits="userSpaceOnUse">
<stop offset="0.35" stop-color="#D63287"/>
<stop offset="0.92" stop-color="#742060"/>
</linearGradient>
<linearGradient id="paint26_linear_60_198" x1="201.46" y1="1141.29" x2="-91.8744" y2="507.254" gradientUnits="userSpaceOnUse">
<stop offset="0.35" stop-color="#D63287"/>
<stop offset="0.92" stop-color="#742060"/>
</linearGradient>
</defs>
</svg>
