<svg width="717" height="724" viewBox="0 0 717 724" fill="none" xmlns="http://www.w3.org/2000/svg">
<path d="M480.095 9.86269C480.05 7.93802 480.583 6.04419 481.625 4.42526C482.667 2.80633 484.17 1.53648 485.939 0.779352C487.709 0.0222207 489.665 -0.187482 491.556 0.17724C493.446 0.541963 495.184 1.4644 496.545 2.8257C497.906 4.187 498.828 5.92479 499.193 7.8151C499.558 9.70541 499.348 11.6616 498.591 13.4317C497.834 15.2017 496.564 16.7044 494.945 17.7462C493.326 18.7881 491.433 19.3212 489.508 19.2769C487.012 19.2769 484.617 18.2851 482.852 16.5196C481.086 14.754 480.095 12.3595 480.095 9.86269Z" fill="url(#paint0_radial_613_2)"/>
<path d="M220.772 9.86255C220.727 7.94734 221.254 6.06229 222.286 4.44806C223.318 2.83382 224.807 1.56362 226.563 0.799627C228.32 0.0356306 230.265 -0.187502 232.149 0.158696C234.033 0.504895 235.771 1.40473 237.141 2.74333C238.512 4.08192 239.452 5.79854 239.843 7.67407C240.233 9.54959 240.056 11.4989 239.333 13.2732C238.611 15.0475 237.376 16.5662 235.787 17.6355C234.197 18.7049 232.325 19.2763 230.41 19.2768C229.155 19.3067 227.906 19.0852 226.738 18.6255C225.57 18.1658 224.506 17.4771 223.608 16.5999C222.71 15.7228 221.996 14.6748 221.509 13.5178C221.022 12.3607 220.772 11.1179 220.772 9.86255Z" fill="url(#paint1_radial_613_2)"/>
<path d="M531.197 599.822L594.179 636.134C598.99 638.886 604.437 640.334 609.98 640.334C615.523 640.334 620.97 638.886 625.782 636.134L688.763 599.822C693.528 597.019 697.48 593.023 700.231 588.228C702.983 583.433 704.437 578.004 704.453 572.476V498.955C704.46 493.422 703.014 487.985 700.261 483.186C697.508 478.387 693.543 474.395 688.763 471.609L625.782 435.297C621.009 432.432 615.547 430.919 609.98 430.919C604.414 430.919 598.952 432.432 594.179 435.297L531.197 471.609C526.417 474.395 522.453 478.387 519.699 483.186C516.946 487.985 515.501 493.422 515.508 498.955V571.579C515.365 577.259 516.744 582.873 519.503 587.839C522.262 592.806 526.3 596.943 531.197 599.822Z" fill="url(#paint2_linear_613_2)"/>
<path d="M605.834 670.204V724H610.765V670.204L687.643 624.254L685.177 619.995L608.299 665.946L531.645 619.995L528.956 624.254L605.834 670.204Z" fill="url(#paint3_linear_613_2)"/>
<path d="M610.765 402.123V313.808H605.834V402.123L528.956 448.073L531.645 452.332L608.299 406.381L685.177 452.332L687.643 448.073L610.765 402.123Z" fill="url(#paint4_linear_613_2)"/>
<path d="M716.78 494.023H712.745V583.459H716.78V494.023Z" fill="url(#paint5_linear_613_2)"/>
<path d="M508.111 494.023H504.077V583.459H508.111V494.023Z" fill="url(#paint6_linear_613_2)"/>
<path d="M412.182 269.427L474.94 305.739C479.751 308.491 485.198 309.939 490.741 309.939C496.284 309.939 501.731 308.491 506.543 305.739L569.524 269.427C574.319 266.658 578.297 262.67 581.052 257.867C583.808 253.064 585.243 247.618 585.213 242.081V169.456C585.267 163.915 583.841 158.459 581.083 153.652C578.325 148.845 574.335 144.861 569.524 142.11L506.543 106.695C501.731 103.943 496.284 102.495 490.741 102.495C485.198 102.495 479.751 103.943 474.94 106.695L412.182 143.231C407.345 145.971 403.323 149.947 400.527 154.752C397.731 159.556 396.261 165.018 396.269 170.577V241.184C396.124 246.89 397.527 252.529 400.329 257.501C403.131 262.474 407.227 266.595 412.182 269.427Z" fill="url(#paint7_radial_613_2)"/>
<path d="M486.819 340.706V429.02H491.749V340.706L568.403 294.755L565.938 290.497L489.284 336.447L412.406 290.497L409.941 294.755L486.819 340.706Z" fill="url(#paint8_radial_613_2)"/>
<path d="M491.749 72.6242V11.2075H486.819V72.6242L409.941 118.575L412.406 122.609L489.284 76.8831L565.938 122.609L568.403 118.575L491.749 72.6242Z" fill="url(#paint9_radial_613_2)"/>
<path d="M597.541 164.525H593.506V253.96H597.541V164.525Z" fill="url(#paint10_radial_613_2)"/>
<path d="M388.872 164.525H384.837V253.96H388.872V164.525Z" fill="url(#paint11_radial_613_2)"/>
<path d="M153.307 269.427L216.289 305.739C221.101 308.491 226.547 309.939 232.09 309.939C237.633 309.939 243.08 308.491 247.892 305.739L310.873 269.427C315.638 266.624 319.591 262.628 322.342 257.833C325.093 253.038 326.548 247.609 326.563 242.081V169.456C326.57 163.924 325.125 158.486 322.371 153.687C319.618 148.888 315.653 144.896 310.873 142.11L247.892 106.695C243.08 103.943 237.633 102.495 232.09 102.495C226.547 102.495 221.101 103.943 216.289 106.695L153.307 143.231C148.528 146.017 144.563 150.009 141.81 154.808C139.056 159.607 137.611 165.044 137.618 170.577V241.184C137.475 246.863 138.854 252.478 141.613 257.444C144.372 262.41 148.41 266.548 153.307 269.427Z" fill="url(#paint12_radial_613_2)"/>
<path d="M227.944 340.706V429.02H232.875V340.706L309.753 294.755L307.287 290.497L230.41 336.447L153.756 290.497L151.066 294.755L227.944 340.706Z" fill="url(#paint13_radial_613_2)"/>
<path d="M232.875 72.6242V11.2075H227.944V72.6242L151.066 118.575L153.756 122.609L230.41 76.8831L307.287 122.609L309.753 118.575L232.875 72.6242Z" fill="url(#paint14_radial_613_2)"/>
<path d="M338.89 164.525H334.856V253.96H338.89V164.525Z" fill="url(#paint15_radial_613_2)"/>
<path d="M130.222 164.525H126.187V253.96H130.222V164.525Z" fill="url(#paint16_radial_613_2)"/>
<path d="M464.854 494.023H460.819V583.459H464.854V494.023Z" fill="url(#paint17_radial_613_2)"/>
<path d="M255.961 494.023H251.926V583.459H255.961V494.023Z" fill="url(#paint18_radial_613_2)"/>
<path d="M28.241 599.822L91.2225 636.134C96.0341 638.886 101.481 640.334 107.024 640.334C112.567 640.334 118.014 638.886 122.825 636.134L185.135 599.822C189.899 597.019 193.852 593.023 196.603 588.228C199.354 583.433 200.809 578.004 200.824 572.476V498.955C200.831 493.422 199.386 487.985 196.632 483.186C193.879 478.387 189.914 474.395 185.135 471.609L122.153 435.297C117.38 432.432 111.918 430.919 106.352 430.919C100.785 430.919 95.3231 432.432 90.5502 435.297L28.241 471.609C23.4612 474.395 19.4965 478.387 16.7432 483.186C13.9899 487.985 12.5445 493.422 12.5516 498.955V571.579C12.4084 577.259 13.7878 582.873 16.5467 587.839C19.3056 592.806 23.3434 596.943 28.241 599.822Z" fill="url(#paint19_linear_613_2)"/>
<path d="M101.757 670.204V724H106.688V670.204L183.566 624.254L181.1 619.995L104.222 665.946L27.5685 619.995L24.8789 624.254L101.757 670.204Z" fill="url(#paint20_linear_613_2)"/>
<path d="M106.688 402.123V313.808H101.757V402.123L24.8789 448.073L27.5685 452.332L104.222 406.381L181.1 452.332L183.566 448.073L106.688 402.123Z" fill="url(#paint21_linear_613_2)"/>
<path d="M212.703 494.023H208.668V583.459H212.703V494.023Z" fill="url(#paint22_linear_613_2)"/>
<path d="M4.03441 494.023H0V583.459H4.03441V494.023Z" fill="url(#paint23_linear_613_2)"/>
<path d="M294.988 207.59C294.988 208.016 294.938 208.482 294.836 208.989H283.062C283.123 210.267 283.448 211.19 284.036 211.758C284.624 212.306 285.374 212.579 286.287 212.579C287.058 212.579 287.697 212.387 288.204 212.001C288.711 211.616 289.045 211.119 289.208 210.511H294.714C294.491 211.707 294.005 212.782 293.254 213.736C292.504 214.669 291.55 215.409 290.394 215.956C289.238 216.484 287.95 216.748 286.53 216.748C284.867 216.748 283.387 216.403 282.089 215.713C280.811 215.003 279.807 213.989 279.077 212.671C278.347 211.352 277.981 209.811 277.981 208.046C277.981 206.262 278.336 204.72 279.046 203.422C279.776 202.104 280.791 201.1 282.089 200.41C283.387 199.7 284.867 199.345 286.53 199.345C288.214 199.345 289.695 199.69 290.972 200.38C292.25 201.069 293.234 202.043 293.923 203.3C294.633 204.538 294.988 205.967 294.988 207.59ZM289.725 206.799C289.745 205.683 289.441 204.852 288.812 204.304C288.204 203.736 287.443 203.452 286.53 203.452C285.577 203.452 284.786 203.736 284.157 204.304C283.529 204.872 283.174 205.704 283.093 206.799H289.725Z" fill="white"/>
<path d="M267.49 211.454L271.172 199.558H276.709L270.685 216.535H264.235L258.211 199.558H263.748L267.49 211.454Z" fill="white"/>
<path d="M251.622 202.753C252.271 201.718 253.103 200.897 254.117 200.288C255.151 199.68 256.267 199.375 257.464 199.375V204.943H255.973C254.594 204.943 253.519 205.237 252.748 205.825C251.998 206.413 251.622 207.407 251.622 208.807V216.534H246.42V199.558H251.622V202.753Z" fill="white"/>
<path d="M243.708 207.59C243.708 208.016 243.657 208.482 243.556 208.989H231.782C231.843 210.267 232.167 211.19 232.755 211.758C233.343 212.306 234.094 212.579 235.007 212.579C235.777 212.579 236.416 212.387 236.923 212.001C237.43 211.616 237.765 211.119 237.927 210.511H243.434C243.211 211.707 242.724 212.782 241.974 213.736C241.223 214.669 240.27 215.409 239.114 215.956C237.958 216.484 236.67 216.748 235.25 216.748C233.587 216.748 232.106 216.403 230.808 215.713C229.53 215.003 228.526 213.989 227.796 212.671C227.066 211.352 226.701 209.811 226.701 208.046C226.701 206.262 227.056 204.72 227.766 203.422C228.496 202.104 229.51 201.1 230.808 200.41C232.106 199.7 233.587 199.345 235.25 199.345C236.933 199.345 238.414 199.69 239.692 200.38C240.97 201.069 241.953 202.043 242.643 203.3C243.353 204.538 243.708 205.967 243.708 207.59ZM238.444 206.799C238.465 205.683 238.16 204.852 237.532 204.304C236.923 203.736 236.163 203.452 235.25 203.452C234.297 203.452 233.506 203.736 232.877 204.304C232.248 204.872 231.893 205.704 231.812 206.799H238.444Z" fill="white"/>
<path d="M216.883 199.345C219.033 199.345 220.747 199.883 222.025 200.958C223.323 202.033 224.134 203.452 224.459 205.217H219.591C219.449 204.527 219.125 203.99 218.618 203.605C218.131 203.199 217.512 202.996 216.762 202.996C216.174 202.996 215.727 203.128 215.423 203.392C215.119 203.635 214.967 203.99 214.967 204.456C214.967 204.984 215.241 205.379 215.788 205.643C216.356 205.907 217.238 206.17 218.435 206.434C219.733 206.738 220.798 207.053 221.63 207.377C222.461 207.681 223.181 208.188 223.79 208.898C224.398 209.608 224.702 210.561 224.702 211.758C224.702 212.732 224.439 213.594 223.911 214.344C223.384 215.094 222.623 215.683 221.63 216.109C220.636 216.535 219.459 216.748 218.1 216.748C215.809 216.748 213.973 216.24 212.594 215.226C211.215 214.212 210.373 212.762 210.069 210.876H215.088C215.17 211.606 215.474 212.164 216.001 212.549C216.549 212.934 217.249 213.127 218.1 213.127C218.689 213.127 219.135 212.995 219.439 212.732C219.743 212.448 219.895 212.083 219.895 211.636C219.895 211.048 219.611 210.632 219.044 210.389C218.496 210.125 217.593 209.851 216.336 209.568C215.078 209.304 214.044 209.02 213.233 208.716C212.421 208.411 211.722 207.925 211.133 207.255C210.545 206.566 210.251 205.633 210.251 204.456C210.251 202.935 210.829 201.708 211.985 200.775C213.141 199.822 214.774 199.345 216.883 199.345Z" fill="white"/>
<path d="M200.676 199.345C202.076 199.345 203.323 199.7 204.418 200.41C205.534 201.1 206.406 202.104 207.035 203.422C207.684 204.72 208.008 206.262 208.008 208.047C208.008 209.811 207.684 211.353 207.035 212.671C206.406 213.989 205.534 215.003 204.418 215.713C203.323 216.403 202.076 216.748 200.676 216.748C199.378 216.748 198.262 216.454 197.329 215.865C196.396 215.277 195.717 214.476 195.291 213.462V216.535H190.089V194.021H195.291V202.631C195.717 201.617 196.396 200.816 197.329 200.228C198.262 199.639 199.378 199.345 200.676 199.345ZM199.003 203.909C197.907 203.909 197.005 204.284 196.295 205.035C195.605 205.765 195.261 206.769 195.261 208.047C195.261 209.304 195.605 210.308 196.295 211.058C197.005 211.809 197.907 212.184 199.003 212.184C200.118 212.184 201.011 211.819 201.68 211.089C202.37 210.359 202.714 209.345 202.714 208.047C202.714 206.748 202.37 205.734 201.68 205.004C201.011 204.274 200.118 203.909 199.003 203.909Z" fill="white"/>
<path d="M176.305 194.69C178.333 194.69 180.169 195.167 181.811 196.12C183.475 197.053 184.783 198.362 185.736 200.045C186.689 201.708 187.166 203.594 187.166 205.704C187.166 207.813 186.679 209.71 185.706 211.393C184.752 213.076 183.444 214.395 181.781 215.348C180.138 216.281 178.313 216.748 176.305 216.748C174.297 216.748 172.461 216.281 170.798 215.348C169.155 214.395 167.847 213.076 166.874 211.393C165.92 209.71 165.444 207.813 165.444 205.704C165.444 203.594 165.92 201.708 166.874 200.045C167.847 198.362 169.155 197.053 170.798 196.12C172.461 195.167 174.297 194.69 176.305 194.69ZM176.305 199.528C174.601 199.528 173.242 200.086 172.228 201.201C171.234 202.296 170.737 203.797 170.737 205.704C170.737 207.59 171.234 209.091 172.228 210.206C173.242 211.322 174.601 211.88 176.305 211.88C177.988 211.88 179.337 211.322 180.351 210.206C181.365 209.091 181.872 207.59 181.872 205.704C181.872 203.818 181.365 202.317 180.351 201.201C179.357 200.086 178.009 199.528 176.305 199.528Z" fill="white"/>
<path d="M145.154 536.773C145.154 537.199 145.103 537.666 145.002 538.173H133.228C133.289 539.451 133.613 540.373 134.202 540.941C134.79 541.489 135.54 541.763 136.453 541.763C137.224 541.763 137.862 541.57 138.37 541.185C138.877 540.799 139.211 540.302 139.374 539.694H144.88C144.657 540.891 144.17 541.966 143.42 542.919C142.669 543.852 141.716 544.592 140.56 545.14C139.404 545.667 138.116 545.931 136.696 545.931C135.033 545.931 133.552 545.586 132.254 544.896C130.977 544.187 129.973 543.172 129.242 541.854C128.512 540.536 128.147 538.994 128.147 537.23C128.147 535.445 128.502 533.903 129.212 532.605C129.942 531.287 130.956 530.283 132.254 529.593C133.552 528.884 135.033 528.529 136.696 528.529C138.38 528.529 139.86 528.873 141.138 529.563C142.416 530.253 143.4 531.226 144.089 532.484C144.799 533.721 145.154 535.151 145.154 536.773ZM139.891 535.982C139.911 534.867 139.607 534.035 138.978 533.488C138.37 532.92 137.609 532.636 136.696 532.636C135.743 532.636 134.952 532.92 134.323 533.488C133.694 534.056 133.34 534.887 133.258 535.982H139.891Z" fill="white"/>
<path d="M117.656 540.637L121.337 528.741H126.874L120.851 545.718H114.401L108.377 528.741H113.914L117.656 540.637Z" fill="white"/>
<path d="M106.215 523.204V545.718H101.013V523.204H106.215Z" fill="white"/>
<path d="M89.5223 528.529C91.2057 528.529 92.7066 528.884 94.025 529.593C95.3636 530.283 96.4082 531.287 97.1586 532.605C97.9294 533.924 98.3147 535.465 98.3147 537.23C98.3147 538.994 97.9294 540.536 97.1586 541.854C96.4082 543.172 95.3636 544.187 94.025 544.896C92.7066 545.586 91.2057 545.931 89.5223 545.931C87.8389 545.931 86.3278 545.586 84.9892 544.896C83.6506 544.187 82.5959 543.172 81.8251 541.854C81.0747 540.536 80.6995 538.994 80.6995 537.23C80.6995 535.465 81.0747 533.924 81.8251 532.605C82.5959 531.287 83.6506 530.283 84.9892 529.593C86.3278 528.884 87.8389 528.529 89.5223 528.529ZM89.5223 533.031C88.5285 533.031 87.6867 533.396 86.9971 534.127C86.3278 534.836 85.9932 535.871 85.9932 537.23C85.9932 538.589 86.3278 539.623 86.9971 540.333C87.6867 541.043 88.5285 541.398 89.5223 541.398C90.5161 541.398 91.3477 541.043 92.017 540.333C92.6864 539.623 93.021 538.589 93.021 537.23C93.021 535.871 92.6864 534.836 92.017 534.127C91.3477 533.396 90.5161 533.031 89.5223 533.031Z" fill="white"/>
<path d="M78.7057 539.664C78.7057 540.799 78.4116 541.844 77.8234 542.797C77.2555 543.751 76.4036 544.511 75.2678 545.079C74.1523 545.647 72.7933 545.931 71.191 545.931C68.7774 545.931 66.7897 545.343 65.228 544.166C63.6663 542.99 62.8144 541.347 62.6724 539.238H68.2095C68.2906 540.049 68.5746 540.688 69.0614 541.154C69.5684 541.621 70.2073 541.854 70.9781 541.854C71.6474 541.854 72.1747 541.672 72.5601 541.306C72.9455 540.941 73.1381 540.455 73.1381 539.846C73.1381 539.299 72.9556 538.842 72.5905 538.477C72.2457 538.112 71.8096 537.818 71.2823 537.595C70.755 537.351 70.0248 537.067 69.0918 536.743C67.7329 536.276 66.6173 535.83 65.7452 535.404C64.8933 534.958 64.153 534.309 63.5243 533.457C62.9158 532.585 62.6116 531.459 62.6116 530.08C62.6116 528.802 62.9361 527.697 63.5851 526.764C64.2342 525.831 65.1266 525.121 66.2624 524.634C67.4185 524.127 68.7369 523.874 70.2175 523.874C72.6108 523.874 74.5072 524.442 75.9067 525.578C77.3264 526.713 78.1276 528.275 78.3101 530.263H72.6818C72.5804 529.553 72.3167 528.995 71.8908 528.589C71.4851 528.164 70.9274 527.951 70.2175 527.951C69.609 527.951 69.1121 528.113 68.7267 528.437C68.3616 528.762 68.1791 529.238 68.1791 529.867C68.1791 530.374 68.3413 530.81 68.6659 531.175C69.0107 531.52 69.4366 531.804 69.9437 532.027C70.4507 532.25 71.1809 532.534 72.1342 532.879C73.5134 533.346 74.639 533.812 75.5112 534.279C76.3833 534.725 77.1338 535.384 77.7625 536.256C78.3913 537.128 78.7057 538.264 78.7057 539.664Z" fill="white"/>
<path d="M695.488 541.245V545.718H693.145C691.158 545.718 689.606 545.231 688.491 544.257C687.395 543.263 686.848 541.631 686.848 539.359V533.122H684.566V528.741H686.848V524.573H692.05V528.741H695.458V533.122H692.05V539.45C692.05 540.12 692.182 540.586 692.446 540.85C692.73 541.114 693.196 541.245 693.845 541.245H695.488Z" fill="white"/>
<path d="M676.084 528.559C678.032 528.559 679.573 529.208 680.709 530.506C681.865 531.804 682.443 533.589 682.443 535.86V545.718H677.241V536.469C677.241 535.333 676.936 534.451 676.328 533.822C675.74 533.173 674.949 532.849 673.955 532.849C672.9 532.849 672.058 533.183 671.43 533.853C670.821 534.522 670.517 535.475 670.517 536.712V545.718H665.314V528.741H670.517V531.845C671.004 530.83 671.724 530.029 672.677 529.441C673.651 528.853 674.786 528.559 676.084 528.559Z" fill="white"/>
<path d="M662.602 536.773C662.602 537.199 662.552 537.666 662.45 538.173H650.676C650.737 539.451 651.062 540.373 651.65 540.941C652.238 541.489 652.989 541.763 653.901 541.763C654.672 541.763 655.311 541.57 655.818 541.185C656.325 540.799 656.66 540.302 656.822 539.694H662.329C662.106 540.891 661.619 541.966 660.868 542.919C660.118 543.852 659.165 544.592 658.009 545.14C656.852 545.667 655.564 545.931 654.145 545.931C652.482 545.931 651.001 545.586 649.703 544.896C648.425 544.187 647.421 543.172 646.691 541.854C645.961 540.536 645.596 538.994 645.596 537.23C645.596 535.445 645.951 533.903 646.661 532.605C647.391 531.287 648.405 530.283 649.703 529.593C651.001 528.884 652.482 528.529 654.145 528.529C655.828 528.529 657.309 528.873 658.587 529.563C659.864 530.253 660.848 531.226 661.538 532.484C662.248 533.721 662.602 535.151 662.602 536.773ZM657.339 535.982C657.359 534.867 657.055 534.035 656.427 533.488C655.818 532.92 655.057 532.636 654.145 532.636C653.191 532.636 652.4 532.92 651.772 533.488C651.143 534.056 650.788 534.887 650.707 535.982H657.339Z" fill="white"/>
<path d="M636.298 528.559C638.387 528.559 640.03 529.208 641.226 530.506C642.423 531.784 643.021 533.569 643.021 535.86V545.718H637.849V536.469C637.849 535.394 637.555 534.562 636.967 533.974C636.399 533.366 635.618 533.062 634.624 533.062C633.59 533.062 632.769 533.386 632.16 534.035C631.572 534.664 631.278 535.556 631.278 536.712V545.718H626.075V536.469C626.075 535.394 625.791 534.562 625.224 533.974C624.656 533.366 623.875 533.062 622.881 533.062C621.847 533.062 621.025 533.376 620.417 534.005C619.808 534.633 619.504 535.536 619.504 536.712V545.718H614.302V528.741H619.504V531.632C619.95 530.678 620.63 529.928 621.542 529.38C622.475 528.833 623.56 528.559 624.798 528.559C626.096 528.559 627.242 528.863 628.236 529.472C629.229 530.06 629.98 530.912 630.487 532.027C631.075 530.972 631.876 530.131 632.89 529.502C633.925 528.873 635.061 528.559 636.298 528.559Z" fill="white"/>
<path d="M611.589 536.773C611.589 537.199 611.539 537.666 611.437 538.173H599.663C599.724 539.451 600.049 540.373 600.637 540.941C601.225 541.489 601.975 541.763 602.888 541.763C603.659 541.763 604.298 541.57 604.805 541.185C605.312 540.799 605.647 540.302 605.809 539.694H611.315C611.092 540.891 610.606 541.966 609.855 542.919C609.105 543.852 608.151 544.592 606.995 545.14C605.839 545.667 604.551 545.931 603.132 545.931C601.468 545.931 599.988 545.586 598.69 544.896C597.412 544.187 596.408 543.172 595.678 541.854C594.948 540.536 594.583 538.994 594.583 537.23C594.583 535.445 594.937 533.903 595.647 532.605C596.378 531.287 597.392 530.283 598.69 529.593C599.988 528.884 601.468 528.529 603.132 528.529C604.815 528.529 606.296 528.873 607.573 529.563C608.851 530.253 609.835 531.226 610.524 532.484C611.234 533.721 611.589 535.151 611.589 536.773ZM606.326 535.982C606.346 534.867 606.042 534.035 605.413 533.488C604.805 532.92 604.044 532.636 603.132 532.636C602.178 532.636 601.387 532.92 600.759 533.488C600.13 534.056 599.775 534.887 599.694 535.982H606.326Z" fill="white"/>
<path d="M591.873 523.204V545.718H586.671V523.204H591.873Z" fill="white"/>
<path d="M576.639 528.529C578.039 528.529 579.286 528.884 580.381 529.593C581.497 530.283 582.369 531.287 582.998 532.605C583.647 533.903 583.971 535.445 583.971 537.23C583.971 538.994 583.647 540.536 582.998 541.854C582.369 543.172 581.497 544.187 580.381 544.896C579.286 545.586 578.039 545.931 576.639 545.931C575.341 545.931 574.226 545.637 573.293 545.049C572.36 544.46 571.68 543.659 571.254 542.645V553.811H566.052V528.742H571.254V531.814C571.68 530.8 572.36 529.999 573.293 529.411C574.226 528.823 575.341 528.529 576.639 528.529ZM574.966 533.092C573.871 533.092 572.968 533.467 572.258 534.218C571.569 534.948 571.224 535.952 571.224 537.23C571.224 538.487 571.569 539.491 572.258 540.242C572.968 540.992 573.871 541.367 574.966 541.367C576.081 541.367 576.974 541.002 577.643 540.272C578.333 539.542 578.678 538.528 578.678 537.23C578.678 535.932 578.333 534.918 577.643 534.187C576.974 533.457 576.081 533.092 574.966 533.092Z" fill="white"/>
<path d="M555.871 528.559C557.96 528.559 559.603 529.208 560.8 530.506C561.997 531.784 562.595 533.569 562.595 535.86V545.718H557.423V536.469C557.423 535.394 557.129 534.562 556.541 533.974C555.973 533.366 555.192 533.062 554.198 533.062C553.164 533.062 552.342 533.386 551.734 534.035C551.145 534.664 550.851 535.556 550.851 536.712V545.718H545.649V536.469C545.649 535.394 545.365 534.562 544.797 533.974C544.229 533.366 543.448 533.062 542.454 533.062C541.42 533.062 540.599 533.376 539.99 534.005C539.382 534.633 539.077 535.536 539.077 536.712V545.718H533.875V528.741H539.077V531.632C539.524 530.678 540.203 529.928 541.116 529.38C542.049 528.833 543.134 528.559 544.371 528.559C545.669 528.559 546.815 528.863 547.809 529.472C548.803 530.06 549.553 530.912 550.06 532.027C550.649 530.972 551.45 530.131 552.464 529.502C553.498 528.873 554.634 528.559 555.871 528.559Z" fill="white"/>
<path d="M530.283 524.208V545.718H525.081V524.208H530.283Z" fill="white"/>
<path d="M550.852 207.59C550.852 208.016 550.801 208.482 550.699 208.989H538.925C538.986 210.267 539.311 211.19 539.899 211.758C540.487 212.306 541.238 212.579 542.15 212.579C542.921 212.579 543.56 212.387 544.067 212.001C544.574 211.616 544.909 211.119 545.071 210.511H550.578C550.355 211.707 549.868 212.782 549.117 213.736C548.367 214.669 547.414 215.409 546.258 215.956C545.101 216.484 543.814 216.748 542.394 216.748C540.731 216.748 539.25 216.403 537.952 215.713C536.674 215.003 535.67 213.989 534.94 212.671C534.21 211.352 533.845 209.811 533.845 208.046C533.845 206.262 534.2 204.72 534.91 203.422C535.64 202.104 536.654 201.1 537.952 200.41C539.25 199.7 540.731 199.345 542.394 199.345C544.077 199.345 545.558 199.69 546.836 200.38C548.113 201.069 549.097 202.043 549.787 203.3C550.497 204.538 550.852 205.967 550.852 207.59ZM545.588 206.799C545.609 205.683 545.304 204.852 544.676 204.304C544.067 203.736 543.306 203.452 542.394 203.452C541.44 203.452 540.649 203.736 540.021 204.304C539.392 204.872 539.037 205.704 538.956 206.799H545.588Z" fill="white"/>
<path d="M524.406 212.184H532.256V216.535H518.717V212.428L526.019 203.879H518.839V199.558H531.951V203.666L524.406 212.184Z" fill="white"/>
<path d="M504.455 199.558L508.532 209.963L512.335 199.558H518.085L507.497 224.627H501.778L505.763 215.896L498.644 199.558H504.455Z" fill="white"/>
<path d="M496.939 194.021V216.535H491.736V194.021H496.939Z" fill="white"/>
<path d="M477.567 199.345C478.865 199.345 479.98 199.639 480.913 200.227C481.846 200.816 482.536 201.617 482.982 202.631V199.558H488.154V216.535H482.982V213.462C482.536 214.476 481.846 215.277 480.913 215.865C479.98 216.453 478.865 216.748 477.567 216.748C476.167 216.748 474.91 216.403 473.794 215.713C472.699 215.003 471.827 213.989 471.178 212.671C470.549 211.352 470.235 209.811 470.235 208.046C470.235 206.262 470.549 204.72 471.178 203.422C471.827 202.104 472.699 201.1 473.794 200.41C474.91 199.7 476.167 199.345 477.567 199.345ZM479.24 203.909C478.124 203.909 477.222 204.274 476.532 205.004C475.863 205.734 475.528 206.748 475.528 208.046C475.528 209.344 475.863 210.359 476.532 211.089C477.222 211.819 478.124 212.184 479.24 212.184C480.335 212.184 481.228 211.809 481.917 211.058C482.627 210.308 482.982 209.304 482.982 208.046C482.982 206.769 482.627 205.765 481.917 205.034C481.228 204.284 480.335 203.909 479.24 203.909Z" fill="white"/>
<path d="M461.327 199.375C463.274 199.375 464.816 200.025 465.952 201.323C467.108 202.621 467.686 204.406 467.686 206.677V216.534H462.483V207.286C462.483 206.15 462.179 205.268 461.571 204.639C460.983 203.99 460.192 203.665 459.198 203.665C458.143 203.665 457.301 204 456.673 204.669C456.064 205.339 455.76 206.292 455.76 207.529V216.534H450.557V199.558H455.76V202.661C456.247 201.647 456.967 200.846 457.92 200.258C458.893 199.67 460.029 199.375 461.327 199.375Z" fill="white"/>
<path d="M441.659 212.61H433.597L432.258 216.535H426.782L434.662 195.177H440.655L448.535 216.535H442.998L441.659 212.61ZM440.32 208.655L437.643 200.745L434.936 208.655H440.32Z" fill="white"/>
<path d="M279.271 599.822L342.028 635.237C346.84 637.99 352.287 639.437 357.829 639.437C363.372 639.437 368.819 637.99 373.631 635.237L436.613 599.822C441.434 597.064 445.444 593.085 448.237 588.284C451.031 583.483 452.51 578.03 452.526 572.476V498.955C452.533 493.396 451.064 487.934 448.268 483.129C445.472 478.325 441.449 474.349 436.613 471.609L373.855 435.297C369.082 432.432 363.62 430.919 358.054 430.919C352.487 430.919 347.025 432.432 342.252 435.297L279.271 471.609C274.434 474.349 270.411 478.325 267.615 483.129C264.819 487.934 263.35 493.396 263.357 498.955V571.579C263.212 577.285 264.615 582.924 267.417 587.896C270.219 592.869 274.315 596.99 279.271 599.822Z" fill="url(#paint24_radial_613_2)"/>
<path d="M353.907 670.204V724H358.838V670.204L435.716 624.254L433.027 619.995L356.373 665.946L279.495 619.995L277.03 624.254L353.907 670.204Z" fill="url(#paint25_radial_613_2)"/>
<path d="M358.838 402.123V313.808H353.907V402.123L277.03 448.073L279.495 452.332L356.373 406.381L433.027 452.332L435.716 448.073L358.838 402.123Z" fill="url(#paint26_radial_613_2)"/>
<path d="M414.506 537.356C414.506 537.72 414.462 538.119 414.376 538.552H404.314C404.366 539.644 404.643 540.433 405.146 540.918C405.648 541.386 406.29 541.62 407.07 541.62C407.728 541.62 408.274 541.455 408.708 541.126C409.141 540.797 409.427 540.372 409.566 539.852H414.272C414.081 540.875 413.665 541.793 413.024 542.608C412.382 543.405 411.568 544.038 410.58 544.506C409.592 544.957 408.491 545.182 407.278 545.182C405.856 545.182 404.591 544.887 403.482 544.298C402.39 543.691 401.532 542.825 400.908 541.698C400.284 540.571 399.972 539.254 399.972 537.746C399.972 536.221 400.275 534.903 400.882 533.794C401.506 532.667 402.372 531.809 403.482 531.22C404.591 530.613 405.856 530.31 407.278 530.31C408.716 530.31 409.982 530.605 411.074 531.194C412.166 531.783 413.006 532.615 413.596 533.69C414.202 534.747 414.506 535.969 414.506 537.356ZM410.008 536.68C410.025 535.727 409.765 535.016 409.228 534.548C408.708 534.063 408.058 533.82 407.278 533.82C406.463 533.82 405.787 534.063 405.25 534.548C404.712 535.033 404.409 535.744 404.34 536.68H410.008Z" fill="white"/>
<path d="M393.873 533.222C394.427 532.338 395.138 531.636 396.005 531.116C396.889 530.596 397.842 530.336 398.865 530.336V535.094H397.591C396.412 535.094 395.493 535.345 394.835 535.848C394.193 536.351 393.873 537.2 393.873 538.396V545H389.427V530.492H393.873V533.222Z" fill="white"/>
<path d="M386.363 530.492V545H381.891V542.374C381.475 543.224 380.851 543.9 380.019 544.402C379.204 544.905 378.251 545.156 377.159 545.156C375.495 545.156 374.169 544.602 373.181 543.492C372.21 542.383 371.725 540.858 371.725 538.916V530.492H376.145V538.37C376.145 539.358 376.396 540.13 376.899 540.684C377.419 541.222 378.112 541.49 378.979 541.49C379.88 541.49 380.591 541.204 381.111 540.632C381.631 540.06 381.891 539.246 381.891 538.188V530.492H386.363Z" fill="white"/>
<path d="M362.399 530.31C364.236 530.31 365.701 530.769 366.793 531.688C367.902 532.607 368.596 533.82 368.873 535.328H364.713C364.592 534.739 364.314 534.279 363.881 533.95C363.465 533.603 362.936 533.43 362.295 533.43C361.792 533.43 361.411 533.543 361.151 533.768C360.891 533.976 360.761 534.279 360.761 534.678C360.761 535.129 360.995 535.467 361.463 535.692C361.948 535.917 362.702 536.143 363.725 536.368C364.834 536.628 365.744 536.897 366.455 537.174C367.166 537.434 367.781 537.867 368.301 538.474C368.821 539.081 369.081 539.895 369.081 540.918C369.081 541.75 368.856 542.487 368.405 543.128C367.954 543.769 367.304 544.272 366.455 544.636C365.606 545 364.6 545.182 363.439 545.182C361.48 545.182 359.912 544.749 358.733 543.882C357.554 543.015 356.835 541.776 356.575 540.164H360.865C360.934 540.788 361.194 541.265 361.645 541.594C362.113 541.923 362.711 542.088 363.439 542.088C363.942 542.088 364.323 541.975 364.583 541.75C364.843 541.507 364.973 541.195 364.973 540.814C364.973 540.311 364.73 539.956 364.245 539.748C363.777 539.523 363.006 539.289 361.931 539.046C360.856 538.821 359.972 538.578 359.279 538.318C358.586 538.058 357.988 537.642 357.485 537.07C356.982 536.481 356.731 535.683 356.731 534.678C356.731 533.378 357.225 532.329 358.213 531.532C359.201 530.717 360.596 530.31 362.399 530.31Z" fill="white"/>
<path d="M345.012 530.31C346.121 530.31 347.075 530.561 347.872 531.064C348.669 531.567 349.259 532.251 349.64 533.118V530.492H354.06V545H349.64V542.374C349.259 543.241 348.669 543.925 347.872 544.428C347.075 544.931 346.121 545.182 345.012 545.182C343.816 545.182 342.741 544.887 341.788 544.298C340.852 543.691 340.107 542.825 339.552 541.698C339.015 540.571 338.746 539.254 338.746 537.746C338.746 536.221 339.015 534.903 339.552 533.794C340.107 532.667 340.852 531.809 341.788 531.22C342.741 530.613 343.816 530.31 345.012 530.31ZM346.442 534.21C345.489 534.21 344.717 534.522 344.128 535.146C343.556 535.77 343.27 536.637 343.27 537.746C343.27 538.855 343.556 539.722 344.128 540.346C344.717 540.97 345.489 541.282 346.442 541.282C347.378 541.282 348.141 540.961 348.73 540.32C349.337 539.679 349.64 538.821 349.64 537.746C349.64 536.654 349.337 535.796 348.73 535.172C348.141 534.531 347.378 534.21 346.442 534.21Z" fill="white"/>
<path d="M337.182 537.356C337.182 537.72 337.139 538.119 337.052 538.552H326.99C327.042 539.644 327.32 540.433 327.822 540.918C328.325 541.386 328.966 541.62 329.746 541.62C330.405 541.62 330.951 541.455 331.384 541.126C331.818 540.797 332.104 540.372 332.242 539.852H336.948C336.758 540.875 336.342 541.793 335.7 542.608C335.059 543.405 334.244 544.038 333.256 544.506C332.268 544.957 331.168 545.182 329.954 545.182C328.533 545.182 327.268 544.887 326.158 544.298C325.066 543.691 324.208 542.825 323.584 541.698C322.96 540.571 322.648 539.254 322.648 537.746C322.648 536.221 322.952 534.903 323.558 533.794C324.182 532.667 325.049 531.809 326.158 531.22C327.268 530.613 328.533 530.31 329.954 530.31C331.393 530.31 332.658 530.605 333.75 531.194C334.842 531.783 335.683 532.615 336.272 533.69C336.879 534.747 337.182 535.969 337.182 537.356ZM332.684 536.68C332.702 535.727 332.442 535.016 331.904 534.548C331.384 534.063 330.734 533.82 329.954 533.82C329.14 533.82 328.464 534.063 327.926 534.548C327.389 535.033 327.086 535.744 327.016 536.68H332.684Z" fill="white"/>
<path d="M320.332 526.748V545H315.886V533.586L311.934 545H308.086L304.108 533.56V545H299.662V526.748H305.096L310.062 539.462L314.924 526.748H320.332Z" fill="white"/>
<defs>
<radialGradient id="paint0_radial_613_2" cx="0" cy="0" r="1" gradientUnits="userSpaceOnUse" gradientTransform="translate(447.147 -37.6568) rotate(180) scale(82.2572 82.2626)">
<stop offset="0.19" stop-color="#6B4292"/>
<stop offset="1" stop-color="#2C2D73"/>
</radialGradient>
<radialGradient id="paint1_radial_613_2" cx="0" cy="0" r="1" gradientUnits="userSpaceOnUse" gradientTransform="translate(187.824 -37.657) rotate(180) scale(82.2571 82.2626)">
<stop offset="0.35" stop-color="#57BD7B"/>
<stop offset="0.92" stop-color="#1B763B"/>
</radialGradient>
<linearGradient id="paint2_linear_613_2" x1="712.521" y1="783.848" x2="509.209" y2="290.73" gradientUnits="userSpaceOnUse">
<stop offset="0.18" stop-color="#3B7DC0"/>
<stop offset="0.92" stop-color="#0C52A4"/>
</linearGradient>
<linearGradient id="paint3_linear_613_2" x1="662.988" y1="756.277" x2="500.697" y2="362.456" gradientUnits="userSpaceOnUse">
<stop offset="0.18" stop-color="#3B7DC0"/>
<stop offset="0.92" stop-color="#0C52A4"/>
</linearGradient>
<linearGradient id="paint4_linear_613_2" x1="741.883" y1="771.744" x2="538.571" y2="278.626" gradientUnits="userSpaceOnUse">
<stop offset="0.18" stop-color="#3B7DC0"/>
<stop offset="0.92" stop-color="#0C52A4"/>
</linearGradient>
<linearGradient id="paint5_linear_613_2" x1="800.83" y1="747.536" x2="597.742" y2="254.418" gradientUnits="userSpaceOnUse">
<stop offset="0.18" stop-color="#3B7DC0"/>
<stop offset="0.92" stop-color="#0C52A4"/>
</linearGradient>
<linearGradient id="paint6_linear_613_2" x1="622.419" y1="821.056" x2="419.331" y2="327.939" gradientUnits="userSpaceOnUse">
<stop offset="0.18" stop-color="#3B7DC0"/>
<stop offset="0.92" stop-color="#0C52A4"/>
</linearGradient>
<radialGradient id="paint7_radial_613_2" cx="0" cy="0" r="1" gradientUnits="userSpaceOnUse" gradientTransform="translate(584.765 427.451) rotate(180) scale(547.559 547.595)">
<stop offset="0.19" stop-color="#6B4292"/>
<stop offset="1" stop-color="#2C2D73"/>
</radialGradient>
<radialGradient id="paint8_radial_613_2" cx="0" cy="0" r="1" gradientUnits="userSpaceOnUse" gradientTransform="translate(584.989 427.451) rotate(180) scale(547.559 547.595)">
<stop offset="0.19" stop-color="#6B4292"/>
<stop offset="1" stop-color="#2C2D73"/>
</radialGradient>
<radialGradient id="paint9_radial_613_2" cx="0" cy="0" r="1" gradientUnits="userSpaceOnUse" gradientTransform="translate(584.989 367.828) rotate(180) scale(456.336 456.367)">
<stop offset="0.19" stop-color="#6B4292"/>
<stop offset="1" stop-color="#2C2D73"/>
</radialGradient>
<radialGradient id="paint10_radial_613_2" cx="0" cy="0" r="1" gradientUnits="userSpaceOnUse" gradientTransform="translate(584.989 427.451) rotate(180) scale(547.56 547.595)">
<stop offset="0.19" stop-color="#6B4292"/>
<stop offset="1" stop-color="#2C2D73"/>
</radialGradient>
<radialGradient id="paint11_radial_613_2" cx="0" cy="0" r="1" gradientUnits="userSpaceOnUse" gradientTransform="translate(584.989 427.451) rotate(180) scale(547.56 547.595)">
<stop offset="0.19" stop-color="#6B4292"/>
<stop offset="1" stop-color="#2C2D73"/>
</radialGradient>
<radialGradient id="paint12_radial_613_2" cx="0" cy="0" r="1" gradientUnits="userSpaceOnUse" gradientTransform="translate(325.89 427.451) rotate(180) scale(547.559 547.595)">
<stop offset="0.35" stop-color="#57BD7B"/>
<stop offset="0.92" stop-color="#1B763B"/>
</radialGradient>
<radialGradient id="paint13_radial_613_2" cx="0" cy="0" r="1" gradientUnits="userSpaceOnUse" gradientTransform="translate(326.115 427.451) rotate(180) scale(547.559 547.595)">
<stop offset="0.35" stop-color="#57BD7B"/>
<stop offset="0.92" stop-color="#1B763B"/>
</radialGradient>
<radialGradient id="paint14_radial_613_2" cx="0" cy="0" r="1" gradientUnits="userSpaceOnUse" gradientTransform="translate(326.115 367.828) rotate(180) scale(456.336 456.367)">
<stop offset="0.35" stop-color="#57BD7B"/>
<stop offset="0.92" stop-color="#1B763B"/>
</radialGradient>
<radialGradient id="paint15_radial_613_2" cx="0" cy="0" r="1" gradientUnits="userSpaceOnUse" gradientTransform="translate(326.114 427.451) rotate(180) scale(547.56 547.595)">
<stop offset="0.35" stop-color="#57BD7B"/>
<stop offset="0.92" stop-color="#1B763B"/>
</radialGradient>
<radialGradient id="paint16_radial_613_2" cx="0" cy="0" r="1" gradientUnits="userSpaceOnUse" gradientTransform="translate(326.114 427.451) rotate(180) scale(547.558 547.595)">
<stop offset="0.35" stop-color="#57BD7B"/>
<stop offset="0.92" stop-color="#1B763B"/>
</radialGradient>
<radialGradient id="paint17_radial_613_2" cx="0" cy="0" r="1" gradientUnits="userSpaceOnUse" gradientTransform="translate(452.078 757.174) rotate(180) scale(547.56 547.595)">
<stop offset="0.14" stop-color="#F47820"/>
<stop offset="0.54" stop-color="#EE5023"/>
</radialGradient>
<radialGradient id="paint18_radial_613_2" cx="0" cy="0" r="1" gradientUnits="userSpaceOnUse" gradientTransform="translate(452.078 757.174) rotate(180) scale(547.56 547.595)">
<stop offset="0.14" stop-color="#F47820"/>
<stop offset="0.54" stop-color="#EE5023"/>
</radialGradient>
<linearGradient id="paint19_linear_613_2" x1="239.151" y1="823.298" x2="17.2343" y2="343.407" gradientUnits="userSpaceOnUse">
<stop offset="0.35" stop-color="#D63287"/>
<stop offset="0.92" stop-color="#742060"/>
</linearGradient>
<linearGradient id="paint20_linear_613_2" x1="181.324" y1="790.572" x2="3.11847" y2="405.494" gradientUnits="userSpaceOnUse">
<stop offset="0.35" stop-color="#D63287"/>
<stop offset="0.92" stop-color="#742060"/>
</linearGradient>
<linearGradient id="paint21_linear_613_2" x1="271.202" y1="808.504" x2="49.2852" y2="328.837" gradientUnits="userSpaceOnUse">
<stop offset="0.35" stop-color="#D63287"/>
<stop offset="0.92" stop-color="#742060"/>
</linearGradient>
<linearGradient id="paint22_linear_613_2" x1="324.321" y1="783.848" x2="102.404" y2="304.181" gradientUnits="userSpaceOnUse">
<stop offset="0.35" stop-color="#D63287"/>
<stop offset="0.92" stop-color="#742060"/>
</linearGradient>
<linearGradient id="paint23_linear_613_2" x1="152.411" y1="863.421" x2="-69.5058" y2="383.754" gradientUnits="userSpaceOnUse">
<stop offset="0.35" stop-color="#D63287"/>
<stop offset="0.92" stop-color="#742060"/>
</linearGradient>
<radialGradient id="paint24_radial_613_2" cx="0" cy="0" r="1" gradientUnits="userSpaceOnUse" gradientTransform="translate(451.854 757.174) rotate(180) scale(547.559 547.595)">
<stop offset="0.14" stop-color="#F47820"/>
<stop offset="0.54" stop-color="#EE5023"/>
</radialGradient>
<radialGradient id="paint25_radial_613_2" cx="0" cy="0" r="1" gradientUnits="userSpaceOnUse" gradientTransform="translate(452.078 722.879) rotate(180) scale(500.042 500.075)">
<stop offset="0.14" stop-color="#F47820"/>
<stop offset="0.54" stop-color="#EE5023"/>
</radialGradient>
<radialGradient id="paint26_radial_613_2" cx="0" cy="0" r="1" gradientUnits="userSpaceOnUse" gradientTransform="translate(452.078 757.174) rotate(180) scale(547.559 547.595)">
<stop offset="0.14" stop-color="#F47820"/>
<stop offset="0.54" stop-color="#EE5023"/>
</radialGradient>
</defs>
</svg>
