<svg width="191" height="277" viewBox="0 0 191 277" fill="none" xmlns="http://www.w3.org/2000/svg">
<path d="M190.377 84.7387C190.298 94.9682 187.282 104.963 181.681 113.555C171.049 127.577 158.523 140.083 144.451 150.72C137.156 155.936 130.969 162.524 126.243 170.111C123.222 178.752 122.11 187.937 122.983 197.041H81.6761V186C81.23 174.491 83.5591 163.044 88.47 152.605C92.6074 145.244 97.9316 138.604 104.232 132.945C107.801 129.452 111.615 126.212 115.645 123.251C124.215 116.65 132.298 109.45 139.831 101.705C143.846 96.6316 146.043 90.3783 146.082 83.9308C146.036 79.5268 145.043 75.1825 143.168 71.1884C141.294 67.1943 138.581 63.6423 135.212 60.7706C126.908 54.2008 116.476 50.8504 105.862 51.3444H104.232C94.2818 51.445 84.6761 54.9672 77.0563 61.3092C68.4056 69.4106 62.6773 80.1012 60.7511 91.7415L18.0859 86.6237C18.5485 77.0294 21.0367 67.6387 25.39 59.056C29.7433 50.4743 35.8648 42.8928 43.359 36.8016C60.5019 22.5619 82.4333 15.253 104.775 16.334C127.776 15.0064 150.421 22.4227 168.093 37.0709C175.106 42.9126 180.736 50.2104 184.588 58.4483C188.438 66.6855 190.415 75.6603 190.377 84.7387Z" fill="#231F20"/>
<path d="M121.842 217.983H80.9107V257.962H121.842V217.983Z" fill="#231F20"/>
<path d="M102.994 3.55766C77.5704 2.31198 52.6156 10.8331 33.0862 27.429C24.3358 35.0059 17.0897 44.2144 11.7398 54.557C7.15046 64.5376 4.43578 75.3019 3.73543 86.2957V99.0451L70.1747 107.183L72.8431 95.2476C73.9977 86.3291 78.1445 78.0882 84.5829 71.918C90.2906 67.1964 97.5121 64.7819 104.862 65.1372C112.069 64.566 119.221 66.7962 124.873 71.3762C126.925 73.162 128.565 75.3843 129.677 77.8866C130.108 80.0336 130.108 82.2487 129.677 84.3969C129.72 87.8425 128.587 91.1973 126.475 93.8916C119.612 100.884 112.304 107.409 104.596 113.424C92.2898 122.531 82.014 134.178 74.4436 147.603C68.7146 160.066 65.9727 173.733 66.4401 187.481V272.66H103.529V277H100.326H62.9706V188.294C62.5696 174.056 65.4956 159.926 71.5084 147.061C79.1685 133.391 89.5253 121.477 101.927 112.068C109.406 106.271 116.535 100.019 123.274 93.3497C125.042 91.1258 125.985 88.3403 125.94 85.4815C126.341 83.696 126.341 81.8432 125.94 80.0576C125.016 77.8961 123.543 76.0222 121.672 74.63C116.621 70.5531 110.219 68.61 103.795 69.2051C97.1406 68.7863 90.5719 70.9157 85.384 75.1727C79.5063 80.9998 75.6636 88.622 74.4436 96.8759L71.5084 111.796L0 102.029V86.5661C0.621486 75.1488 3.52647 63.9802 8.53785 53.7429C13.8096 42.8049 21.1552 33.0331 30.1511 24.9885C49.9845 8.26436 75.1001 -0.599882 100.86 0.0315517L101.965 0.101944H102.994V3.55766Z" fill="#231F20"/>
</svg>
