<svg width="415" height="304" viewBox="0 0 415 304" fill="none" xmlns="http://www.w3.org/2000/svg">
<path d="M36.5029 257.556C28.3904 253.927 21.5318 247.976 16.7906 240.453C12.0493 232.93 9.63732 224.171 9.85836 215.279C9.30617 209.416 10.2371 203.509 12.5654 198.102C14.8936 192.695 18.5442 187.961 23.1806 184.338C33.8385 177.536 48.2265 186.205 46.7611 168.6C45.0292 147.262 3.86337 141.927 23.3139 116.454C44.896 88.8475 64.6129 139.927 80.5997 117.921C92.1901 101.651 72.0734 70.5763 71.0076 52.4385C69.4089 25.7653 93.3891 9.76137 120.034 3.89326C133.375 -0.432299 147.618 -1.16824 161.333 1.75938C172.523 5.76037 179.051 15.096 191.574 17.3632C216.22 22.6979 245.796 17.3632 271.508 18.4302C331.059 20.8307 352.241 62.441 346.246 110.453C345.047 120.589 337.986 134.192 349.576 140.327C361.167 146.462 372.757 135.392 383.415 144.061C386.488 148.655 388.602 153.822 389.632 159.253C390.662 164.684 390.587 170.268 389.41 175.669C385.813 184.204 371.691 190.072 366.629 198.208C350.642 224.881 397.004 251.554 342.649 257.556H36.5029Z" fill="#D1EEFC"/>
<path d="M28.7761 245.419C9.99171 247.82 1.19901 249.687 0 254.888C0 257.156 2.9309 260.356 14.2548 261.823C25.5788 263.29 40.8994 261.823 39.8336 265.291C38.7678 268.758 -6.92761 271.426 14.388 277.027C37.8352 283.295 57.8187 279.961 75.1376 285.029C88.4599 288.63 59.5506 289.297 58.4848 293.298C57.419 297.299 90.7247 301.033 119.767 302.367C134.765 303.233 149.799 303.233 164.797 302.367C176.92 301.567 183.981 299.566 197.836 298.899C224.48 297.699 256.854 298.899 284.564 298.899C349.443 298.899 385.813 291.964 379.285 281.162C377.82 278.894 357.037 272.893 369.56 271.559C382.083 270.225 394.872 272.626 406.463 270.759C412.724 269.692 416.055 265.158 412.991 263.557C409.926 261.957 393.673 260.356 388.211 258.623C370.759 252.621 421.384 246.62 361.567 245.286L28.7761 245.419Z" fill="#9CC6DB"/>
<path d="M139.218 34.1673H117.902V43.7697H139.218V34.1673Z" fill="#A5DFF9"/>
<path d="M161.865 34.1673H140.55V43.7697H161.865V34.1673Z" fill="#A5DFF9"/>
<path d="M150.542 22.8312H129.227V32.4335H150.542V22.8312Z" fill="#A5DFF9"/>
<path d="M202.632 138.86C202.632 139.779 202.997 140.661 203.647 141.312C204.296 141.962 205.177 142.327 206.096 142.327C206.991 142.293 207.839 141.912 208.46 141.266C209.081 140.619 209.427 139.757 209.427 138.86C209.427 137.963 209.081 137.1 208.46 136.454C207.839 135.807 206.991 135.427 206.096 135.392C205.177 135.392 204.296 135.757 203.647 136.408C202.997 137.058 202.632 137.94 202.632 138.86Z" fill="#003553"/>
<path d="M187.977 131.391C187.977 136.326 196.104 140.46 206.095 140.46C216.087 140.46 224.08 136.326 224.08 131.391H187.977Z" fill="#002D48"/>
<path d="M224.88 118.455H187.445V131.391H224.88V118.455Z" fill="#002D48"/>
<path d="M184.78 118.321C184.881 119.36 185.384 120.317 186.18 120.99C186.976 121.662 188.004 121.997 189.043 121.922H223.148C223.656 121.959 224.165 121.894 224.648 121.733C225.131 121.571 225.577 121.316 225.96 120.981C226.344 120.646 226.658 120.239 226.884 119.783C227.11 119.326 227.244 118.83 227.278 118.321C227.176 117.319 226.688 116.395 225.917 115.748C225.145 115.1 224.152 114.779 223.148 114.854H189.043C188.024 114.777 187.015 115.094 186.222 115.738C185.429 116.383 184.913 117.308 184.78 118.321Z" fill="#003553"/>
<path d="M184.78 129.391C184.913 130.405 185.429 131.329 186.222 131.974C187.015 132.619 188.024 132.935 189.043 132.858H223.148C224.152 132.933 225.145 132.612 225.917 131.965C226.688 131.317 227.176 130.394 227.278 129.391C227.244 128.883 227.11 128.386 226.884 127.929C226.658 127.473 226.344 127.066 225.96 126.731C225.577 126.397 225.131 126.141 224.648 125.98C224.165 125.818 223.656 125.754 223.148 125.79H189.043C188.004 125.715 186.976 126.05 186.18 126.723C185.384 127.395 184.881 128.353 184.78 129.391Z" fill="#003553"/>
<path d="M167.461 68.0424C167.444 62.9346 168.434 57.8737 170.374 53.1497C172.314 48.4257 175.167 44.1316 178.769 40.5137C182.371 36.8957 186.65 34.0251 191.362 32.0664C196.075 30.1077 201.127 29.0995 206.229 29.0995C211.331 29.0995 216.383 30.1077 221.096 32.0664C225.808 34.0251 230.088 36.8957 233.689 40.5137C237.291 44.1316 240.144 48.4257 242.084 53.1497C244.025 57.8737 245.014 62.9346 244.997 68.0424C245.023 74.359 243.493 80.5846 240.542 86.1677C237.591 91.7509 233.309 96.5192 228.078 100.05V107.919C228.078 112.853 226.213 114.854 223.148 114.854H189.043C185.446 114.854 184.381 112.853 184.381 107.919V100.05C179.149 96.5192 174.868 91.7509 171.916 86.1677C168.965 80.5846 167.435 74.359 167.461 68.0424Z" fill="#FFC820"/>
<path d="M114.172 126.857H92.856V136.459H114.172V126.857Z" fill="#A5DFF9"/>
<path d="M136.953 126.857H115.638V136.459H136.953V126.857Z" fill="#A5DFF9"/>
<path d="M125.63 115.521H104.314V125.123H125.63V115.521Z" fill="#A5DFF9"/>
<path d="M122.565 145.128H116.97V273.693H122.565V145.128Z" fill="#002944"/>
<path d="M100.849 273.826L111.907 162.332L117.502 162.999L106.444 273.826H100.849Z" fill="#002944"/>
<path d="M139.484 273.826L128.427 162.332L122.832 162.999L133.889 273.826H139.484Z" fill="#002944"/>
<path d="M150.941 152.596H89.2588V214.878H150.941V152.596Z" fill="#CBDFE7"/>
<path d="M152.674 148.996H86.8618V154.597H152.674V148.996Z" fill="#013B5A"/>
<path d="M152.674 211.144H86.8618V216.746H152.674V211.144Z" fill="#013B5A"/>
<path d="M110.709 167.667H101.916V200.075H110.709V167.667Z" fill="#013B5A"/>
<path d="M122.299 176.336H113.506V200.208H122.299V176.336Z" fill="#52B0A3"/>
<path d="M135.221 185.405H126.429V200.075H135.221V185.405Z" fill="#73CCD4"/>
<path d="M141.749 203.943H93.9219V164.599H101.649V196.341H141.749V203.943Z" fill="#013B5A"/>
<path d="M229.544 266.224L225.947 266.091V255.555L230.876 255.422L229.544 266.224Z" fill="#FAB38E"/>
<path d="M229.543 266.224C231.343 267.855 233.554 268.961 235.938 269.425C238.202 269.425 237.803 271.292 237.669 271.826C237.536 272.359 236.87 272.626 235.804 272.626C231.941 272.626 225.546 271.692 225.147 270.626C224.9 269.067 225.181 267.471 225.946 266.091L229.543 266.224Z" fill="#00233D"/>
<path d="M222.882 206.743C223.201 216.611 224.405 226.431 226.479 236.084C226.479 239.285 233.673 238.484 234.339 234.35C235.061 226.498 235.061 218.596 234.339 210.744C233.54 203.142 223.148 200.475 222.882 206.743Z" fill="#00233D"/>
<path d="M226.346 235.15C225.267 244.847 224.777 254.601 224.88 264.357H229.676C231.877 253.468 233.522 242.473 234.605 231.416C234.739 224.214 227.278 229.015 226.346 235.15Z" fill="#00233D"/>
<path d="M214.622 265.024L211.158 264.091L213.423 253.688L218.219 254.755L214.622 265.024Z" fill="#FAB38E"/>
<path d="M243.532 185.271C243.532 185.271 243.531 187.805 241.133 187.538C235.272 186.605 226.479 174.202 226.479 173.002C226.479 171.801 229.676 169.934 231.142 170.868C232.607 171.801 238.203 182.871 243.532 185.271Z" fill="#FAB38E"/>
<path d="M238.469 171.668C238.469 171.668 239.402 170.734 240.068 171.668C242.408 176.163 243.684 181.137 243.798 186.205C243.69 186.599 243.455 186.947 243.13 187.195C242.805 187.443 242.408 187.577 242 187.577C241.591 187.577 241.194 187.443 240.869 187.195C240.544 186.947 240.309 186.599 240.201 186.205C238.869 183.404 240.068 175.802 238.469 171.668Z" fill="#FAB38E"/>
<path d="M239.134 168.467H241.533L239.934 170.868C239.934 170.868 238.868 172.201 238.468 170.868C238.413 170.443 238.444 170.012 238.559 169.6C238.673 169.188 238.869 168.802 239.134 168.467Z" fill="#FAB38E"/>
<path d="M241.133 166.733C241.133 166.733 241.133 166.733 241.133 167.534L240.067 168.734L241.133 166.733Z" fill="#ED9E79"/>
<path d="M239.534 182.204L239.801 184.871L238.202 180.603L239.534 182.204Z" fill="#D99577"/>
<path d="M234.473 184.338L237.67 179.67L234.473 175.135C233.436 173.193 232.085 171.436 230.476 169.934C227.145 167.934 225.414 171.134 226.613 173.535C228.404 177.673 231.088 181.362 234.473 184.338Z" fill="#62B3E3"/>
<path d="M214.622 265.024C216.054 266.972 217.989 268.493 220.218 269.425C222.216 270.492 221.683 271.559 221.417 272.093C221.15 272.626 220.484 272.759 219.418 272.093C215.688 272.093 209.56 269.025 209.427 267.958C209.479 266.375 210.093 264.862 211.159 263.691L214.622 265.024Z" fill="#00233D"/>
<path d="M215.954 206.743C216.247 216.248 217.048 225.731 218.352 235.15C218.352 238.351 224.88 238.618 226.079 235.15C227.43 227.491 228.055 219.721 227.944 211.945C227.678 203.943 216.487 200.075 215.954 206.743Z" fill="#003553"/>
<path d="M218.353 233.416C216.089 243.819 210.493 262.357 210.493 262.357L214.89 264.224C219.449 254.566 223.149 244.525 225.947 234.217C227.546 226.748 219.552 227.148 218.353 233.416Z" fill="#003553"/>
<path d="M217.154 199.808C216.241 203.195 215.881 206.708 216.088 210.211C216.088 212.745 223.815 215.412 226.746 215.412C228.248 215.266 229.694 214.767 230.968 213.956C232.241 213.145 233.305 212.044 234.073 210.744C234.372 207.105 234.372 203.447 234.073 199.808H217.154Z" fill="#003553"/>
<path d="M233.14 187.138C233.042 181.415 232.237 175.726 230.742 170.201C229.889 169.567 228.871 169.197 227.811 169.134H223.148C221.432 169.279 219.825 170.036 218.619 171.268C217.825 177.863 217.38 184.496 217.287 191.139C217.287 198.208 216.354 203.009 216.354 203.009C218.849 203.797 221.478 204.069 224.081 203.809C227.351 203.984 230.629 203.669 233.806 202.875C233.806 202.875 233.54 194.073 233.14 187.138Z" fill="#7FB9E5"/>
<path d="M232.607 154.064C232.607 160.865 231.408 164.333 226.612 165.533C221.816 166.733 219.285 163.933 219.285 158.598C219.285 155.664 218.619 151.53 220.751 151.796C222.216 147.929 229.676 149.262 232.607 154.064Z" fill="#013B5A"/>
<path d="M231.675 157.931C231.675 164.6 230.476 167.534 227.278 167.534C224.081 167.534 220.75 164.066 220.75 158.198C220.75 152.33 222.749 150.729 226.346 150.729C229.943 150.729 231.675 151.263 231.675 157.931Z" fill="#FAB38E"/>
<path d="M226.213 149.796C221.817 149.796 220.484 149.796 220.751 152.063C221.017 154.33 221.417 154.064 223.016 154.73C225.916 155.931 229.174 155.931 232.075 154.73C233.14 154.73 232.874 151.663 232.874 151.663C230.739 150.768 228.502 150.141 226.213 149.796Z" fill="#013B5A"/>
<path d="M220.483 158.598C219.684 158.598 219.817 161.799 221.682 161.799C223.547 161.799 222.748 161.799 222.748 160.599C222.748 159.398 221.416 159.532 221.416 159.532C221.416 159.532 221.416 158.331 220.483 158.598Z" fill="#FAB38E"/>
<path d="M221.816 158.331C220.751 154.064 224.081 154.73 224.081 154.73C224.081 154.73 222.083 151.13 221.283 152.73C221.283 152.063 220.084 157.665 221.283 158.865C222.482 160.065 221.283 160.332 222.083 160.332C222.882 160.332 222.083 159.532 221.816 158.331Z" fill="#013B5A"/>
<path d="M227.678 166.733C227.678 165 222.881 163.799 223.414 165.266C223.873 166.515 223.873 167.886 223.414 169.134C223.659 169.741 224.084 170.258 224.632 170.616C225.18 170.974 225.825 171.155 226.479 171.134C229.01 171.134 228.077 169.267 228.077 169.267H227.411C227.639 168.443 227.729 167.587 227.678 166.733Z" fill="#FAB38E"/>
<path d="M218.352 190.606C218.352 191.406 215.155 194.207 214.755 192.473C213.69 185.288 214.95 177.95 218.352 171.534C219.285 169.934 222.082 171.534 221.949 174.335C221.816 177.136 218.352 186.872 218.352 190.606Z" fill="#FAB38E"/>
<path d="M226.612 202.342L225.413 203.542C221.31 200.511 217.79 196.76 215.022 192.473C214.356 190.739 217.153 189.539 218.619 190.606C221.625 194.273 224.3 198.2 226.612 202.342Z" fill="#FAB38E"/>
<path d="M228.61 204.743L227.012 206.343L225.413 203.542C225.413 203.542 225.413 201.675 226.745 202.475C227.567 203.042 228.213 203.827 228.61 204.743Z" fill="#FAB38E"/>
<path d="M228.344 207.944C228.344 207.944 227.544 206.476 227.411 206.21L228.344 207.944Z" fill="#FAB38E"/>
<path d="M229.01 207.944C229.01 207.944 227.944 205.943 227.811 205.676L229.01 207.944Z" fill="#FAB38E"/>
<path d="M229.276 207.41C229.276 207.41 228.211 205.409 227.944 205.143C228.453 205.859 228.899 206.617 229.276 207.41Z" fill="#FAB38E"/>
<path d="M229.676 206.743C229.185 206.063 228.74 205.35 228.344 204.609C228.834 205.291 229.279 206.004 229.676 206.743Z" fill="#FAB38E"/>
<path d="M229.277 204.343C228.793 204.44 228.295 204.44 227.811 204.343L226.879 202.609C226.879 202.609 229.01 204.076 229.41 203.942C229.81 203.809 229.81 204.209 229.277 204.343Z" fill="#FAB38E"/>
<path d="M218.353 172.068L222.482 182.071C223.347 179.321 224.015 176.513 224.481 173.668C224.419 172.769 224.034 171.923 223.397 171.286C222.761 170.648 221.915 170.263 221.017 170.201C220.461 170.291 219.932 170.505 219.471 170.829C219.009 171.152 218.627 171.576 218.353 172.068Z" fill="#7FB9E5"/>
<path d="M214.489 183.271L219.418 186.471C220.489 183.641 221.379 180.746 222.082 177.803C221.662 175.096 220.349 172.607 218.352 170.734C217.824 171.191 217.374 171.732 217.02 172.335C215.625 175.83 214.771 179.518 214.489 183.271Z" fill="#62B3E3"/>
<path d="M249.527 158.465L248.461 160.198L246.462 156.197L248.461 156.331L249.527 158.465Z" fill="#A7A9AC"/>
<path d="M242.865 170.201C242.865 171.001 241 172.201 240.733 171.534L236.337 164.733H239.135L242.865 170.201Z" fill="#006181"/>
<path d="M248.993 163.399L240.867 164.733L238.202 159.798L244.73 153.663L248.993 163.399Z" fill="#2096C2"/>
<path d="M245.518 152.693L244.057 153.341L248.862 164.192L250.324 163.544L245.518 152.693Z" fill="white"/>
<path d="M240.867 164.599L236.87 166.867C235.405 167.667 232.874 162.732 234.206 162.066L238.202 159.798L240.867 164.599Z" fill="#006181"/>
<path d="M239.801 168.467L240.733 167.533C240.733 168.334 239.801 168.334 239.801 168.467Z" fill="#FAB38E"/>
<path d="M238.868 167.534C238.944 167.93 238.944 168.337 238.868 168.734L238.202 170.601C238.258 170.069 238.258 169.533 238.202 169.001C238.202 169.001 238.202 167.8 238.202 167.4C238.202 167 238.868 166.733 238.868 167.534Z" fill="#FAB38E"/>
<path d="M351.575 160.598C351.647 161.04 351.647 161.49 351.575 161.932V163.532C351.575 163.532 351.575 162.332 351.575 162.065C351.575 161.799 351.575 160.865 351.575 160.465C351.575 160.065 351.575 160.332 351.575 160.598Z" fill="#FAB38E"/>
<path d="M351.575 162.332H354.106L352.508 164.733C352.508 164.733 350.776 165.933 350.909 164.733C350.916 163.888 351.146 163.06 351.575 162.332Z" fill="#FAB38E"/>
<path d="M353.84 162.066C353.911 162.282 353.911 162.516 353.84 162.732V162.066Z" fill="#ED9E79"/>
<path d="M353.574 161.532C353.574 161.532 352.908 161.532 352.775 162.466L353.574 161.532Z" fill="#ED9E79"/>
<path d="M353.174 161.132C353.261 161.247 353.307 161.388 353.307 161.532C353.307 161.676 353.261 161.817 353.174 161.932L352.108 162.999L353.174 161.132Z" fill="#ED9E79"/>
<path d="M309.877 261.823L306.679 260.356L310.942 250.621L315.472 252.488L309.877 261.823Z" fill="#FAB38E"/>
<path d="M309.876 261.823C310.901 264.039 312.514 265.93 314.539 267.291C316.271 268.758 315.471 269.692 315.205 270.225C314.939 270.759 314.139 270.225 313.207 270.225C309.61 268.758 304.147 265.291 304.147 264.091C304.147 262.89 306.679 260.223 306.679 260.223L309.876 261.823Z" fill="#00233D"/>
<path d="M321.333 204.609C320.017 214.376 319.483 224.232 319.734 234.083C319.734 237.284 326.662 238.618 327.461 234.083C328.261 229.549 331.191 216.079 332.124 208.61C333.057 201.142 322.665 198.474 321.333 204.609Z" fill="#00233D"/>
<path d="M320.267 232.216C314.938 240.485 306.945 258.889 306.945 258.889L312.407 261.557C312.407 261.557 324.53 242.619 328.127 235.95C331.724 229.282 323.598 227.015 320.267 232.216Z" fill="#00233D"/>
<path d="M325.996 266.491L322.399 266.358L322.133 255.689L327.062 255.555L325.996 266.491Z" fill="#FAB38E"/>
<path d="M327.595 168.334C328.265 168.548 328.823 169.019 329.147 169.644C329.472 170.268 329.536 170.996 329.327 171.668C329.113 172.308 328.663 172.844 328.07 173.166C327.476 173.487 326.783 173.572 326.13 173.402C325.49 173.187 324.955 172.737 324.634 172.143C324.312 171.549 324.228 170.855 324.398 170.201C324.475 169.862 324.62 169.542 324.825 169.262C325.031 168.982 325.291 168.747 325.591 168.572C325.891 168.396 326.224 168.285 326.569 168.244C326.913 168.203 327.263 168.234 327.595 168.334Z" fill="#FAB38E"/>
<path d="M344.648 178.736C344.648 179.403 344.648 181.404 343.316 181.27C336.594 179.489 330.267 176.458 324.665 172.335C324.665 170.601 326.796 168.334 328.528 168.867C334.072 171.868 339.453 175.162 344.648 178.736Z" fill="#FAB38E"/>
<path d="M348.377 165.133L349.71 165.933C348.376 170.731 346.775 175.451 344.914 180.07C344.611 180.347 344.231 180.524 343.825 180.577C343.419 180.631 343.006 180.558 342.643 180.369C342.279 180.18 341.983 179.883 341.793 179.52C341.604 179.156 341.53 178.743 341.583 178.336C343.339 173.691 345.619 169.261 348.377 165.133Z" fill="#FAB38E"/>
<path d="M344.248 178.069C344.615 178.268 344.89 178.602 345.015 179.001C345.139 179.399 345.103 179.831 344.914 180.203C344.828 180.397 344.704 180.571 344.549 180.717C344.395 180.862 344.214 180.975 344.015 181.05C343.817 181.124 343.606 181.158 343.394 181.15C343.183 181.143 342.975 181.093 342.782 181.003C342.404 180.78 342.116 180.431 341.97 180.016C341.823 179.601 341.828 179.148 341.983 178.736C342.08 178.536 342.218 178.359 342.388 178.216C342.558 178.072 342.755 177.966 342.969 177.903C343.182 177.84 343.405 177.823 343.626 177.851C343.846 177.88 344.058 177.954 344.248 178.069Z" fill="#FAB38E"/>
<path d="M343.316 181.67C345.314 181.67 346.113 179.003 346.113 179.003L339.053 175.402C335.711 172.546 331.989 170.167 327.995 168.334C327.402 168.095 326.745 168.068 326.134 168.255C325.523 168.442 324.994 168.834 324.636 169.364C324.278 169.894 324.112 170.53 324.166 171.168C324.219 171.806 324.489 172.406 324.931 172.868C330.572 176.729 336.773 179.698 343.316 181.67Z" fill="#62B3E3"/>
<path d="M325.863 266.358C327.716 267.962 329.975 269.023 332.391 269.425C334.656 269.425 334.256 271.159 334.256 271.692C334.256 272.226 333.324 272.493 332.391 272.626C328.752 272.891 325.101 272.297 321.733 270.892C321.172 269.387 321.172 267.73 321.733 266.224L325.863 266.358Z" fill="#00233D"/>
<path d="M316.138 210.744C317.337 218.879 321.067 232.083 321.6 235.417C322.133 238.751 328.928 238.884 329.327 235.417C329.432 227.486 329.031 219.557 328.128 211.678C327.196 203.542 315.339 204.343 316.138 210.744Z" fill="#003553"/>
<path d="M321.601 235.417C320.89 245.14 320.89 254.901 321.601 264.624H327.596C327.596 264.624 329.194 243.819 329.727 236.35C330.26 228.882 322.4 229.282 321.601 235.417Z" fill="#003553"/>
<path d="M315.471 198.474C314.564 202.932 314.933 207.555 316.536 211.811C317.735 213.945 322.132 214.212 325.063 214.212C326.57 214.027 328.006 213.466 329.24 212.58C330.473 211.695 331.465 210.513 332.124 209.144C332.427 205.638 332.427 202.113 332.124 198.608L315.471 198.474Z" fill="#003553"/>
<path d="M331.459 185.805C331.348 180.083 330.542 174.395 329.061 168.867C328.17 168.309 327.171 167.945 326.13 167.8H321.467C319.721 167.98 318.083 168.73 316.805 169.934C316.805 170.734 315.872 184.871 315.606 189.806L314.939 201.675C317.765 202.697 320.73 203.282 323.732 203.409C326.659 203.732 329.611 203.076 332.125 201.542C332.125 201.542 331.859 193.407 331.459 185.805Z" fill="#7FB9E5"/>
<path d="M330.925 153.397C330.925 160.065 329.726 163.533 324.93 164.733C323.96 164.939 322.955 164.906 322 164.637C321.045 164.368 320.17 163.871 319.45 163.189C318.729 162.507 318.185 161.66 317.863 160.721C317.541 159.782 317.452 158.779 317.603 157.798C317.603 154.997 316.937 150.729 319.068 150.996C320.534 146.595 327.994 147.929 330.925 153.397Z" fill="#013B5A"/>
<path d="M330.393 156.598C330.393 163.266 329.194 166.2 325.996 166.2C322.799 166.2 319.468 162.732 319.468 156.864C319.468 150.996 321.467 149.396 325.064 149.396C328.661 149.396 330.393 149.929 330.393 156.598Z" fill="#FAB38E"/>
<path d="M324.931 148.195C320.534 148.195 319.069 148.195 319.335 150.863C319.602 153.53 319.335 153.397 320.934 154.064C322.533 154.73 329.327 155.797 331.325 154.064C331.822 153.412 332.092 152.616 332.092 151.796C332.092 150.977 331.822 150.18 331.325 149.529C329.993 147.929 328.128 148.729 324.931 148.195Z" fill="#013B5A"/>
<path d="M318.803 157.264C318.003 157.264 318.137 160.465 320.002 160.465C321.867 160.465 321.067 160.465 321.067 159.265C321.067 158.064 319.735 158.198 319.735 158.198C319.735 158.198 319.735 157.131 318.803 157.264Z" fill="#FAB38E"/>
<path d="M320.135 156.998C319.069 152.863 322.4 153.397 322.4 153.397C322.4 153.397 320.268 149.796 319.602 151.396C319.602 150.729 318.27 156.331 319.602 157.664C320.935 158.998 319.602 158.998 320.402 158.998C321.201 158.998 320.402 158.198 320.135 156.998Z" fill="#013B5A"/>
<path d="M325.863 165.266C325.863 163.533 321.2 162.332 321.733 163.799C322.192 165.048 322.192 166.419 321.733 167.667H324.93C325.336 166.907 325.649 166.101 325.863 165.266Z" fill="#FAB38E"/>
<path d="M333.59 194.74C333.392 194.928 333.13 195.032 332.858 195.032C332.585 195.032 332.323 194.928 332.125 194.74C331.937 194.542 331.833 194.28 331.833 194.007C331.833 193.734 331.937 193.471 332.125 193.273C332.323 193.086 332.585 192.981 332.858 192.981C333.13 192.981 333.392 193.086 333.59 193.273C333.778 193.471 333.882 193.734 333.882 194.007C333.882 194.28 333.778 194.542 333.59 194.74Z" fill="#BCBEC0"/>
<path d="M341.873 176.453L338.408 182.458L339.907 183.325L343.372 177.32L341.873 176.453Z" fill="#BCBEC0"/>
<path d="M343.105 173.084L339.64 179.089L342.524 180.757L345.989 174.752L343.105 173.084Z" fill="#013B5A"/>
<path d="M338.736 181.495L331.673 193.736L333.749 194.937L340.812 182.695L338.736 181.495Z" fill="#EF4645"/>
<path d="M355.439 175.269C354.107 177.469 351.979 179.071 349.498 179.741C347.017 180.412 344.374 180.1 342.116 178.87C339.896 177.558 338.268 175.438 337.573 172.952C336.878 170.467 337.169 167.808 338.386 165.533C339.719 163.335 341.837 161.726 344.311 161.033C346.785 160.339 349.429 160.613 351.709 161.799C353.939 163.135 355.57 165.28 356.264 167.787C356.958 170.295 356.663 172.973 355.439 175.269Z" fill="#013B5A"/>
<path d="M354.239 174.602C353.673 175.612 352.911 176.498 351.997 177.208C351.083 177.918 350.037 178.437 348.919 178.735C347.801 179.034 346.636 179.105 345.49 178.945C344.344 178.785 343.243 178.396 342.249 177.803C340.207 176.629 338.711 174.694 338.087 172.421C337.464 170.148 337.762 167.72 338.919 165.666C340.137 163.671 342.079 162.224 344.338 161.627C346.597 161.031 348.999 161.331 351.042 162.466C352.055 163.045 352.943 163.821 353.654 164.748C354.364 165.674 354.884 166.733 355.181 167.863C355.479 168.993 355.549 170.17 355.387 171.327C355.225 172.484 354.835 173.597 354.239 174.602Z" fill="#CBDFE7"/>
<g style="mix-blend-mode:multiply">
<path d="M344.781 176.069C342.738 174.895 341.243 172.961 340.619 170.687C339.995 168.414 340.294 165.986 341.45 163.933C341.829 163.27 342.326 162.683 342.915 162.199C341.245 162.893 339.843 164.11 338.919 165.666C337.762 167.72 337.464 170.148 338.087 172.421C338.711 174.694 340.207 176.629 342.249 177.803C343.931 178.797 345.899 179.193 347.833 178.927C349.768 178.661 351.556 177.747 352.907 176.336C351.631 176.949 350.226 177.246 348.811 177.199C347.396 177.153 346.014 176.765 344.781 176.069Z" fill="#C0D9E6"/>
</g>
<path d="M353.174 170.734C352.431 170.998 351.615 170.966 350.895 170.643C350.175 170.32 349.608 169.732 349.31 169C348.765 168.451 348.459 167.708 348.459 166.933C348.459 166.159 348.765 165.416 349.31 164.866C350.054 164.602 350.87 164.635 351.589 164.958C352.309 165.281 352.877 165.869 353.174 166.6C354.506 168.2 354.373 170.067 353.174 170.734Z" fill="white"/>
<path d="M321.467 171.001C321.567 171.334 321.597 171.684 321.556 172.029C321.516 172.374 321.404 172.707 321.229 173.007C321.054 173.307 320.82 173.568 320.54 173.774C320.26 173.979 319.94 174.125 319.602 174.202C319.269 174.302 318.92 174.332 318.575 174.291C318.23 174.25 317.898 174.139 317.598 173.964C317.298 173.789 317.037 173.554 316.832 173.273C316.627 172.993 316.481 172.674 316.404 172.335C316.273 171.665 316.389 170.971 316.733 170.381C317.076 169.792 317.623 169.348 318.27 169.134C318.938 169.002 319.632 169.119 320.221 169.462C320.81 169.806 321.253 170.353 321.467 171.001Z" fill="#FAB38E"/>
<path d="M321.2 190.873C321.112 191.139 320.943 191.372 320.715 191.536C320.488 191.701 320.215 191.79 319.934 191.79C319.654 191.79 319.38 191.701 319.153 191.536C318.926 191.372 318.756 191.139 318.668 190.873C316.633 184.138 315.998 177.057 316.803 170.067C317.869 168.6 321.066 170.067 321.466 171.801C321.795 178.157 321.706 184.528 321.2 190.873Z" fill="#FAB38E"/>
<path d="M335.056 185.671V187.405C335.056 187.405 321.067 192.606 319.868 192.473C318.669 192.34 317.737 189.672 319.868 188.472C325.02 188.114 330.115 187.174 335.056 185.671Z" fill="#FAB38E"/>
<path d="M321.867 190.473C321.928 190.674 321.95 190.886 321.929 191.095C321.909 191.305 321.848 191.509 321.749 191.694C321.65 191.88 321.515 192.045 321.352 192.178C321.19 192.312 321.002 192.412 320.801 192.473C320.359 192.596 319.887 192.539 319.487 192.314C319.088 192.089 318.794 191.715 318.669 191.273C318.585 190.85 318.661 190.41 318.883 190.04C319.104 189.671 319.456 189.397 319.868 189.272C320.079 189.213 320.299 189.197 320.515 189.226C320.731 189.254 320.94 189.327 321.127 189.44C321.314 189.552 321.476 189.702 321.604 189.88C321.731 190.057 321.82 190.259 321.867 190.473Z" fill="#FAB38E"/>
<path d="M337.453 184.738V187.138H335.189C335.189 187.138 333.457 186.338 334.522 185.671C335.375 185.055 336.402 184.728 337.453 184.738Z" fill="#FAB38E"/>
<path d="M337.32 184.071C337.41 184.511 337.41 184.964 337.32 185.404H335.455C336.187 184.807 336.856 184.137 337.453 183.404C337.453 183.404 337.453 183.404 337.32 184.071Z" fill="#FAB38E"/>
<path d="M320.002 177.269L322.266 181.137C322.266 181.137 322.266 169.534 320.668 168.734C319.966 168.517 319.213 168.53 318.519 168.77C317.824 169.009 317.224 169.464 316.804 170.068L320.002 177.269Z" fill="#7FB9E5"/>
<path d="M319.602 193.407C321.2 193.407 332.924 191.539 334.922 188.339C335.074 188.051 335.153 187.73 335.153 187.405C335.153 187.08 335.074 186.759 334.922 186.472C330.55 187.535 326.092 188.204 321.6 188.472C322.056 184.886 322.056 181.256 321.6 177.669C320.555 175.006 319.018 172.562 317.071 170.468C317.036 170.911 317.036 171.357 317.071 171.801C315.159 179.065 316.063 186.783 319.602 193.407Z" fill="#62B3E3"/>
<path d="M351.575 162.866L352.507 161.799C352.164 162.125 351.852 162.482 351.575 162.866Z" fill="#FAB38E"/>
<path d="M351.575 162.332L352.507 161.265C352.148 161.575 351.834 161.935 351.575 162.332Z" fill="#FAB38E"/>
<path d="M351.575 161.665L352.374 160.865C352.074 161.096 351.806 161.365 351.575 161.665Z" fill="#FAB38E"/>
<path d="M326.397 167.934C325.638 168.522 324.689 168.808 323.732 168.734C322.658 168.747 321.599 168.47 320.668 167.934L321.467 166.2H323.732H325.864L326.397 167.934Z" fill="#62B3E3"/>
<path d="M266.312 154.064C265.612 160.467 266.386 166.945 268.577 173.002C272.121 173.365 275.692 173.365 279.235 173.002C281.1 171.668 281.233 161.932 280.567 158.598C279.901 155.264 279.235 151.53 277.237 152.33C276.51 151.496 275.584 150.86 274.544 150.483C273.505 150.105 272.387 149.998 271.295 150.172C270.204 150.345 269.174 150.793 268.302 151.474C267.43 152.154 266.746 153.046 266.312 154.064Z" fill="#013B5A"/>
<path d="M271.109 266.358L274.706 266.225V255.689L269.776 255.555L271.109 266.358Z" fill="#FAB38E"/>
<path d="M277.636 204.476C277.275 215.135 276.073 225.748 274.039 236.217C274.039 239.418 266.579 239.418 266.445 235.283C266.312 231.149 266.445 216.746 266.445 208.61C266.445 200.475 277.503 198.208 277.636 204.476Z" fill="#00233D"/>
<path d="M274.305 235.284C275.295 244.987 275.74 254.738 275.638 264.491H269.642C269.642 264.491 266.978 242.485 266.445 235.017C265.912 227.548 273.24 229.149 274.305 235.284Z" fill="#00233D"/>
<path d="M286.03 265.158L289.493 264.224L287.229 253.821L282.433 254.888L286.03 265.158Z" fill="#FAB38E"/>
<path d="M269.11 171.534C268.818 172.14 268.766 172.834 268.964 173.477C269.161 174.121 269.594 174.665 270.176 175.002C270.481 175.159 270.814 175.253 271.156 175.278C271.498 175.302 271.841 175.257 272.165 175.145C272.489 175.032 272.786 174.856 273.04 174.625C273.294 174.394 273.498 174.114 273.64 173.802C273.802 173.505 273.902 173.179 273.936 172.842C273.97 172.506 273.936 172.166 273.837 171.843C273.738 171.52 273.575 171.22 273.358 170.961C273.141 170.702 272.874 170.489 272.574 170.334C272.269 170.177 271.936 170.083 271.594 170.058C271.252 170.034 270.909 170.079 270.585 170.191C270.261 170.304 269.964 170.48 269.71 170.711C269.457 170.942 269.252 171.222 269.11 171.534Z" fill="#FAB38E"/>
<path d="M266.712 191.006C266.712 191.939 268.711 193.273 269.777 191.939C272.837 185.781 274.259 178.937 273.906 172.068C273.107 170.467 269.643 170.868 268.844 172.068C267.701 178.324 266.989 184.652 266.712 191.006Z" fill="#FAB38E"/>
<path d="M260.185 186.872V188.872L266.446 192.473C268.178 193.807 270.176 192.473 269.91 190.873C269.643 189.272 260.185 186.872 260.185 186.872Z" fill="#FAB38E"/>
<path d="M266.846 190.606C266.657 190.978 266.621 191.41 266.745 191.809C266.87 192.207 267.145 192.541 267.512 192.74C267.702 192.855 267.914 192.929 268.134 192.958C268.354 192.987 268.578 192.969 268.791 192.906C269.004 192.843 269.202 192.737 269.372 192.594C269.541 192.45 269.679 192.273 269.777 192.073C269.973 191.681 270.013 191.229 269.889 190.808C269.766 190.387 269.488 190.029 269.111 189.806C268.703 189.62 268.24 189.6 267.817 189.749C267.395 189.898 267.047 190.205 266.846 190.606Z" fill="#FAB38E"/>
<path d="M266.979 188.472L269.776 190.072L266.979 187.005V188.472Z" fill="#D99577"/>
<path d="M271.641 183.938L266.046 182.47C266.661 178.766 267.689 175.143 269.11 171.668C269.234 170.96 269.633 170.331 270.22 169.918C270.807 169.506 271.534 169.344 272.241 169.467C272.947 169.591 273.576 169.991 273.988 170.579C274.4 171.166 274.563 171.894 274.439 172.601C274.05 176.494 273.108 180.311 271.641 183.938Z" fill="#62B3E3"/>
<path d="M284.963 204.342C284.929 214.706 284.083 225.052 282.432 235.283C282.432 238.484 275.638 239.951 274.838 235.283C273.072 226.506 272.268 217.562 272.44 208.61C273.506 201.275 284.963 198.074 284.963 204.342Z" fill="#003553"/>
<path d="M282.432 234.083C285.554 243.304 288.135 252.701 290.159 262.224L284.297 263.824C284.297 263.824 277.37 243.952 275.238 237.151C273.107 230.349 280.168 228.215 282.432 234.083Z" fill="#003553"/>
<path d="M282.033 196.074C283.362 197.794 284.311 199.778 284.817 201.893C285.322 204.008 285.372 206.207 284.964 208.343C284.964 210.611 276.704 213.145 273.773 213.145C270.842 213.145 266.579 210.344 266.446 208.877C265.776 204.344 266.423 199.715 268.311 195.54L282.033 196.074Z" fill="#003553"/>
<path d="M267.911 187.272C267.732 181.566 268.36 175.864 269.776 170.334C270.639 169.72 271.651 169.351 272.707 169.267C274.26 169.176 275.817 169.176 277.369 169.267C279.084 169.469 280.704 170.163 282.032 171.268C282.933 173.935 283.427 176.722 283.498 179.536C283.484 183.011 282.991 186.466 282.032 189.806C282.316 192.866 282.316 195.947 282.032 199.008H268.71L267.911 187.272Z" fill="#7FB9E5"/>
<path d="M272.575 169.267C271.917 169.118 271.234 169.118 270.576 169.267C269.145 172.837 268.334 176.626 268.178 180.47C268.047 182.646 268.047 184.829 268.178 187.005C268.178 191.006 266.58 201.142 266.979 201.675C267.379 202.209 270.043 203.676 270.576 202.742C271.109 201.809 270.576 194.473 270.576 187.005C270.525 181.033 271.196 175.077 272.575 169.267Z" fill="white"/>
<path d="M267.245 159.798C268.444 166.333 270.309 169.001 273.373 168.334C276.437 167.667 279.235 163.666 278.036 157.931C276.837 152.196 274.572 151.13 271.108 151.796C267.644 152.463 265.912 153.397 267.245 159.798Z" fill="#FAB38E"/>
<path d="M278.703 158.331C279.502 158.331 280.035 161.265 278.703 161.665C277.37 162.066 277.637 161.665 277.504 160.732C277.37 159.798 278.436 159.265 278.436 159.265C278.436 159.265 277.77 158.198 278.703 158.331Z" fill="#FAB38E"/>
<path d="M276.838 158.731C275.027 159.388 273.047 159.402 271.228 158.771C269.408 158.14 267.861 156.901 266.846 155.264C266.846 155.264 265.913 149.796 275.772 151.53C278.569 151.53 278.969 157.264 278.17 158.731C277.37 160.198 277.37 160.999 277.37 160.999C277.015 160.296 276.832 159.519 276.838 158.731Z" fill="#013B5A"/>
<path d="M272.974 166.733C272.974 165 277.636 163.799 277.104 165.266C276.73 166.528 276.73 167.872 277.104 169.134C276.859 169.741 276.433 170.258 275.886 170.616C275.338 170.974 274.693 171.155 274.039 171.134C271.508 171.134 272.441 169.267 272.441 169.267H273.24C273.036 168.439 272.946 167.586 272.974 166.733Z" fill="#FAB38E"/>
<path d="M260.583 186.472V188.739H263.381C263.381 188.739 265.246 187.805 264.047 187.272C262.979 186.714 261.787 186.438 260.583 186.472Z" fill="#FAB38E"/>
<path d="M258.319 187.005H259.918V186.338L258.319 187.005Z" fill="#ED9E79"/>
<path d="M259.785 186.472H262.582H261.383C260.808 186.411 260.227 186.411 259.651 186.472C259.651 186.472 259.518 186.338 259.785 186.472Z" fill="#FAB38E"/>
<path d="M283.498 180.07C283.356 177.263 282.863 174.486 282.033 171.801C281.438 171.161 280.716 170.652 279.913 170.307C279.11 169.963 278.244 169.79 277.37 169.801C277.37 169.801 274.839 171.268 274.572 172.868C274.763 183.57 275.519 194.254 276.837 204.876C279.624 205.333 282.482 205.01 285.097 203.942C285.097 203.276 282.566 190.606 282.566 190.606C283.253 187.137 283.565 183.605 283.498 180.07Z" fill="white"/>
<path d="M277.369 172.868C277.332 173.554 277.56 174.229 278.007 174.75C278.453 175.272 279.084 175.601 279.767 175.669C280.453 175.707 281.126 175.478 281.647 175.031C282.169 174.583 282.497 173.952 282.565 173.268C282.606 172.602 282.396 171.946 281.976 171.427C281.557 170.909 280.959 170.566 280.3 170.468C279.95 170.431 279.596 170.464 279.259 170.565C278.921 170.666 278.607 170.833 278.335 171.056C278.062 171.279 277.836 171.554 277.671 171.865C277.505 172.176 277.403 172.517 277.369 172.868Z" fill="#FAB38E"/>
<path d="M280.301 192.473C280.301 193.273 282.966 193.807 283.498 192.473C284.39 185.605 283.938 178.629 282.166 171.935C280.701 170.601 277.637 171.935 277.503 174.068C278.106 180.249 279.04 186.393 280.301 192.473Z" fill="#FAB38E"/>
<path d="M268.577 183.938L267.911 185.538C267.911 185.538 280.301 193.94 281.233 194.073C282.166 194.207 283.898 191.806 282.699 190.339C278.236 187.701 273.501 185.555 268.577 183.938Z" fill="#FAB38E"/>
<path d="M280.167 192.073C280.194 192.502 280.367 192.909 280.659 193.225C280.95 193.54 281.341 193.746 281.766 193.807C281.976 193.825 282.188 193.801 282.389 193.737C282.59 193.673 282.776 193.57 282.937 193.434C283.098 193.298 283.231 193.131 283.327 192.943C283.423 192.755 283.481 192.55 283.498 192.34C283.536 192.119 283.527 191.893 283.472 191.676C283.417 191.459 283.318 191.256 283.179 191.08C283.041 190.904 282.868 190.759 282.67 190.655C282.473 190.55 282.256 190.488 282.033 190.472C281.581 190.468 281.143 190.628 280.8 190.922C280.457 191.216 280.232 191.625 280.167 192.073Z" fill="#FAB38E"/>
<path d="M266.579 182.47L264.98 184.071L267.911 185.538C267.911 185.538 269.776 185.538 268.977 184.204C268.339 183.431 267.513 182.834 266.579 182.47Z" fill="#FAB38E"/>
<path d="M266.846 181.804C266.796 182.291 266.796 182.783 266.846 183.271L268.577 184.071C268.001 183.328 267.509 182.523 267.112 181.67C267.112 181.67 266.979 181.137 266.846 181.804Z" fill="#FAB38E"/>
<path d="M282.033 189.672L279.502 188.339L279.235 186.872L282.033 189.672Z" fill="#ED9E79"/>
<path d="M284.031 183.671H278.17C277.427 179.984 277.069 176.229 277.104 172.468C277.042 171.778 277.239 171.09 277.654 170.537C278.07 169.983 278.676 169.604 279.355 169.471C280.034 169.338 280.738 169.462 281.331 169.819C281.924 170.175 282.364 170.739 282.566 171.401C283.58 175.411 284.073 179.535 284.031 183.671Z" fill="#62B3E3"/>
<path d="M274.572 193.14L262.848 194.073L257.253 180.337L267.378 176.869L274.572 193.14Z" fill="#CE7D3D"/>
<path d="M272.574 180.07L270.309 183.404L269.776 182.204L271.908 179.403L272.574 180.07Z" fill="#005486"/>
<path d="M271.642 266.358C269.769 267.957 267.524 269.058 265.114 269.559C262.982 269.559 263.249 271.293 263.382 271.826C263.515 272.359 264.581 271.826 265.647 271.826C269.204 271.797 272.659 270.629 275.505 268.492C275.762 268.046 275.898 267.54 275.898 267.025C275.898 266.51 275.762 266.004 275.505 265.558L271.642 266.358Z" fill="#00233D"/>
<path d="M274.572 266.224C272.903 267.387 271.117 268.37 269.243 269.159C266.445 270.359 265.379 269.159 265.379 269.159C267.425 268.474 269.357 267.485 271.108 266.224H272.174H274.572Z" fill="#FAB38E"/>
<path d="M286.029 265.024C284.578 266.986 282.653 268.546 280.434 269.559C278.435 270.759 278.968 271.826 279.235 272.359C279.501 272.893 280.567 272.359 281.633 272.359C285.096 271.583 288.195 269.655 290.426 266.891C290.516 266.372 290.464 265.837 290.277 265.345C290.089 264.852 289.772 264.418 289.36 264.091L286.029 265.024Z" fill="#00233D"/>
<path d="M289.36 264.091C287.983 265.607 286.466 266.992 284.831 268.225C282.433 270.092 281.101 269.159 281.101 269.159C282.966 268.07 284.633 266.672 286.03 265.024H286.962L289.36 264.091Z" fill="#FAB38E"/>
<path d="M76.3364 176.069C77.1349 175.868 77.8702 175.469 78.4753 174.91C79.0803 174.351 79.5358 173.649 79.8002 172.868C79.8002 171.268 79.1341 169.934 79.8002 168.334C80.4663 166.733 80.866 165.666 81.2656 164.333C81.5994 162.705 81.5994 161.026 81.2656 159.398C81.0526 157.975 80.4536 156.637 79.5338 155.531C79.5338 155.531 78.7344 158.598 78.468 159.532C78.2015 160.465 77.6686 163.132 77.1358 165C76.4932 167.596 75.6468 170.138 74.6045 172.601L76.3364 176.069Z" fill="#013B5A"/>
<path d="M63.9474 185.671C62.2155 185.671 61.5493 183.804 61.8158 182.604C62.0822 181.404 63.0148 179.937 61.8158 178.336C60.6168 176.736 60.6168 173.668 62.7484 171.535C63.8639 170.438 64.5292 168.963 64.6135 167.4C64.6135 165.666 64.6135 164.199 64.6135 162.732C64.6135 161.265 66.2121 160.065 66.745 158.731C67.2779 157.398 66.7451 155.664 69.0098 155.797C70.5334 156.022 71.9639 156.669 73.1397 157.664C74.2753 159.1 74.8443 160.904 74.7384 162.732C74.7384 167.934 72.4736 173.002 72.4736 178.336L63.9474 185.671Z" fill="#013B5A"/>
<path d="M71.8074 238.084C71.0277 248.383 71.0277 258.726 71.8074 269.025H75.0048C75.0048 269.025 78.735 245.419 78.735 237.951C78.735 230.482 72.6068 231.949 71.8074 238.084Z" fill="#E8A283"/>
<path d="M74.8709 269.159C76.6714 270.789 78.8826 271.896 81.2656 272.359C83.5304 272.359 83.1308 274.226 82.9975 274.76C82.8643 275.293 81.7985 274.76 80.7327 274.76C77.2357 274.742 73.8331 273.622 71.0075 271.559C70.7248 271.098 70.5752 270.567 70.5752 270.025C70.5752 269.484 70.7248 268.953 71.0075 268.492L74.8709 269.159Z" fill="#00233D"/>
<path d="M71.8071 269.025C73.4968 270.153 75.2796 271.135 77.1361 271.959C80.067 273.16 81.1327 271.959 81.1327 271.959C79.0747 271.304 77.139 270.313 75.4041 269.025H74.3383H71.8071Z" fill="#E8A283"/>
<path d="M61.8154 268.092L58.4849 267.158L60.6164 256.889L65.5457 257.822L61.8154 268.092Z" fill="#FAB38E"/>
<path d="M65.946 237.551C62.9181 246.713 60.5146 256.07 58.752 265.558L61.9493 267.158C61.9493 267.158 70.3423 247.02 72.6071 239.818C74.8719 232.616 68.2108 231.816 65.946 237.551Z" fill="#FAB38E"/>
<path d="M61.8162 268.092C63.2673 270.053 65.1927 271.614 67.4115 272.626C69.4098 273.693 68.7437 274.76 68.6105 275.293C68.4773 275.827 67.2783 275.293 66.2125 275.293C62.7722 274.461 59.6898 272.544 57.4198 269.825C57.3273 269.318 57.3644 268.795 57.5274 268.305C57.6904 267.816 57.9742 267.375 58.3524 267.025L61.8162 268.092Z" fill="#00233D"/>
<path d="M58.4849 267.158C59.9211 268.573 61.4332 269.909 63.0144 271.159C65.5457 273.026 66.8779 272.226 66.8779 272.226C65.0127 271.137 63.3458 269.739 61.9486 268.092L60.8829 267.425L58.4849 267.158Z" fill="#FAB38E"/>
<path d="M80.2006 156.064C81.3322 162.664 80.0049 169.45 76.4703 175.135C74.1314 175.507 71.7485 175.507 69.4096 175.135C67.278 173.935 66.079 164.333 66.4786 160.999C66.8783 157.664 66.4786 153.797 69.1431 154.33C69.8657 153.465 70.7999 152.801 71.8546 152.404C72.9093 152.008 74.0487 151.891 75.1619 152.065C76.2751 152.24 77.3242 152.7 78.2072 153.4C79.0901 154.101 79.7769 155.019 80.2006 156.064Z" fill="#013B5A"/>
<path d="M68.21 206.743C68.5027 217.186 69.7063 227.584 71.807 237.818H79.4007C79.4007 233.683 79.4007 219.28 79.4007 211.144C79.4007 203.009 68.4764 201.008 68.21 206.743Z" fill="#00233D"/>
<path d="M81.1326 194.073C81.1326 194.874 79.1343 196.207 77.9353 195.007C74.8741 188.852 73.4952 181.996 73.9386 175.135C74.7379 173.402 77.9353 174.202 78.7346 175.135C79.9704 181.385 80.7717 187.713 81.1326 194.073Z" fill="#FAB38E"/>
<path d="M87.7941 189.939V191.673C87.7941 191.673 83.7974 193.54 81.1329 195.14C78.4685 196.741 77.4027 195.14 77.6691 193.807C77.9355 192.473 87.7941 189.939 87.7941 189.939Z" fill="#FAB38E"/>
<path d="M80.9991 191.673L79.5337 192.74L80.8659 190.739L80.9991 191.673Z" fill="#D99577"/>
<path d="M75.9367 186.738L81.6652 185.405C80.9985 181.712 79.9722 178.094 78.6011 174.602C78.3963 173.958 77.9661 173.411 77.3897 173.06C76.8133 172.708 76.1296 172.578 75.4645 172.691C74.7995 172.805 74.1978 173.155 73.7705 173.678C73.3431 174.201 73.1188 174.86 73.1389 175.536C73.5908 179.374 74.531 183.139 75.9367 186.738Z" fill="#62B3E3"/>
<path d="M62.7485 207.41C62.7071 217.733 63.554 228.04 65.2797 238.218H72.8735C74.6364 229.441 75.3962 220.493 75.1382 211.544C74.3389 204.343 63.2814 201.142 62.7485 207.41Z" fill="#003553"/>
<path d="M65.8119 199.141C64.4357 200.838 63.4481 202.816 62.9187 204.936C62.3892 207.056 62.3309 209.266 62.7478 211.411C62.7478 213.678 71.0076 216.079 74.0717 216.079C75.2404 216.108 76.3902 215.779 77.3666 215.135C78.3429 214.492 79.0993 213.564 79.5339 212.478C80.067 208.048 80.067 203.571 79.5339 199.141H65.8119Z" fill="#003553"/>
<path d="M79.0017 189.672C79.0017 187.538 80.2007 185.805 79.801 183.804C78.602 179.403 77.6694 173.802 77.403 173.535C76.8133 172.88 76.0111 172.454 75.1382 172.335C73.5853 172.244 72.0284 172.244 70.4755 172.335C68.7606 172.536 67.1409 173.231 65.8126 174.335C64.9048 176.954 64.4104 179.699 64.3472 182.471C64.3472 185.946 64.8406 189.403 65.8126 192.74C65.8126 192.74 65.8126 197.007 64.6136 201.008H79.4014C79.4014 201.008 78.8685 193.407 79.0017 189.672Z" fill="#7FB9E5"/>
<path d="M79.9335 161.799C79.9335 168.467 77.802 171.268 74.7379 171.001C71.6737 170.734 68.4764 167 69.0093 161.132C69.5422 155.264 71.6737 153.93 75.2707 154.197C78.8677 154.464 80.5996 155.131 79.9335 161.799Z" fill="#FAB38E"/>
<path d="M68.3436 161.532C67.5442 161.532 67.411 164.599 69.2761 164.733C71.1412 164.866 70.3419 164.733 70.4751 163.666C70.6084 162.599 69.2761 162.466 69.2761 162.466C69.2761 162.466 69.2761 161.399 68.3436 161.532Z" fill="#FAB38E"/>
<path d="M70.2086 161.799C72.1032 162.272 74.1027 162.08 75.8729 161.255C77.643 160.429 79.0766 159.021 79.9338 157.264C79.9338 157.264 79.9338 151.663 70.6082 154.464C67.8106 155.264 67.9438 160.465 69.0096 161.932C70.0754 163.399 69.9421 164.066 69.9421 164.066C70.284 163.362 70.3779 162.563 70.2086 161.799Z" fill="#013B5A"/>
<path d="M74.8714 169.668C74.8714 167.934 70.2086 166.867 70.6083 168.334C71.0248 169.589 71.0248 170.946 70.6083 172.201C70.8403 172.808 71.2671 173.321 71.8217 173.659C72.3762 173.997 73.0272 174.141 73.6724 174.069C76.0704 174.069 75.2711 172.335 75.2711 172.335H74.4718C74.7351 171.47 74.8698 170.571 74.8714 169.668Z" fill="#FAB38E"/>
<path d="M90.5909 189.672V192.073H87.7932C87.7932 192.073 85.9281 191.139 87.1271 190.606C88.1822 190.001 89.3752 189.68 90.5909 189.672Z" fill="#FAB38E"/>
<path d="M92.3233 190.339H90.7246V189.672L92.3233 190.339Z" fill="#ED9E79"/>
<path d="M91.3915 189.672H88.5938C88.9918 189.622 89.3947 189.622 89.7928 189.672H91.5247C91.5247 189.672 91.6579 189.539 91.3915 189.672Z" fill="#FAB38E"/>
<path d="M70.3416 175.802C70.3785 176.135 70.349 176.472 70.2549 176.794C70.1607 177.116 70.0038 177.415 69.7932 177.676C69.5825 177.936 69.3224 178.152 69.0278 178.312C68.7331 178.471 68.4099 178.57 68.0768 178.603C67.7441 178.64 67.4073 178.61 67.0861 178.516C66.7648 178.422 66.4654 178.265 66.2052 178.054C65.945 177.843 65.7292 177.583 65.5702 177.288C65.4113 176.993 65.3123 176.669 65.2791 176.336C65.2422 176.003 65.2717 175.666 65.3658 175.344C65.46 175.022 65.6169 174.723 65.8275 174.462C66.0382 174.202 66.2983 173.986 66.5929 173.826C66.8876 173.667 67.2108 173.568 67.5439 173.535C67.8766 173.498 68.2134 173.528 68.5346 173.622C68.8559 173.716 69.1553 173.873 69.4155 174.084C69.6757 174.295 69.8915 174.555 70.0505 174.85C70.2094 175.145 70.3084 175.469 70.3416 175.802Z" fill="#FAB38E"/>
<path d="M67.5441 195.54C67.5441 196.341 64.8796 196.741 64.3467 195.54C62.8563 188.66 63.3177 181.5 65.679 174.869C67.0112 173.668 70.0753 174.869 70.3418 177.136C68.9244 183.187 67.9889 189.341 67.5441 195.54Z" fill="#FAB38E"/>
<path d="M73.9396 207.543L72.6074 208.61C69.1303 204.631 66.2981 200.131 64.2144 195.274C64.2144 193.14 65.9462 192.74 67.2785 193.94C68.6107 197.407 73.9396 207.543 73.9396 207.543Z" fill="#FAB38E"/>
<path d="M75.5373 209.944L73.8054 211.411L72.4731 208.477C72.4731 208.477 72.4732 206.61 73.9386 207.543C74.7114 208.154 75.271 208.995 75.5373 209.944Z" fill="#FAB38E"/>
<path d="M74.8717 213.145L74.2056 211.278C74.2056 211.278 74.8717 212.878 74.8717 213.145Z" fill="#FAB38E"/>
<path d="M75.537 213.145L74.6045 210.744C74.9538 211.529 75.265 212.33 75.537 213.145Z" fill="#FAB38E"/>
<path d="M75.9374 212.745L75.0049 210.344C75.0049 210.344 75.9374 212.478 75.9374 212.745Z" fill="#FAB38E"/>
<path d="M76.2028 209.677H74.7373V207.943C75.4222 208.57 76.1831 209.107 77.0021 209.544C77.0021 209.544 76.7357 209.677 76.2028 209.677Z" fill="#FAB38E"/>
<path d="M71.8067 182.07L69.5419 187.272L66.0781 174.602C66.5614 173.92 67.2919 173.455 68.1135 173.305C68.935 173.156 69.7824 173.334 70.4745 173.802C72.6061 175.402 71.8067 182.07 71.8067 182.07Z" fill="#7FB9E5"/>
<path d="M63.4144 188.872L67.8108 190.606C68.6981 187.528 69.1466 184.34 69.143 181.137C68.6641 178.495 67.8118 175.936 66.6118 173.535C66.2938 173.699 66.012 173.925 65.7832 174.2C65.5543 174.474 65.383 174.793 65.2795 175.135C63.9841 179.597 63.3556 184.226 63.4144 188.872Z" fill="#62B3E3"/>
<path d="M166.795 267.025L170.392 266.758V256.222L165.462 256.089L166.795 267.025Z" fill="#FAB38E"/>
<path d="M166.795 266.891C164.922 268.49 162.677 269.591 160.267 270.092C158.135 270.092 158.535 271.959 158.535 272.493C158.535 273.026 159.468 273.293 160.4 273.293C164.264 273.293 170.658 272.359 171.058 271.292C171.458 270.225 170.392 266.758 170.392 266.758L166.795 266.891Z" fill="#001932"/>
<path d="M173.456 207.41C173.069 217.273 171.866 227.087 169.859 236.75C169.859 239.951 163.731 239.151 163.198 235.017C162.111 227.198 161.754 219.296 162.133 211.411C162.665 203.942 173.19 201.142 173.456 207.41Z" fill="#00233D"/>
<path d="M169.993 235.817C171.072 245.514 171.561 255.268 171.458 265.024H166.662C166.662 265.024 163.065 240.351 162.932 232.083C162.799 223.814 169.06 229.682 169.993 235.817Z" fill="#00233D"/>
<path d="M175.987 267.291L179.451 267.025L179.185 256.355L174.255 256.489L175.987 267.291Z" fill="#FAB38E"/>
<path d="M152.807 185.938C152.807 185.938 152.807 188.472 155.205 188.205C161.066 187.272 169.859 174.869 169.859 173.668C169.859 172.468 166.529 170.601 165.196 171.668C163.864 172.735 158.136 183.537 152.807 185.938Z" fill="#FAB38E"/>
<path d="M143.481 177.136C143.481 177.136 142.149 177.136 142.416 178.47C145.464 182.527 149.378 185.853 153.873 188.205C156.004 188.205 156.937 186.472 155.605 185.005C154.272 183.538 146.412 180.07 143.481 177.136Z" fill="#FAB38E"/>
<path d="M155.071 184.471L156.003 185.405L155.737 183.938L155.071 184.471Z" fill="#D99577"/>
<path d="M161.866 185.138L158.669 180.337L161.733 175.802C162.858 173.882 164.248 172.131 165.863 170.601C169.06 168.734 170.925 171.801 169.726 174.202C167.901 178.358 165.223 182.084 161.866 185.138Z" fill="#62B3E3"/>
<path d="M175.854 267.158C174.075 268.801 171.927 269.99 169.592 270.626C167.327 271.292 167.727 272.493 167.86 273.026C167.994 273.56 168.793 273.693 169.725 273.693C173.413 273.856 177.081 273.076 180.383 271.426C180.623 269.851 180.293 268.243 179.451 266.891L175.854 267.158Z" fill="#00233D"/>
<path d="M180.25 206.743C180.252 216.464 179.629 226.176 178.385 235.817C178.385 239.151 171.325 239.951 170.525 235.817C169.166 228.024 168.542 220.121 168.66 212.211C169.06 204.743 179.851 200.742 180.25 206.743Z" fill="#003553"/>
<path d="M178.386 235.55C178.386 246.086 181.05 265.158 181.05 265.158L176.254 266.224C176.254 266.224 171.991 247.553 170.525 235.017C169.06 227.548 178.386 229.282 178.386 235.55Z" fill="#003553"/>
<path d="M179.052 200.475C180.038 203.848 180.399 207.374 180.117 210.877C180.117 213.411 172.524 216.079 169.46 216.079C167.958 215.933 166.511 215.434 165.238 214.623C163.965 213.811 162.901 212.711 162.132 211.411C161.902 207.769 161.902 204.117 162.132 200.475H179.052Z" fill="#003553"/>
<path d="M163.064 187.805C163.089 182.102 163.759 176.42 165.063 170.868C165.862 170.23 166.84 169.857 167.86 169.801H172.523C174.277 169.949 175.926 170.704 177.186 171.935C177.975 178.531 178.419 185.164 178.518 191.806C178.518 198.875 179.451 203.676 179.451 203.676C176.91 204.469 174.246 204.786 171.59 204.609C168.315 204.709 165.042 204.35 161.865 203.542C161.865 203.542 162.798 194.74 163.064 187.805Z" fill="#7FB9E5"/>
<path d="M163.598 154.864C163.598 161.532 164.93 165 169.726 166.2C174.522 167.4 177.053 164.599 177.053 159.265C177.053 156.464 177.053 153.53 175.588 151.796C173.56 150.752 171.221 150.487 169.011 151.052C166.802 151.617 164.876 152.973 163.598 154.864Z" fill="#013B5A"/>
<path d="M164.131 158.598C164.131 165.266 165.463 168.2 168.66 168.2C171.858 168.2 175.188 164.733 175.188 158.865C175.188 152.997 173.19 151.396 169.593 151.396C165.996 151.396 164.131 151.93 164.131 158.598Z" fill="#FAB38E"/>
<path d="M170.125 150.463C171.117 150.02 172.232 149.938 173.278 150.23C174.323 150.522 175.235 151.17 175.854 152.063C175.854 152.063 175.854 155.13 174.122 155.797C170.918 157.095 167.335 157.095 164.13 155.797C162.798 154.33 162.132 152.196 164.13 150.863C166.129 149.529 167.727 150.863 167.727 150.863C168.545 150.888 169.36 150.752 170.125 150.463Z" fill="#013B5A"/>
<path d="M175.721 159.265C176.52 159.265 176.52 162.466 174.522 162.466C172.524 162.466 173.59 162.466 173.59 161.265C173.59 160.065 174.789 160.198 174.789 160.198C174.789 160.198 174.789 158.998 175.721 159.265Z" fill="#FAB38E"/>
<path d="M174.522 158.998C175.587 154.864 172.257 155.397 172.257 155.397C172.257 155.397 174.255 151.796 175.055 153.397C175.055 153.397 176.254 158.331 175.055 159.665C173.855 160.999 175.055 160.999 174.255 160.999C173.456 160.999 174.255 160.198 174.522 158.998Z" fill="#013B5A"/>
<path d="M168.66 166.733C168.66 165 173.322 163.799 172.923 165.266C172.496 166.52 172.496 167.88 172.923 169.134H169.059C168.836 168.351 168.702 167.546 168.66 166.733Z" fill="#FAB38E"/>
<path d="M178.386 191.273C178.386 192.206 181.583 194.874 181.983 193.273C183.059 186.045 181.798 178.662 178.386 172.201C177.32 170.601 174.656 172.201 174.656 175.002C174.656 177.803 177.587 187.538 178.386 191.273Z" fill="#FAB38E"/>
<path d="M169.726 203.009L170.792 204.209C174.916 201.212 178.478 197.51 181.316 193.273C181.983 191.406 179.185 190.206 177.719 191.273C174.744 194.963 172.071 198.888 169.726 203.009Z" fill="#FAB38E"/>
<path d="M167.728 205.41L169.327 207.01L170.792 204.209C170.792 204.209 170.792 202.342 169.593 203.142C168.737 203.67 168.081 204.468 167.728 205.41Z" fill="#FAB38E"/>
<path d="M167.994 208.61C168.224 207.992 168.538 207.409 168.927 206.876L167.994 208.61Z" fill="#FAB38E"/>
<path d="M167.328 208.61C167.328 208.61 168.393 206.61 168.527 206.343L167.328 208.61Z" fill="#FAB38E"/>
<path d="M166.928 208.077C166.928 208.077 167.994 206.21 168.127 205.81L166.928 208.077Z" fill="#FAB38E"/>
<path d="M167.062 205.009C167.545 205.106 168.043 205.106 168.527 205.009L169.326 203.409C169.326 203.409 167.328 204.743 166.928 204.609C166.529 204.476 166.529 204.876 167.062 205.009Z" fill="#FAB38E"/>
<path d="M178.385 172.735L174.388 182.737C173.524 179.988 172.856 177.18 172.39 174.335C172.423 173.426 172.799 172.563 173.441 171.92C174.084 171.277 174.946 170.901 175.854 170.868C176.386 170.976 176.888 171.199 177.326 171.521C177.763 171.844 178.124 172.258 178.385 172.735Z" fill="#7FB9E5"/>
<path d="M181.849 183.938L176.92 187.138C175.787 184.33 174.896 181.43 174.255 178.47C174.255 175.269 177.453 171.401 177.453 171.401C177.963 171.842 178.372 172.388 178.652 173.002C180.308 176.447 181.388 180.142 181.849 183.938Z" fill="#62B3E3"/>
<path d="M142.282 175.402L140.284 176.602L142.682 178.736C142.682 178.736 144.547 178.736 144.014 177.803C143.641 176.873 143.047 176.049 142.282 175.402Z" fill="#FAB38E"/>
<path d="M139.085 174.869L140.417 176.336H141.083L139.085 174.869Z" fill="#FAB38E"/>
<path d="M140.684 173.802L142.415 175.669C141.871 175.017 141.293 174.394 140.684 173.802Z" fill="#FAB38E"/>
<path d="M142.815 174.869C142.728 175.354 142.728 175.851 142.815 176.336L144.147 177.536C144.046 176.65 144.046 175.755 144.147 174.869C144.147 174.869 143.081 174.335 142.815 174.869Z" fill="#FAB38E"/>
<path d="M173.323 169.801L169.459 171.668L168.26 169.934L168.926 168.467L169.726 169.801L172.657 168.067L173.323 169.801Z" fill="#62B3E3"/>
<path d="M301.217 103.784H279.901V113.387H301.217V103.784Z" fill="#A5DFF9"/>
<path d="M324.131 103.784H302.815V113.387H324.131V103.784Z" fill="#A5DFF9"/>
<path d="M312.674 92.315H291.358V101.917H312.674V92.315Z" fill="#A5DFF9"/>
</svg>
