<svg width="623" height="669" viewBox="0 0 623 669" fill="none" xmlns="http://www.w3.org/2000/svg">
<path d="M608.175 349.862L603.988 348.657C603.634 344.794 602.128 341.127 599.665 338.131C597.202 335.136 593.897 332.95 590.177 331.858L587.934 331.212L584.116 330.104H584.083L539.56 317.177V61.3973C539.56 53.1512 539.74 24.0716 539.758 0.000977105H533.877V310.108C533.877 311.912 533.877 313.716 533.845 315.521L521.584 311.963V43.3966C521.584 30.0658 522.049 16.6411 521.584 3.31384V2.74726C521.584 0.917609 520.163 0.000977105 518.743 0.000977105C518.565 0.000874341 518.388 0.0153581 518.213 0.0442826C517.559 0.122609 516.958 0.443969 516.53 0.944635C516.102 1.4453 515.877 2.08871 515.901 2.74726V292.103C515.901 298.145 515.807 304.207 515.746 310.27L457.47 293.367L382.97 164.233C366.079 134.959 335.829 117.478 302.051 117.478C268.274 117.478 238.016 134.97 221.126 164.233L191.196 216.138L182.902 213.739V48.7557C182.902 43.4977 183.028 20.4375 183.064 0.000977105H177.215V212.089L164.912 208.52V30.7623C164.912 21.5851 165.316 12.3069 164.912 3.14062V2.74726C164.926 2.35995 164.854 1.97432 164.7 1.61847C164.547 1.26262 164.316 0.945512 164.025 0.690256C163.487 0.246102 162.811 0.00361903 162.113 0.00458589H162.07C160.649 0.00458589 159.229 0.917609 159.229 2.75087V201.693C159.229 203.41 159.229 205.135 159.196 206.864L104.746 191.068C100.487 189.833 95.9332 190.106 91.8523 191.841C87.7715 193.576 84.4136 196.667 82.3453 200.592C81.7455 201.744 81.2623 202.953 80.9029 204.201L74.9566 224.745L74.5059 226.294L74.2174 227.29L70.6691 239.56L1.01573 480.006C0.0775975 483.239 -0.214701 486.625 0.15554 489.971C0.525781 493.317 1.5513 496.558 3.1735 499.507C4.79569 502.456 6.98274 505.057 9.60966 507.16C12.2366 509.263 15.2519 510.827 18.4832 511.763L18.9231 511.893C19.125 512.615 19.3702 513.337 19.6443 514.058C6.14706 541.969 7.22886 574.098 22.9294 601.322C39.8234 630.597 70.0741 648.074 103.851 648.074H444.419L509.738 667.02C512.969 667.959 516.353 668.252 519.697 667.881C523.041 667.51 526.279 666.483 529.226 664.86C532.173 663.236 534.771 661.047 536.872 658.417C538.973 655.788 540.536 652.77 541.471 649.536L545.185 636.717C560.212 628.459 572.67 616.212 581.188 601.322C597.775 572.575 598.028 538.364 582.053 509.425L615.142 395.17L621.33 373.745C622.035 371.312 622.254 368.765 621.975 366.247C621.695 363.73 620.922 361.292 619.701 359.074C618.479 356.856 616.832 354.9 614.854 353.32C612.876 351.739 610.607 350.564 608.175 349.862Z" fill="#DD6B85"/>
<path d="M608.175 349.862L603.988 348.657C603.634 344.794 602.128 341.127 599.665 338.131C597.202 335.136 593.897 332.95 590.177 331.858L587.934 331.212L584.116 330.104H584.083L539.56 317.177V61.3973C539.56 53.1512 539.74 24.0716 539.758 0.000977105H533.877V310.108C533.877 311.912 533.877 313.716 533.845 315.521L521.584 311.963V43.3966C521.584 30.0658 522.049 16.6411 521.584 3.31384V2.74726C521.584 0.917609 520.163 0.000977105 518.743 0.000977105C518.565 0.000874341 518.388 0.0153581 518.213 0.0442826C517.559 0.122609 516.958 0.443969 516.53 0.944635C516.102 1.4453 515.877 2.08871 515.901 2.74726V292.103C515.901 298.145 515.807 304.207 515.746 310.27L347.458 261.461L266.186 237.892L227.191 226.582L225.813 238.978L211.332 234.778L212.017 222.187L182.888 213.739V48.7557C182.888 43.4977 183.014 20.4375 183.05 0.000977105H177.215V212.089L164.912 208.52V30.7623C164.912 21.5851 165.316 12.3069 164.912 3.14062V2.74726C164.926 2.35995 164.854 1.97432 164.7 1.61847C164.547 1.26262 164.316 0.945512 164.025 0.690256C163.487 0.246102 162.811 0.00361903 162.113 0.00458589H162.07C160.649 0.00458589 159.229 0.917609 159.229 2.75087V201.693C159.229 203.41 159.229 205.135 159.196 206.864L104.746 191.068C100.487 189.833 95.9332 190.106 91.8523 191.841C87.7715 193.576 84.4136 196.667 82.3453 200.592C81.7455 201.744 81.2623 202.953 80.9029 204.201L74.9566 224.745L74.5059 226.294L74.2174 227.29L70.6691 239.559L1.01573 480.006C0.0775975 483.239 -0.214701 486.625 0.15554 489.971C0.525781 493.317 1.5513 496.558 3.1735 499.507C4.79569 502.456 6.98274 505.057 9.60966 507.16C12.2366 509.263 15.2519 510.827 18.4832 511.763L18.9231 511.893C20.0741 516.128 22.2928 519.996 25.3666 523.127C28.4403 526.257 32.2661 528.545 36.4771 529.771L399.507 635.061L415.193 639.005L417.818 577.234L424.77 629.583L440.997 634.274L442.761 647.565L509.738 666.995C512.969 667.934 516.353 668.226 519.697 667.855C523.041 667.485 526.279 666.458 529.226 664.834C532.173 663.211 534.771 661.021 536.872 658.392C538.973 655.763 540.536 652.745 541.471 649.511L615.12 395.163L621.308 373.738C622.013 371.307 622.232 368.761 621.953 366.246C621.675 363.73 620.904 361.294 619.684 359.077C618.464 356.86 616.82 354.905 614.845 353.324C612.871 351.743 610.604 350.566 608.175 349.862ZM230.216 298.617L226.441 304.222L226.801 297.668L227.595 283.515L229.686 246.348L240.591 237.405L237.046 273.45L235.676 287.419L235.315 291.071L230.216 298.617ZM406.236 489.919L407.285 497.826L409.809 516.83L410.419 521.424L404.166 524.914L406.236 489.919Z" fill="#136F76"/>
<path d="M590.188 331.861L584.123 330.104H584.09L521.577 311.973V43.3966C521.577 30.0657 522.042 16.641 521.577 3.31377V2.74719C521.577 -0.91212 515.894 -0.919338 515.894 2.74719V292.103C515.894 298.144 515.8 304.207 515.739 310.27L347.462 261.465L227.191 226.582L224.522 250.57L240.58 237.401L237.042 273.457L235.672 287.426L220.224 444.809L218.922 458.061L214.811 499.97L216.755 459.19L217.527 442.998L221.187 366.26L222.835 332.027L225.096 284.373L225.77 270.205L226.264 259.881L220.347 268.614L212.23 280.624L208.461 286.196L208.822 279.639L209.608 265.503L212.024 222.198L164.912 208.52V30.7622C164.912 21.5851 165.316 12.3069 164.912 3.14055V2.74719C164.912 -0.91212 159.229 -0.919338 159.229 2.74719V201.692C159.229 203.41 159.229 205.135 159.196 206.864L104.746 191.068C99.8405 189.646 94.5717 190.232 90.0983 192.698C85.6249 195.163 82.3133 199.306 80.8921 204.215L74.9422 224.76L74.4915 226.308L74.203 227.304L70.6547 239.574L1.01573 480.006C0.0775975 483.239 -0.214701 486.625 0.15554 489.971C0.525781 493.317 1.5513 496.558 3.1735 499.507C4.79569 502.456 6.98274 505.057 9.60966 507.16C12.2366 509.263 15.2519 510.827 18.4832 511.763L381.52 617.057L397.206 621.005L402.431 497.855L386.186 506.92L391.7 413.608L379.97 419.999L397.004 363.07L382.973 413.593L397.004 402.496L394.083 451.756L392.796 473.43L391.866 489.15L391.682 492.254L405.612 485.285L407.274 497.815L409.798 516.819L412.726 538.908L414.609 553.094L424.77 629.583L491.748 649.009C494.979 649.948 498.362 650.24 501.706 649.87C505.049 649.499 508.287 648.473 511.234 646.849C514.181 645.226 516.78 643.037 518.881 640.408C520.982 637.779 522.546 634.762 523.481 631.528L597.137 377.152L603.336 355.737C604.04 353.305 604.258 350.759 603.978 348.243C603.698 345.727 602.926 343.29 601.705 341.073C600.484 338.856 598.839 336.901 596.862 335.32C594.886 333.74 592.618 332.564 590.188 331.861Z" fill="#FBDACF"/>
<path d="M164.911 208.52V229.704C164.911 233.37 159.228 233.363 159.228 229.704V229.31C159.099 226.351 159.052 223.378 159.052 220.4C159.052 215.889 159.142 211.378 159.196 206.864L104.746 191.068C99.8398 189.646 94.5705 190.232 90.0965 192.697C85.6225 195.163 82.3103 199.306 80.8882 204.215L74.942 224.76L74.4912 226.308L209.615 265.503L212.031 222.198L164.911 208.52Z" fill="#ED6935"/>
<path d="M550.407 343.698C550.148 344.578 549.634 345.362 548.931 345.95C548.227 346.539 547.366 346.906 546.454 347.004C545.543 347.103 544.622 346.929 543.809 346.505C542.996 346.081 542.327 345.425 541.886 344.621C541.445 343.817 541.252 342.9 541.331 341.986C541.41 341.072 541.758 340.201 542.331 339.485C542.904 338.769 543.676 338.238 544.55 337.96C545.423 337.682 546.36 337.67 547.241 337.924C547.828 338.094 548.376 338.379 548.853 338.761C549.331 339.144 549.728 339.617 550.022 340.153C550.316 340.69 550.502 341.279 550.568 341.887C550.634 342.496 550.579 343.111 550.407 343.698ZM566.879 348.473C566.62 349.353 566.107 350.137 565.403 350.725C564.7 351.313 563.838 351.68 562.926 351.779C562.015 351.877 561.095 351.704 560.282 351.28C559.469 350.856 558.799 350.2 558.358 349.396C557.917 348.591 557.724 347.674 557.803 346.76C557.883 345.846 558.23 344.976 558.803 344.259C559.376 343.543 560.148 343.012 561.022 342.735C561.896 342.457 562.832 342.444 563.713 342.699C564.301 342.868 564.849 343.152 565.326 343.535C565.804 343.917 566.201 344.39 566.496 344.927C566.79 345.463 566.975 346.053 567.041 346.661C567.107 347.27 567.052 347.885 566.879 348.473ZM583.351 353.251C583.092 354.131 582.579 354.915 581.875 355.503C581.172 356.091 580.31 356.458 579.398 356.557C578.487 356.655 577.567 356.482 576.754 356.058C575.941 355.634 575.272 354.978 574.831 354.174C574.389 353.369 574.196 352.452 574.276 351.538C574.355 350.624 574.703 349.754 575.275 349.037C575.848 348.321 576.62 347.79 577.494 347.513C578.368 347.235 579.304 347.222 580.185 347.477C580.773 347.646 581.321 347.93 581.799 348.313C582.276 348.695 582.673 349.168 582.968 349.705C583.262 350.241 583.447 350.831 583.513 351.439C583.579 352.048 583.524 352.663 583.351 353.251ZM515.746 310.27L347.461 261.461L227.198 226.586L224.533 250.566L240.583 237.405L237.039 273.45L596.935 377.841L597.133 377.155L603.321 355.73C604.026 353.299 604.245 350.754 603.966 348.239C603.688 345.723 602.917 343.288 601.697 341.071C600.477 338.854 598.833 336.899 596.858 335.318C594.884 333.737 592.617 332.562 590.188 331.858L584.126 330.111L521.573 311.963V332.756C521.573 336.412 515.89 336.412 515.89 332.756V332.183C515.8 329.296 515.746 326.365 515.71 323.449C515.667 319.051 515.679 314.658 515.746 310.27Z" fill="#ED6935"/>
<path d="M596.934 377.841L593.083 391.092L235.668 287.423L237.035 273.45L596.934 377.841Z" fill="#F7B7A6"/>
<path d="M209.616 265.492L208.826 279.646L70.6406 239.567L74.1853 227.307L74.4882 226.315L209.616 265.492Z" fill="#F7B7A6"/>
<path d="M213.622 331.807C212.323 329.724 210.279 328.214 207.907 327.585C205.769 326.925 203.485 326.907 201.336 327.531C198.998 328.277 196.818 329.448 194.903 330.984L104.818 405.015C101.782 407.527 99.5693 409.584 98.1798 411.186C96.8879 412.615 95.9231 414.308 95.3527 416.148C94.4896 419.136 94.8106 421.62 96.3155 423.6C97.8204 425.58 100.138 427.024 103.268 427.931L116.668 431.814L162.543 445.123L155.933 467.952C154.986 471.229 155.118 473.967 156.33 476.166C157.542 478.365 159.705 479.919 162.821 480.829C165.633 481.642 168.07 481.601 170.13 480.706C170.365 480.605 170.592 480.493 170.815 480.37C173.015 479.167 174.588 476.925 175.536 473.643L182.149 450.811L195.581 454.708L196.663 455.022H196.717C199.818 455.912 202.352 455.877 204.319 454.917C206.285 453.957 207.685 452.05 208.52 449.194C209.303 446.495 209.118 444.209 207.964 442.337C206.81 440.465 204.676 439.072 201.56 438.158L187.064 433.954L214.181 340.273C215.174 336.86 215.016 334.077 213.709 331.926L213.622 331.807ZM182.34 376.758L167.426 428.263L132.246 418.061L118.831 414.171L188.03 357.112L182.34 376.758Z" fill="#0B465E"/>
<path d="M317.035 359.151C314.859 358.264 312.638 357.493 310.381 356.841C298.864 353.504 288.318 353.608 278.743 357.152C269.167 360.696 260.704 367.57 253.353 377.776C246.008 387.982 239.878 401.548 234.962 418.476C227.75 443.374 226.732 463.782 231.908 479.699C237.084 495.616 248.343 506.091 265.685 511.124C267.928 511.779 270.204 512.31 272.504 512.716C281.509 514.296 289.838 513.602 297.49 510.633C307.041 506.924 315.51 499.896 322.898 489.551C330.285 479.206 336.389 465.709 341.209 449.06C348.5 423.883 349.553 403.486 344.368 387.87C339.882 374.337 330.771 364.764 317.035 359.151ZM321.823 443.434C315.813 464.204 308.613 478.692 300.223 486.898C293.579 493.394 285.998 496.281 277.48 495.56C275.145 495.352 272.835 494.915 270.586 494.253C259.212 490.952 252.176 483.59 249.476 472.167C246.777 460.744 248.433 444.648 254.445 423.878C260.455 403.108 267.624 388.726 275.951 380.732C284.279 372.737 294.128 370.389 305.499 373.687C307.764 374.332 309.961 375.192 312.062 376.257C319.755 380.193 324.67 386.599 326.807 395.477C329.497 406.679 327.836 422.664 321.823 443.434Z" fill="#0B465E"/>
<path d="M469.488 406.015C468.188 403.93 466.143 402.42 463.769 401.792C461.63 401.137 459.348 401.119 457.199 401.738C454.862 402.484 452.682 403.655 450.769 405.192L394.094 451.77L392.807 473.445L443.886 431.323L438.199 450.966L423.281 502.47L407.274 497.829L409.798 516.833L418.398 519.331L412.726 538.923L414.609 553.109C415.845 553.987 417.227 554.639 418.69 555.036C421.498 555.849 423.935 555.808 426 554.913C426.233 554.813 426.46 554.701 426.681 554.578C428.881 553.375 430.454 551.132 431.402 547.851L438.015 525.018L452.515 529.222C455.64 530.132 458.192 530.102 460.17 529.132C462.149 528.162 463.548 526.255 464.368 523.408C465.154 520.709 464.97 518.424 463.816 516.552C462.662 514.68 460.522 513.288 457.397 512.376L442.898 508.172L470.025 414.495C471.013 411.081 470.856 408.298 469.553 406.145L469.488 406.015Z" fill="#0B465E"/>
<path d="M354.047 485.383C352.756 486.813 351.792 488.507 351.224 490.349C350.358 493.332 350.679 495.815 352.186 497.797C353.694 499.779 356.01 501.223 359.135 502.128L375.618 506.909L375.723 506.938L377.453 489.165L374.702 488.367L377.778 485.841L379.967 463.384L360.689 479.223C357.653 481.738 355.432 483.795 354.047 485.383Z" fill="#0B465E"/>
<path d="M159.231 229.704C159.231 233.363 164.915 233.37 164.915 229.704V30.7622C164.915 21.5851 165.318 12.3069 164.915 3.14055V2.74719C164.915 -0.91212 159.231 -0.919338 159.231 2.74719V201.692C159.231 203.41 159.231 205.135 159.199 206.864C159.145 211.368 159.051 215.886 159.055 220.4C159.055 223.378 159.102 226.351 159.231 229.31V229.704Z" fill="#0B465E"/>
<path d="M521.58 2.74719C521.58 -0.91212 515.897 -0.919338 515.897 2.74719V292.103C515.897 298.144 515.803 304.207 515.742 310.27C515.698 314.665 515.67 319.061 515.713 323.449C515.739 326.363 515.801 329.274 515.897 332.183V332.749C515.897 336.408 521.58 336.416 521.58 332.749V43.3966C521.58 30.0657 522.045 16.641 521.58 3.31377V2.74719Z" fill="#0B465E"/>
</svg>
