<svg width="1409" height="1169" viewBox="0 0 1409 1169" fill="none" xmlns="http://www.w3.org/2000/svg">
<path d="M967.622 340.697C966.741 340.442 965.805 340.455 964.931 340.733C964.057 341.011 963.285 341.541 962.713 342.258C962.14 342.974 961.792 343.844 961.713 344.758C961.633 345.672 961.827 346.589 962.268 347.394C962.709 348.198 963.378 348.854 964.191 349.278C965.004 349.702 965.924 349.876 966.836 349.777C967.747 349.678 968.609 349.311 969.312 348.723C970.016 348.135 970.529 347.351 970.788 346.471C970.96 345.884 971.015 345.268 970.949 344.66C970.883 344.051 970.698 343.462 970.404 342.926C970.109 342.389 969.712 341.916 969.235 341.534C968.758 341.151 968.21 340.867 967.622 340.697Z" fill="#96D5F4"/>
<path d="M919.808 330.729V330.162C919.707 327.254 919.645 324.343 919.624 321.429C917.403 322.153 915.514 323.648 914.299 325.644C913.085 327.64 912.624 330.006 913.001 332.313C913.379 334.619 914.569 336.715 916.356 338.219C918.143 339.724 920.41 340.538 922.745 340.515C925.081 340.492 927.331 339.633 929.088 338.094C930.845 336.554 931.994 334.436 932.326 332.122C932.657 329.809 932.151 327.453 930.897 325.481C929.643 323.509 927.725 322.051 925.491 321.371V330.729C925.491 334.396 919.808 334.388 919.808 330.729Z" fill="#96D5F4"/>
<path d="M802.652 62.7875C800.679 61.0006 798.841 59.0707 797.153 57.0135C796.132 55.7612 793.547 55.1117 792.194 56.4866C791.069 57.627 789.941 58.7674 788.895 59.9546C788.772 60.0918 788.668 60.2361 788.534 60.3733C788.372 60.1567 788.21 59.9402 788.044 59.7273C787.088 58.4787 785.978 56.8763 784.376 56.1365C783.468 55.7143 782.09 55.5988 781.192 56.1365C779.898 56.9088 778.996 58.0889 778.012 59.121L776.652 60.5429C775.535 59.4025 774.456 58.2333 773.458 57.0135C772.459 55.7937 769.852 55.1117 768.499 56.4866C767.374 57.627 766.246 58.7674 765.2 59.9546C765.077 60.0918 764.973 60.2361 764.839 60.3733C764.677 60.1567 764.515 59.9402 764.349 59.7273C763.393 58.4787 762.283 56.8763 760.685 56.1365C759.773 55.7143 758.395 55.5988 757.497 56.1365C756.203 56.9088 755.301 58.0889 754.317 59.121L751.41 62.1668C750.361 63.2495 750.101 64.7543 751.41 65.8298C752.492 66.7247 754.815 66.934 755.871 65.8298L758.503 63.0726L759.026 62.5205C759.275 62.8525 759.531 63.1809 759.784 63.5129C760.793 64.8446 762.027 66.8546 763.995 67.3021C766.822 67.9409 768.276 65.4797 769.531 63.8918C769.891 63.4588 770.252 63.0438 770.612 62.6288C771.835 63.946 773.137 65.2271 774.471 66.4577C775.61 67.497 777.77 67.4104 778.931 66.4577C779.119 66.3043 779.283 66.1244 779.418 65.9236C779.458 65.8911 779.505 65.8658 779.541 65.8298L782.173 63.0726L782.696 62.5205C782.945 62.8525 783.201 63.1809 783.453 63.5129C784.463 64.8446 785.693 66.8546 787.665 67.3021C790.492 67.9409 791.945 65.4797 793.2 63.8918C793.561 63.4588 793.922 63.0438 794.282 62.6288C795.505 63.946 796.785 65.2271 798.141 66.4577C799.28 67.497 801.44 67.4104 802.601 66.4577C803.914 65.4147 803.802 63.8269 802.652 62.7875Z" fill="#B2DEE9"/>
<path d="M489.273 712.16C487.301 710.373 485.463 708.443 483.774 706.386C482.75 705.134 480.168 704.484 478.816 705.859C477.687 706.999 476.562 708.14 475.513 709.331C475.394 709.464 475.286 709.608 475.17 709.746C475.008 709.529 474.846 709.313 474.68 709.1C473.724 707.851 472.614 706.249 471.013 705.491C470.104 705.069 468.723 704.953 467.829 705.491C466.53 706.263 465.629 707.443 464.648 708.475L463.289 709.897C462.171 708.757 461.093 707.588 460.094 706.368C459.095 705.148 456.488 704.466 455.136 705.841C454.01 706.981 452.882 708.122 451.832 709.313C451.713 709.446 451.605 709.59 451.49 709.728C451.328 709.511 451.165 709.294 450.999 709.082C450.044 707.833 448.933 706.231 447.332 705.473C446.423 705.051 445.046 704.935 444.148 705.473C442.85 706.245 441.948 707.425 440.968 708.457L438.061 711.503C437.008 712.586 436.752 714.091 438.061 715.166C439.143 716.061 441.465 716.27 442.522 715.166L445.154 712.409C445.327 712.225 445.515 712.048 445.677 711.86L446.445 712.882C447.451 714.213 448.684 716.223 450.653 716.671C453.484 717.31 454.937 714.866 456.192 713.261C456.535 712.828 456.913 712.413 457.274 711.998C458.5 713.315 459.798 714.599 461.136 715.826C462.275 716.866 464.435 716.779 465.597 715.826C465.784 715.673 465.948 715.493 466.083 715.292C466.123 715.26 466.17 715.235 466.206 715.198L468.835 712.441C469.011 712.257 469.195 712.08 469.361 711.893L470.118 712.882C471.125 714.213 472.358 716.223 474.327 716.671C477.157 717.31 478.611 714.866 479.865 713.261C480.208 712.828 480.587 712.413 480.947 711.998C482.173 713.315 483.453 714.599 484.806 715.826C485.949 716.866 488.109 716.779 489.27 715.826C490.532 714.783 490.438 713.199 489.273 712.16Z" fill="#B2DEE9"/>
<path d="M457.667 138.875H437.791C437.039 138.874 436.3 138.676 435.649 138.299C434.998 137.922 434.457 137.381 434.081 136.729C433.705 136.077 433.507 135.338 433.507 134.585C433.507 133.832 433.704 133.093 434.08 132.441L444.008 115.227C444.384 114.575 444.926 114.034 445.578 113.657C446.23 113.281 446.969 113.083 447.722 113.083C448.474 113.083 449.214 113.281 449.865 113.657C450.517 114.034 451.059 114.575 451.436 115.227L461.363 132.441C461.739 133.093 461.937 133.832 461.937 134.585C461.936 135.338 461.738 136.077 461.362 136.729C460.987 137.381 460.446 137.922 459.795 138.299C459.143 138.676 458.405 138.874 457.653 138.875H457.667ZM447.736 113.855C447.119 113.851 446.511 114.012 445.976 114.321C445.441 114.63 444.998 115.076 444.693 115.613L434.762 132.827C434.454 133.36 434.292 133.966 434.292 134.582C434.291 135.198 434.452 135.803 434.759 136.337C435.066 136.871 435.507 137.316 436.039 137.625C436.571 137.935 437.175 138.1 437.791 138.103H457.653C458.269 138.102 458.875 137.94 459.409 137.631C459.943 137.322 460.387 136.878 460.695 136.343C461.003 135.809 461.166 135.202 461.166 134.585C461.166 133.968 461.004 133.361 460.696 132.827L450.772 115.627C450.469 115.089 450.028 114.64 449.494 114.329C448.961 114.018 448.354 113.854 447.736 113.855Z" fill="#B2DEE9"/>
<path d="M449.791 133.069C449.791 133.476 449.671 133.873 449.445 134.212C449.219 134.55 448.898 134.813 448.523 134.969C448.147 135.125 447.734 135.166 447.335 135.086C446.936 135.007 446.57 134.811 446.283 134.523C445.995 134.236 445.799 133.869 445.72 133.47C445.641 133.071 445.682 132.657 445.837 132.282C445.993 131.906 446.256 131.584 446.594 131.358C446.932 131.132 447.33 131.012 447.736 131.012C448.281 131.012 448.804 131.228 449.189 131.614C449.575 132 449.791 132.523 449.791 133.069Z" fill="#B2DEE9"/>
<path d="M448.187 118.911H447.286C447.086 118.911 446.889 118.952 446.706 119.031C446.523 119.11 446.358 119.225 446.221 119.37C446.084 119.515 445.978 119.686 445.909 119.874C445.841 120.061 445.811 120.26 445.821 120.459L446.272 128.76C446.293 129.135 446.456 129.487 446.728 129.746C447 130.004 447.361 130.149 447.736 130.149C448.112 130.149 448.472 130.004 448.745 129.746C449.017 129.487 449.18 129.135 449.2 128.76L449.651 120.459C449.662 120.26 449.632 120.061 449.563 119.874C449.495 119.686 449.388 119.515 449.252 119.37C449.115 119.225 448.949 119.11 448.766 119.031C448.583 118.952 448.386 118.911 448.187 118.911Z" fill="#B2DEE9"/>
<path d="M771.044 708.475H751.186C750.434 708.475 749.694 708.277 749.043 707.901C748.391 707.524 747.85 706.983 747.473 706.331C747.097 705.679 746.899 704.939 746.898 704.186C746.898 703.433 747.096 702.693 747.472 702.041L757.403 684.831C757.778 684.178 758.319 683.635 758.971 683.258C759.623 682.881 760.362 682.683 761.115 682.683C761.868 682.683 762.607 682.881 763.259 683.258C763.911 683.635 764.452 684.178 764.827 684.831L774.758 702.041C775.134 702.693 775.332 703.433 775.332 704.186C775.331 704.939 775.133 705.679 774.757 706.331C774.38 706.983 773.839 707.524 773.188 707.901C772.536 708.277 771.797 708.475 771.044 708.475ZM761.113 683.456C760.496 683.452 759.888 683.613 759.354 683.922C758.819 684.23 758.376 684.676 758.07 685.213L748.139 702.427C747.831 702.962 747.669 703.569 747.669 704.187C747.67 704.804 747.833 705.411 748.141 705.946C748.45 706.481 748.894 706.925 749.428 707.234C749.963 707.543 750.569 707.706 751.186 707.707H771.044C771.661 707.705 772.267 707.542 772.801 707.233C773.335 706.924 773.778 706.479 774.086 705.944C774.394 705.41 774.557 704.803 774.557 704.186C774.557 703.569 774.395 702.962 774.088 702.427L764.16 685.213C763.854 684.676 763.41 684.23 762.875 683.921C762.339 683.612 761.731 683.452 761.113 683.456Z" fill="#B2DEE9"/>
<path d="M763.169 702.669C763.169 703.076 763.049 703.473 762.823 703.811C762.597 704.15 762.276 704.413 761.901 704.569C761.525 704.725 761.112 704.766 760.713 704.686C760.314 704.607 759.948 704.411 759.661 704.123C759.373 703.836 759.177 703.469 759.098 703.07C759.019 702.671 759.059 702.257 759.215 701.882C759.371 701.506 759.634 701.184 759.972 700.958C760.31 700.732 760.707 700.612 761.114 700.612C761.659 700.612 762.182 700.828 762.567 701.214C762.953 701.6 763.169 702.123 763.169 702.669Z" fill="#B2DEE9"/>
<path d="M761.565 688.515H760.663C760.466 688.518 760.271 688.56 760.091 688.64C759.91 688.72 759.748 688.836 759.613 688.98C759.478 689.124 759.374 689.294 759.307 689.48C759.239 689.665 759.21 689.863 759.221 690.06L759.668 698.36C759.689 698.734 759.853 699.086 760.125 699.344C760.397 699.602 760.757 699.745 761.132 699.746C761.507 699.746 761.868 699.603 762.14 699.345C762.413 699.087 762.576 698.735 762.596 698.36L763.047 690.06C763.058 689.859 763.027 689.659 762.958 689.47C762.888 689.282 762.78 689.11 762.641 688.965C762.502 688.821 762.335 688.706 762.15 688.628C761.965 688.551 761.765 688.512 761.565 688.515Z" fill="#B2DEE9"/>
<path d="M1019.03 226.58H999.174C998.422 226.58 997.683 226.381 997.031 226.005C996.379 225.629 995.838 225.087 995.462 224.435C995.085 223.783 994.887 223.043 994.887 222.29C994.886 221.537 995.084 220.797 995.46 220.145L1005.39 202.931C1005.77 202.279 1006.31 201.738 1006.96 201.361C1007.61 200.985 1008.35 200.787 1009.1 200.787C1009.86 200.787 1010.59 200.985 1011.25 201.361C1011.9 201.738 1012.44 202.279 1012.82 202.931L1022.75 220.145C1023.12 220.797 1023.32 221.537 1023.32 222.29C1023.32 223.043 1023.12 223.783 1022.75 224.435C1022.37 225.087 1021.83 225.629 1021.18 226.005C1020.52 226.381 1019.78 226.58 1019.03 226.58ZM1009.11 201.56C1008.49 201.556 1007.88 201.717 1007.34 202.025C1006.81 202.334 1006.36 202.78 1006.06 203.317L996.131 220.531C995.823 221.066 995.661 221.672 995.661 222.29C995.661 222.907 995.823 223.513 996.132 224.048C996.44 224.582 996.884 225.026 997.418 225.335C997.952 225.644 998.558 225.807 999.174 225.807H1019.03C1019.65 225.807 1020.26 225.645 1020.79 225.337C1021.32 225.028 1021.77 224.584 1022.08 224.049C1022.39 223.515 1022.55 222.908 1022.55 222.291C1022.55 221.673 1022.39 221.066 1022.08 220.531L1012.15 203.321C1011.84 202.783 1011.4 202.337 1010.87 202.027C1010.33 201.718 1009.72 201.557 1009.11 201.56Z" fill="#B2DEE9"/>
<path d="M1011.15 220.773C1011.15 221.18 1011.03 221.577 1010.8 221.916C1010.57 222.254 1010.25 222.518 1009.88 222.673C1009.5 222.829 1009.09 222.87 1008.69 222.79C1008.29 222.711 1007.92 222.515 1007.64 222.227C1007.35 221.94 1007.15 221.573 1007.07 221.174C1007 220.775 1007.04 220.362 1007.19 219.986C1007.35 219.61 1007.61 219.289 1007.95 219.063C1008.29 218.837 1008.68 218.716 1009.09 218.716C1009.64 218.716 1010.16 218.933 1010.54 219.318C1010.93 219.704 1011.15 220.227 1011.15 220.773Z" fill="#B2DEE9"/>
<path d="M1009.55 206.616H1008.66C1008.46 206.616 1008.26 206.657 1008.08 206.736C1007.89 206.815 1007.73 206.93 1007.59 207.075C1007.45 207.22 1007.35 207.391 1007.28 207.578C1007.21 207.765 1007.18 207.965 1007.19 208.164L1007.64 216.464C1007.66 216.839 1007.82 217.193 1008.1 217.451C1008.37 217.71 1008.73 217.854 1009.11 217.853C1009.48 217.853 1009.84 217.709 1010.11 217.45C1010.39 217.192 1010.55 216.839 1010.57 216.464L1011.02 208.164C1011.03 207.965 1011 207.765 1010.93 207.578C1010.86 207.39 1010.76 207.219 1010.62 207.074C1010.48 206.929 1010.32 206.813 1010.13 206.735C1009.95 206.656 1009.75 206.615 1009.55 206.616Z" fill="#B2DEE9"/>
<path d="M410.66 355.399H398.392V343.125H397.437V355.399H385.169V356.355H397.437V368.632H398.392V356.355H410.66V355.399Z" fill="#B2DEE9"/>
<path d="M1052 487.271H1039.74V474.994H1038.78V487.271H1026.51V488.227H1038.78V500.505H1039.74V488.227H1052V487.271Z" fill="#B2DEE9"/>
<path d="M1020.83 671.442H1018.26C1017.08 671.474 1015.96 671.959 1015.12 672.796C1014.28 673.633 1013.8 674.758 1013.76 675.942L1013.93 677.14C1014.13 677.891 1014.53 678.576 1015.08 679.125L1015.99 679.847C1016.68 680.252 1017.47 680.464 1018.26 680.46H1020.83C1022.01 680.411 1023.14 679.945 1024.01 679.143C1024.44 678.749 1024.76 678.252 1024.94 677.699C1025.22 677.166 1025.35 676.566 1025.32 675.964C1025.27 675.567 1025.22 675.166 1025.17 674.769C1024.96 674.018 1024.56 673.333 1024.01 672.781L1023.1 672.059C1022.41 671.656 1021.62 671.444 1020.83 671.445V671.442Z" fill="#B2DEE9"/>
<path d="M624.54 704.83C630.31 704.83 630.339 695.808 624.54 695.808C618.742 695.808 618.742 704.83 624.54 704.83Z" fill="#B2DEE9"/>
<path d="M360.345 548.245C366.115 548.245 366.143 539.245 360.345 539.245C354.546 539.245 354.546 548.245 360.345 548.245Z" fill="#B2DEE9"/>
<path d="M520.659 151.65C526.447 151.65 526.458 142.65 520.659 142.65C514.861 142.65 514.861 151.65 520.659 151.65Z" fill="#B2DEE9"/>
<path d="M693.794 90.0444C699.564 90.0444 699.593 81.0225 693.794 81.0225C687.996 81.0225 687.996 90.0444 693.794 90.0444Z" fill="#B2DEE9"/>
<path d="M879.755 173.469C885.525 173.469 885.554 164.469 879.755 164.469C873.957 164.469 873.957 173.469 879.755 173.469Z" fill="#B2DEE9"/>
<path d="M1027.24 117.313C1030.12 117.313 1030.12 112.812 1027.24 112.812C1024.35 112.812 1024.35 117.313 1027.24 117.313Z" fill="#B2DEE9"/>
<path d="M1029.8 285.45H1031.08C1031.39 285.462 1031.68 285.395 1031.95 285.255C1032.22 285.153 1032.47 284.995 1032.68 284.789C1032.88 284.584 1033.04 284.336 1033.14 284.064C1033.28 283.797 1033.35 283.499 1033.34 283.198C1033.31 282.999 1033.28 282.801 1033.25 282.599C1033.15 282.223 1032.95 281.881 1032.68 281.606L1032.22 281.245C1031.88 281.042 1031.48 280.935 1031.08 280.935H1029.8C1029.36 280.928 1028.92 281.057 1028.56 281.305C1028.19 281.553 1027.91 281.907 1027.75 282.321C1027.61 282.586 1027.54 282.886 1027.55 283.187C1027.58 283.385 1027.61 283.587 1027.63 283.786C1027.74 284.161 1027.94 284.503 1028.21 284.778L1028.67 285.139C1029.01 285.339 1029.4 285.445 1029.8 285.446V285.45Z" fill="#B2DEE9"/>
<path d="M1049.04 578.083C1051.92 578.083 1051.92 573.582 1049.04 573.582C1046.15 573.582 1046.15 578.083 1049.04 578.083Z" fill="#B2DEE9"/>
<path d="M925.923 717.981C928.808 717.981 928.808 713.481 925.923 713.481C923.039 713.481 923.039 717.981 925.923 717.981Z" fill="#B2DEE9"/>
<path d="M564.263 716.696C567.148 716.696 567.148 712.196 564.263 712.196C561.378 712.196 561.378 716.696 564.263 716.696Z" fill="#B2DEE9"/>
<path d="M393.69 624.286C396.575 624.286 396.575 619.786 393.69 619.786C390.805 619.786 390.805 624.286 393.69 624.286Z" fill="#B2DEE9"/>
<path d="M410.364 241.812C413.249 241.812 413.249 237.308 410.364 237.308C407.479 237.308 407.479 241.812 410.364 241.812Z" fill="#B2DEE9"/>
<path d="M625.824 64.6891C628.709 64.6891 628.709 60.189 625.824 60.189C622.939 60.189 622.939 64.6891 625.824 64.6891Z" fill="#B2DEE9"/>
<path d="M884.886 230.26C887.771 230.26 887.771 225.757 884.886 225.757C882.001 225.757 882.001 230.26 884.886 230.26Z" fill="#B2DEE9"/>
<path d="M504.795 12.4785C508.791 9.3275 512.512 5.92072 515.928 2.28655C517.994 0.0761638 523.228 -1.07044 525.965 1.36289C528.243 3.36944 530.528 5.38873 532.652 7.48446C532.893 7.72651 533.105 7.97495 533.382 8.22338L534.375 7.07677C536.309 4.87275 538.558 2.05086 541.799 0.738647C543.639 -0.0066413 546.427 -0.204111 548.245 0.738647C550.873 2.10819 552.698 4.1848 554.684 6.00661C555.604 6.84745 556.523 7.68193 557.436 8.52277C559.699 6.50985 561.882 4.44597 563.904 2.28655C565.926 0.127124 571.204 -1.07044 573.941 1.36289C576.219 3.36944 578.504 5.38873 580.621 7.48446C580.869 7.72651 581.081 7.97495 581.351 8.22338L582.344 7.07677C584.278 4.87275 586.527 2.05086 589.768 0.738647C591.607 -0.0066413 594.396 -0.204111 596.214 0.738647C598.835 2.10819 600.66 4.1848 602.652 6.00661C604.645 7.82843 606.58 9.59292 608.536 11.3893C610.661 13.3003 611.186 15.9565 608.536 17.8484C606.346 19.4282 601.645 19.804 599.506 17.8484L594.177 12.9818L593.119 12.0135C592.615 12.5995 592.097 13.1792 591.586 13.7589C589.542 16.1094 587.052 19.6639 583.059 20.4474C577.336 21.5749 574.394 17.2624 571.853 14.4277C571.16 13.6633 570.393 12.9372 569.663 12.2046C567.189 14.5297 564.59 16.791 561.852 18.9632C559.546 20.7977 555.173 20.6448 552.822 18.9632C552.445 18.6909 552.113 18.3736 551.837 18.0204C551.756 17.9567 551.661 17.9185 551.588 17.8484L546.259 12.9818L545.201 12.0135C544.697 12.5995 544.179 13.1792 543.668 13.7589C541.631 16.1094 539.135 19.6639 535.142 20.4474C529.418 21.5749 526.476 17.2624 523.936 14.4277C523.206 13.6633 522.476 12.9372 521.746 12.2046C519.271 14.5297 516.68 16.791 513.942 18.9632C511.628 20.7977 507.255 20.6448 504.905 18.9632C502.24 17.1222 502.474 14.3194 504.795 12.4785Z" fill="#B2DEE9"/>
<path d="M1139.2 1158.7C1143.19 1155.55 1146.91 1152.14 1150.33 1148.51C1152.4 1146.3 1157.63 1145.15 1160.37 1147.58C1162.65 1149.59 1164.93 1151.61 1167.05 1153.71C1167.3 1153.95 1167.51 1154.2 1167.75 1154.44L1168.74 1153.3C1170.68 1151.09 1172.92 1148.27 1176.16 1146.93C1178 1146.18 1180.8 1145.99 1182.61 1146.93C1185.24 1148.3 1187.06 1150.37 1189.05 1152.2C1189.97 1153.04 1190.89 1153.87 1191.8 1154.74C1194.06 1152.73 1196.25 1150.67 1198.27 1148.51C1200.29 1146.35 1205.57 1145.15 1208.31 1147.58C1210.59 1149.59 1212.87 1151.61 1214.99 1153.71C1215.23 1153.95 1215.45 1154.2 1215.69 1154.44L1216.68 1153.3C1218.61 1151.09 1220.86 1148.27 1224.1 1146.93C1225.94 1146.18 1228.74 1145.99 1230.55 1146.93C1233.18 1148.3 1235 1150.37 1236.99 1152.2L1242.88 1157.58C1245 1159.49 1245.52 1162.15 1242.88 1164.04C1240.69 1165.62 1235.98 1165.99 1233.84 1164.04L1228.51 1159.17L1227.45 1158.2C1226.95 1158.79 1226.43 1159.37 1225.92 1159.95C1223.89 1162.3 1221.39 1165.85 1217.4 1166.64C1211.67 1167.76 1208.73 1163.45 1206.19 1160.62C1205.46 1159.85 1204.73 1159.13 1204 1158.39C1201.52 1160.72 1198.93 1162.98 1196.19 1165.15C1193.87 1166.99 1189.5 1166.83 1187.15 1165.15C1186.78 1164.88 1186.44 1164.56 1186.17 1164.21C1186.09 1164.15 1185.99 1164.11 1185.92 1164.04L1180.6 1159.17L1179.53 1158.2C1179.03 1158.79 1178.51 1159.37 1178 1159.95C1175.96 1162.3 1173.46 1165.85 1169.48 1166.64C1163.75 1167.76 1160.81 1163.45 1158.26 1160.62C1157.57 1159.85 1156.8 1159.13 1156.07 1158.39C1153.59 1160.72 1150.96 1162.98 1148.26 1165.15C1145.95 1166.99 1141.58 1166.83 1139.23 1165.15C1136.65 1163.34 1136.88 1160.54 1139.2 1158.7Z" fill="#B2DEE9"/>
<path d="M1203.15 146.79H1243.39C1244.91 146.787 1246.41 146.436 1247.73 145.77C1249.05 145.104 1250.14 144.148 1250.9 142.997C1251.66 141.846 1252.06 140.54 1252.06 139.212C1252.06 137.883 1251.66 136.577 1250.9 135.426L1230.81 105.047C1230.04 103.895 1228.95 102.938 1227.63 102.273C1226.31 101.607 1224.81 101.257 1223.29 101.257C1221.76 101.257 1220.26 101.607 1218.94 102.273C1217.63 102.938 1216.53 103.895 1215.77 105.047L1195.67 135.426C1194.91 136.575 1194.51 137.879 1194.51 139.205C1194.51 140.532 1194.91 141.836 1195.67 142.986C1196.42 144.136 1197.51 145.093 1198.83 145.761C1200.14 146.428 1201.63 146.783 1203.15 146.79ZM1223.29 102.652C1224.54 102.645 1225.77 102.93 1226.85 103.476C1227.94 104.022 1228.84 104.811 1229.46 105.761L1249.55 136.139C1250.18 137.084 1250.5 138.154 1250.5 139.244C1250.5 140.334 1250.17 141.404 1249.55 142.348C1248.93 143.292 1248.03 144.076 1246.95 144.622C1245.87 145.168 1244.64 145.456 1243.39 145.458H1203.15C1201.9 145.456 1200.68 145.168 1199.6 144.622C1198.52 144.076 1197.62 143.292 1196.99 142.348C1196.37 141.404 1196.04 140.334 1196.04 139.244C1196.04 138.154 1196.37 137.084 1196.99 136.139L1217.1 105.761C1217.72 104.808 1218.62 104.017 1219.71 103.47C1220.79 102.924 1222.03 102.641 1223.29 102.652Z" fill="#B2DEE9"/>
<path d="M1219.13 136.534C1219.13 137.252 1219.37 137.954 1219.83 138.551C1220.28 139.149 1220.93 139.614 1221.69 139.889C1222.45 140.164 1223.29 140.235 1224.1 140.095C1224.91 139.955 1225.65 139.609 1226.23 139.102C1226.81 138.594 1227.21 137.947 1227.37 137.243C1227.53 136.538 1227.45 135.808 1227.13 135.145C1226.82 134.481 1226.28 133.914 1225.6 133.515C1224.91 133.116 1224.11 132.903 1223.29 132.903C1222.18 132.903 1221.12 133.286 1220.34 133.967C1219.56 134.648 1219.13 135.571 1219.13 136.534Z" fill="#B2DEE9"/>
<path d="M1222.37 111.57H1224.2C1224.6 111.571 1225 111.643 1225.37 111.782C1225.74 111.921 1226.08 112.125 1226.35 112.381C1226.63 112.637 1226.85 112.939 1226.98 113.269C1227.12 113.6 1227.18 113.951 1227.16 114.303L1226.25 128.954C1226.21 129.615 1225.88 130.236 1225.33 130.691C1224.77 131.146 1224.04 131.4 1223.29 131.4C1222.53 131.4 1221.8 131.146 1221.25 130.691C1220.7 130.236 1220.37 129.615 1220.32 128.954L1219.41 114.303C1219.39 113.951 1219.45 113.6 1219.59 113.269C1219.73 112.939 1219.94 112.637 1220.22 112.381C1220.5 112.125 1220.83 111.921 1221.2 111.782C1221.57 111.643 1221.97 111.571 1222.37 111.57Z" fill="#B2DEE9"/>
<path d="M568.779 1152.21H608.988C610.51 1152.21 612.006 1151.86 613.324 1151.19C614.642 1150.53 615.737 1149.57 616.498 1148.42C617.259 1147.27 617.66 1145.96 617.66 1144.64C617.66 1143.31 617.26 1142 616.499 1140.85L596.395 1110.47C595.633 1109.32 594.537 1108.36 593.218 1107.7C591.899 1107.03 590.403 1106.68 588.88 1106.68C587.357 1106.68 585.86 1107.03 584.541 1107.7C583.222 1108.36 582.126 1109.32 581.364 1110.47L561.26 1140.85C560.499 1142 560.099 1143.31 560.099 1144.64C560.1 1145.97 560.501 1147.27 561.263 1148.42C562.025 1149.57 563.121 1150.53 564.44 1151.19C565.759 1151.86 567.256 1152.21 568.779 1152.21ZM588.883 1108.04C590.134 1108.03 591.364 1108.32 592.446 1108.87C593.529 1109.41 594.426 1110.2 595.044 1111.15L615.149 1141.53C615.773 1142.48 616.101 1143.55 616.1 1144.64C616.1 1145.73 615.771 1146.8 615.147 1147.74C614.523 1148.68 613.625 1149.47 612.544 1150.01C611.463 1150.56 610.236 1150.84 608.988 1150.85H568.779C567.53 1150.84 566.304 1150.56 565.223 1150.01C564.142 1149.47 563.244 1148.68 562.62 1147.74C561.995 1146.8 561.666 1145.73 561.666 1144.64C561.666 1143.55 561.994 1142.48 562.618 1141.53L582.715 1111.15C583.335 1110.2 584.233 1109.41 585.317 1108.86C586.401 1108.32 587.632 1108.03 588.883 1108.04Z" fill="#B2DEE9"/>
<path d="M584.723 1141.96C584.724 1142.68 584.969 1143.38 585.428 1143.97C585.886 1144.57 586.536 1145.04 587.297 1145.31C588.057 1145.58 588.893 1145.65 589.7 1145.51C590.507 1145.37 591.247 1145.03 591.829 1144.52C592.41 1144.01 592.806 1143.36 592.965 1142.66C593.125 1141.95 593.043 1141.23 592.727 1140.56C592.412 1139.9 591.879 1139.33 591.195 1138.93C590.511 1138.53 589.707 1138.32 588.884 1138.32C588.337 1138.32 587.795 1138.42 587.29 1138.6C586.785 1138.78 586.325 1139.05 585.939 1139.39C585.553 1139.73 585.246 1140.13 585.037 1140.57C584.829 1141.01 584.722 1141.48 584.723 1141.96Z" fill="#B2DEE9"/>
<path d="M587.972 1116.97H589.798C590.201 1116.97 590.6 1117.04 590.971 1117.18C591.341 1117.32 591.675 1117.52 591.952 1117.78C592.23 1118.04 592.445 1118.34 592.584 1118.67C592.723 1119 592.783 1119.35 592.761 1119.7L591.849 1134.35C591.808 1135.02 591.478 1135.64 590.926 1136.09C590.375 1136.55 589.645 1136.81 588.885 1136.81C588.125 1136.81 587.395 1136.55 586.844 1136.09C586.292 1135.64 585.962 1135.02 585.921 1134.35L585.009 1119.7C584.987 1119.35 585.047 1119 585.186 1118.67C585.325 1118.34 585.54 1118.04 585.817 1117.78C586.095 1117.52 586.429 1117.32 586.799 1117.18C587.17 1117.04 587.569 1116.97 587.972 1116.97Z" fill="#B2DEE9"/>
<path d="M66.7449 301.599H106.946C108.47 301.598 109.966 301.247 111.285 300.582C112.604 299.917 113.699 298.961 114.461 297.809C115.223 296.658 115.624 295.352 115.625 294.023C115.626 292.693 115.226 291.387 114.465 290.235L94.361 259.857C93.6005 258.704 92.5054 257.747 91.186 257.082C89.8666 256.416 88.3695 256.066 86.8455 256.066C85.3216 256.066 83.8245 256.416 82.5051 257.082C81.1858 257.747 80.0907 258.704 79.3302 259.857L59.2331 290.235C58.4726 291.387 58.0727 292.693 58.0735 294.023C58.0742 295.352 58.4755 296.658 59.2373 297.809C59.999 298.961 61.0944 299.917 62.4134 300.582C63.7324 301.247 65.2287 301.598 66.7522 301.599H66.7449ZM86.8419 257.443C88.094 257.435 89.3258 257.719 90.4102 258.266C91.4945 258.812 92.3922 259.601 93.0105 260.551L113.115 290.93C113.738 291.875 114.066 292.946 114.065 294.036C114.064 295.126 113.735 296.197 113.11 297.141C112.485 298.085 111.587 298.87 110.505 299.415C109.423 299.96 108.196 300.248 106.946 300.249H66.7449C65.4954 300.248 64.2682 299.96 63.1864 299.415C62.1045 298.87 61.206 298.085 60.5811 297.141C59.9562 296.197 59.6268 295.126 59.626 294.036C59.6251 292.946 59.9528 291.875 60.5763 290.93L80.6807 260.551C81.2983 259.602 82.1948 258.814 83.2777 258.267C84.3607 257.721 85.591 257.436 86.8419 257.443Z" fill="#B2DEE9"/>
<path d="M82.6808 291.344C82.6808 292.062 82.9248 292.764 83.3821 293.361C83.8393 293.958 84.4892 294.424 85.2495 294.698C86.0098 294.973 86.8465 295.045 87.6536 294.905C88.4608 294.765 89.2022 294.419 89.7841 293.911C90.3661 293.404 90.7624 292.757 90.923 292.052C91.0835 291.348 91.0011 290.618 90.6861 289.954C90.3712 289.291 89.8379 288.724 89.1536 288.325C88.4693 287.926 87.6648 287.713 86.8418 287.713C86.2954 287.713 85.7543 287.807 85.2495 287.989C84.7447 288.172 84.286 288.439 83.8996 288.776C83.5132 289.114 83.2067 289.514 82.9975 289.954C82.7884 290.395 82.6808 290.867 82.6808 291.344Z" fill="#B2DEE9"/>
<path d="M85.9367 266.361H87.7544C88.1575 266.36 88.5566 266.431 88.9271 266.57C89.2975 266.709 89.6317 266.912 89.9091 267.167C90.1865 267.422 90.4014 267.724 90.5405 268.054C90.6797 268.384 90.7401 268.736 90.7183 269.087L89.8058 283.738C89.7647 284.399 89.4344 285.022 88.8829 285.477C88.3315 285.932 87.6009 286.185 86.8419 286.184C86.0834 286.184 85.354 285.93 84.8029 285.475C84.2519 285.02 83.921 284.399 83.8781 283.738L82.9729 269.087C82.9511 268.736 83.0116 268.384 83.1507 268.054C83.2899 267.724 83.5047 267.422 83.7821 267.167C84.0595 266.912 84.3937 266.709 84.7642 266.57C85.1347 266.431 85.5336 266.36 85.9367 266.361Z" fill="#B2DEE9"/>
<path d="M1298.35 528.982H1323.18V507.312H1325.12V528.982H1349.95V530.67H1325.12V552.341H1323.18V530.67H1298.35V528.982Z" fill="#B2DEE9"/>
<path d="M-0.000209808 761.754H24.8273V740.084H26.7618V761.754H51.5967V763.442H26.7618V785.107H24.8273V763.442H-0.000209808V761.754Z" fill="#B2DEE9"/>
<path d="M63.109 1086.81H68.2993C69.5188 1086.77 70.7303 1087.01 71.8106 1087.5C72.9099 1087.86 73.9082 1088.42 74.7381 1089.15C75.568 1089.87 76.2102 1090.74 76.6213 1091.7C77.1895 1092.64 77.4616 1093.7 77.4098 1094.76L77.0812 1096.87C76.6641 1098.2 75.8563 1099.41 74.7379 1100.38L72.8983 1101.66C71.5032 1102.37 69.9155 1102.74 68.2993 1102.74H63.109C60.7145 1102.68 58.4352 1101.83 56.7415 1100.35C55.0477 1098.87 54.0685 1096.89 54.0057 1094.8L54.3343 1092.68C54.752 1091.36 55.557 1090.15 56.6703 1089.18L58.5172 1087.9C59.9092 1087.19 61.4945 1086.81 63.109 1086.81Z" fill="#B2DEE9"/>
<path d="M865.366 1145.77C853.686 1145.77 853.628 1129.88 865.366 1129.88C877.105 1129.88 877.105 1145.77 865.366 1145.77Z" fill="#B2DEE9"/>
<path d="M1400.2 869.381C1388.49 869.381 1388.46 853.456 1400.2 853.456C1411.94 853.456 1411.94 869.381 1400.2 869.381Z" fill="#B2DEE9"/>
<path d="M1075.66 169.34C1063.95 169.34 1063.93 153.415 1075.66 153.415C1087.4 153.415 1087.4 169.34 1075.66 169.34Z" fill="#B2DEE9"/>
<path d="M725.169 60.6104C713.489 60.6104 713.43 44.7236 725.169 44.7236C736.907 44.7236 736.907 60.6104 725.169 60.6104Z" fill="#B2DEE9"/>
<path d="M348.702 207.852C337.022 207.852 336.963 191.959 348.702 191.959C360.44 191.959 360.44 207.852 348.702 207.852Z" fill="#B2DEE9"/>
<path d="M50.1297 108.729C44.2897 108.729 44.2897 100.779 50.1297 100.779C55.9698 100.779 55.9698 108.729 50.1297 108.729Z" fill="#B2DEE9"/>
<path d="M44.9393 405.507H42.3404C41.7321 405.535 41.1265 405.418 40.5884 405.169C40.03 405.007 39.5277 404.724 39.1284 404.347C38.3195 403.576 37.8467 402.582 37.7925 401.538C37.8509 401.181 37.902 400.831 37.9604 400.481C38.1678 399.818 38.5705 399.214 39.1284 398.729L40.0482 398.092C40.7455 397.736 41.5396 397.549 42.3477 397.55H44.9466C46.1431 397.598 47.2825 398.01 48.1659 398.716C48.5973 399.065 48.9212 399.503 49.1076 399.99C49.3923 400.462 49.526 400.993 49.4945 401.525C49.4434 401.876 49.3849 402.226 49.3338 402.576C49.1238 403.24 48.7216 403.846 48.1659 404.334L47.2387 404.971C46.5449 405.33 45.7527 405.517 44.9466 405.513L44.9393 405.507Z" fill="#B2DEE9"/>
<path d="M5.99301 922.042C0.152956 922.042 0.152956 914.099 5.99301 914.099C11.8331 914.099 11.8331 922.042 5.99301 922.042Z" fill="#B2DEE9"/>
<path d="M255.239 1168.99C249.399 1168.99 249.399 1161.04 255.239 1161.04C261.079 1161.04 261.079 1168.99 255.239 1168.99Z" fill="#B2DEE9"/>
<path d="M987.395 1166.72C981.555 1166.72 981.555 1158.78 987.395 1158.78C993.235 1158.78 993.235 1166.72 987.395 1166.72Z" fill="#B2DEE9"/>
<path d="M1332.7 1003.6C1326.86 1003.6 1326.86 995.66 1332.7 995.66C1338.54 995.66 1338.54 1003.6 1332.7 1003.6Z" fill="#B2DEE9"/>
<path d="M1298.94 328.481C1293.1 328.481 1293.1 320.537 1298.94 320.537C1304.78 320.537 1304.78 328.481 1298.94 328.481Z" fill="#B2DEE9"/>
<path d="M862.774 15.842C856.934 15.842 856.934 7.89868 862.774 7.89868C868.614 7.89868 868.614 15.842 862.774 15.842Z" fill="#B2DEE9"/>
<path d="M338.314 308.09C332.474 308.09 332.474 300.147 338.314 300.147C344.154 300.147 344.154 308.09 338.314 308.09Z" fill="#B2DEE9"/>
</svg>
