<svg width="9" height="11" viewBox="0 0 9 11" fill="none" xmlns="http://www.w3.org/2000/svg">
    <path d="M0 9.74286V4.08571C0 3.88667 0.0399374 3.69809 0.119812 3.52C0.199687 3.3419 0.30975 3.19524 0.45 3.08L3.825 0.251429C4.02187 0.0838096 4.24687 0 4.5 0C4.75312 0 4.97812 0.0838096 5.175 0.251429L8.55 3.08C8.69062 3.19524 8.80087 3.3419 8.88075 3.52C8.96062 3.69809 9.00037 3.88667 9 4.08571V9.74286C9 10.0886 8.88975 10.3846 8.66925 10.631C8.44875 10.8774 8.184 11.0004 7.875 11H6.1875C6.02812 11 5.89462 10.9397 5.787 10.819C5.67937 10.6983 5.62537 10.5491 5.625 10.3714V7.22857C5.625 7.05047 5.571 6.90129 5.463 6.78103C5.355 6.66076 5.2215 6.60042 5.0625 6.6H3.9375C3.77812 6.6 3.64462 6.66034 3.537 6.78103C3.42937 6.90171 3.37537 7.05089 3.375 7.22857V10.3714C3.375 10.5495 3.321 10.6989 3.213 10.8196C3.105 10.9403 2.9715 11.0004 2.8125 11H1.125C0.815625 11 0.550875 10.877 0.33075 10.631C0.110625 10.385 0.000375 10.089 0 9.74286Z" fill="white"/>
</svg>
