<svg width="18" height="18" viewBox="0 0 18 18" fill="none" xmlns="http://www.w3.org/2000/svg">
    <path d="M9.46572 0C10.4313 0.00257494 10.9214 0.00772482 11.3445 0.0197412L11.511 0.0257494C11.7033 0.0326159 11.893 0.041199 12.1221 0.0514987C13.0353 0.0944144 13.6585 0.238611 14.2052 0.450615C14.7717 0.668626 15.2489 0.963886 15.7261 1.44025C16.1627 1.86918 16.5004 2.38823 16.7157 2.96118C16.9277 3.50793 17.0719 4.13106 17.1148 5.04517C17.1251 5.27348 17.1337 5.46316 17.1406 5.65628L17.1457 5.8228C17.1586 6.24509 17.1637 6.73518 17.1654 7.70079L17.1663 8.34109V9.46548C17.1684 10.0915 17.1618 10.7176 17.1466 11.3435L17.1414 11.51C17.1345 11.7031 17.126 11.8928 17.1157 12.1211C17.0728 13.0352 16.9268 13.6575 16.7157 14.2051C16.5004 14.778 16.1627 15.2971 15.7261 15.726C15.2972 16.1626 14.7781 16.5004 14.2052 16.7157C13.6585 16.9277 13.0353 17.0719 12.1221 17.1148L11.511 17.1405L11.3445 17.1457C10.9214 17.1577 10.4313 17.1637 9.46572 17.1654L8.82543 17.1663H7.70193C7.0756 17.1685 6.44928 17.1619 5.82313 17.1465L5.65662 17.1414C5.45288 17.1337 5.24917 17.1248 5.04552 17.1148C4.1323 17.0719 3.50918 16.9277 2.96159 16.7157C2.38897 16.5003 1.87023 16.1625 1.44156 15.726C1.00464 15.2972 0.666615 14.7781 0.451091 14.2051C0.239093 13.6583 0.0949001 13.0352 0.0519856 12.1211L0.0262369 11.51L0.0219455 11.3435C0.00612385 10.7176 -0.00102934 10.0915 0.000488193 9.46548V7.70079C-0.00188747 7.07473 0.00440734 6.44868 0.0193707 5.8228L0.0253787 5.65628C0.032245 5.46316 0.0408279 5.27348 0.0511274 5.04517C0.0940419 4.13106 0.238235 3.50878 0.450233 2.96118C0.666259 2.388 1.00488 1.86892 1.44242 1.44025C1.87084 1.00384 2.38927 0.666114 2.96159 0.450615C3.50918 0.238611 4.13144 0.0944144 5.04552 0.0514987C5.27383 0.041199 5.46437 0.0326159 5.65662 0.0257494L5.82313 0.0205995C6.44899 0.00534962 7.07503 -0.00123142 7.70107 0.000858251L9.46572 0ZM8.5834 4.29157C7.44523 4.29157 6.35368 4.74371 5.54888 5.54854C4.74408 6.35336 4.29194 7.44494 4.29194 8.58313C4.29194 9.72133 4.74408 10.8129 5.54888 11.6177C6.35368 12.4226 7.44523 12.8747 8.5834 12.8747C9.72156 12.8747 10.8131 12.4226 11.6179 11.6177C12.4227 10.8129 12.8749 9.72133 12.8749 8.58313C12.8749 7.44494 12.4227 6.35336 11.6179 5.54854C10.8131 4.74371 9.72156 4.29157 8.5834 4.29157ZM8.5834 6.00819C8.92153 6.00814 9.25637 6.07468 9.56879 6.20403C9.88121 6.33339 10.1651 6.52301 10.4042 6.76207C10.6434 7.00114 10.8331 7.28497 10.9625 7.59735C11.092 7.90973 11.1586 8.24456 11.1587 8.5827C11.1588 8.92085 11.0922 9.2557 10.9629 9.56812C10.8335 9.88055 10.6439 10.1644 10.4048 10.4036C10.1658 10.6427 9.88196 10.8324 9.56958 10.9619C9.25721 11.0914 8.92239 11.158 8.58425 11.1581C7.90136 11.1581 7.24643 10.8868 6.76354 10.4039C6.28066 9.921 6.00938 9.26605 6.00938 8.58313C6.00938 7.90022 6.28066 7.24527 6.76354 6.76237C7.24643 6.27948 7.90136 6.00819 8.58425 6.00819M13.0903 3.0041C12.8057 3.0041 12.5329 3.11713 12.3317 3.31834C12.1305 3.51955 12.0174 3.79244 12.0174 4.07699C12.0174 4.36154 12.1305 4.63443 12.3317 4.83564C12.5329 5.03684 12.8057 5.14988 13.0903 5.14988C13.3748 5.14988 13.6477 5.03684 13.8489 4.83564C14.0501 4.63443 14.1631 4.36154 14.1631 4.07699C14.1631 3.79244 14.0501 3.51955 13.8489 3.31834C13.6477 3.11713 13.3748 3.0041 13.0903 3.0041Z" fill="white"/>
</svg>
