<svg width="18" height="18" viewBox="0 0 18 18" fill="none" xmlns="http://www.w3.org/2000/svg">
    <path d="M15.2593 0C15.7651 0 16.2503 0.200959 16.608 0.558667C16.9657 0.916376 17.1667 1.40153 17.1667 1.90741V15.2593C17.1667 15.7651 16.9657 16.2503 16.608 16.608C16.2503 16.9657 15.7651 17.1667 15.2593 17.1667H1.90741C1.40153 17.1667 0.916376 16.9657 0.558667 16.608C0.200959 16.2503 0 15.7651 0 15.2593V1.90741C0 1.40153 0.200959 0.916376 0.558667 0.558667C0.916376 0.200959 1.40153 0 1.90741 0H15.2593ZM14.7824 14.7824V9.72779C14.7824 8.90321 14.4549 8.1124 13.8718 7.52934C13.2887 6.94627 12.4979 6.61871 11.6733 6.61871C10.8627 6.61871 9.91853 7.11464 9.46075 7.85852V6.79991H6.79991V14.7824H9.46075V10.0807C9.46075 9.3463 10.052 8.74547 10.7864 8.74547C11.1405 8.74547 11.4801 8.88614 11.7305 9.13654C11.9809 9.38693 12.1216 9.72654 12.1216 10.0807V14.7824H14.7824ZM3.70037 5.3026C4.12531 5.3026 4.53284 5.13379 4.83332 4.83332C5.13379 4.53284 5.3026 4.12531 5.3026 3.70037C5.3026 2.81343 4.58732 2.08861 3.70037 2.08861C3.27291 2.08861 2.86295 2.25842 2.56069 2.56069C2.25842 2.86295 2.08861 3.27291 2.08861 3.70037C2.08861 4.58732 2.81343 5.3026 3.70037 5.3026ZM5.02602 14.7824V6.79991H2.38426V14.7824H5.02602Z" fill="white"/>
</svg>
