<svg width="11" height="11" viewBox="0 0 11 11" fill="none" xmlns="http://www.w3.org/2000/svg">
<path d="M10.9987 9.29795C10.925 9.61585 10.7512 9.90145 10.5031 10.1124C10.2261 10.3952 9.89552 10.6195 9.53078 10.7719C9.16605 10.9243 8.77459 11.0019 8.37952 11H8.18194C7.3619 10.9571 6.55816 10.7534 5.81606 10.4005C5.63615 10.3157 5.4612 10.2365 5.25314 10.1401C4.38342 9.64697 3.58515 9.03645 2.88063 8.3256C1.96482 7.46332 1.21436 6.43968 0.666511 5.30551C0.3649 4.68678 0.161737 4.02442 0.0644154 3.34254C-0.0715523 2.63198 0.00883426 1.89678 0.295099 1.23275C0.473168 0.931283 0.691119 0.655444 0.943 0.412762C1.05805 0.28676 1.19718 0.185284 1.3521 0.114373C1.50702 0.0434625 1.67456 0.00456631 1.84476 0C2.03036 0.0196945 2.21016 0.0763958 2.37363 0.166778C2.53711 0.257161 2.68096 0.379405 2.79675 0.526341C3.05613 0.814443 3.35966 1.09146 3.6356 1.38511L3.99101 1.73637C4.20072 1.92087 4.33041 2.18071 4.35138 2.45995C4.35193 2.71703 4.25756 2.96468 4.08648 3.15583C3.97875 3.28986 3.86417 3.4182 3.74321 3.54033L3.62456 3.66499C3.55546 3.72945 3.50154 3.80857 3.46672 3.89658C3.43803 3.98191 3.42809 4.07277 3.43913 4.16252C3.52964 4.40852 3.67147 4.63235 3.8558 4.81851C4.14277 5.20856 4.41871 5.54818 4.72886 5.94987C5.26378 6.56946 5.89795 7.09508 6.60524 7.50506C6.67312 7.56047 6.75424 7.59759 6.84144 7.61255C6.9187 7.62418 6.99652 7.61255 7.06661 7.5782C7.28151 7.46271 7.47269 7.30743 7.63007 7.12056C7.82875 6.87456 8.11682 6.71832 8.43029 6.68453C8.58075 6.68509 8.72958 6.71592 8.86797 6.77521C9.00636 6.83449 9.13151 6.92103 9.23603 7.02969C9.3648 7.14124 9.48676 7.25999 9.60192 7.38594L9.77079 7.56712L9.94574 7.73665C10.0522 7.84414 10.1538 7.94054 10.2548 8.05357C10.4387 8.21239 10.6098 8.38396 10.768 8.56827C10.9297 8.77548 11.0114 9.03477 10.9987 9.29795Z" fill="white"/>
</svg>
