<svg width="18" height="18" viewBox="0 0 18 18" fill="none" xmlns="http://www.w3.org/2000/svg">
    <path d="M6.39593 5.16945L11.9168 12.4867H11.0611L5.47859 5.16945H6.39593Z" fill="white"/>
    <path fill-rule="evenodd" clip-rule="evenodd" d="M13.0467 0C15.3221 8.84779e-08 17.1667 1.84459 17.1667 4.12V13.0467C17.1667 15.3221 15.3221 17.1667 13.0467 17.1667H4.12C1.84459 17.1667 0 15.3221 0 13.0467V4.12C8.84808e-08 1.84459 1.84459 0 4.12 0H13.0467ZM11.6036 4.29167L9.06012 7.20598L6.86332 4.29234H3.67877L7.48226 9.2794L3.87591 13.4128H5.42092L8.20313 10.2242L10.6373 13.4128H13.7427L9.77562 8.15484L13.1473 4.29167H11.6036Z" fill="white"/>
</svg>
