<svg width="71" height="56" viewBox="0 0 71 56" fill="none" xmlns="http://www.w3.org/2000/svg">
<path d="M38.1362 1.40093C38.2451 0.668204 37.3522 0.232873 36.8241 0.723703L36.7742 0.774183L29.228 9.04155C28.8096 9.49997 29.0793 10.2316 29.6994 10.3205L32.5551 10.7302L31.3734 18.6826C31.2645 19.4154 32.1574 19.8507 32.6855 19.3599L32.7354 19.3094L40.2816 11.042C40.6999 10.5836 40.4301 9.85205 39.8101 9.76303L36.9545 9.35341L38.1362 1.40093Z" fill="#6EB0D8"/>
<path d="M38.6544 1.47527C38.8336 0.269083 37.3922 -0.446902 36.506 0.312722L36.4641 0.349866L36.456 0.357339L36.4483 0.365381L36.3984 0.415861L36.3912 0.422945L36.3844 0.430599L28.8382 8.69798C28.1407 9.46215 28.5904 10.6815 29.6238 10.8297L31.9612 11.165L30.8552 18.6083L30.8477 18.6654C30.7194 19.8557 32.1774 20.5405 33.0455 19.7337L33.0536 19.7263L33.0612 19.7182L33.1111 19.6677L33.1183 19.6606L33.1252 19.653L40.6714 11.3856C41.3688 10.6214 40.9189 9.40224 39.8857 9.25391L37.5483 8.91862L38.6544 1.47527ZM36.3606 9.78822L39.7344 10.2722C39.9413 10.3019 40.0309 10.5459 39.8918 10.6984L32.3517 18.9593L32.3238 18.9873C32.1601 19.137 31.8924 19.0142 31.8886 18.801L31.8915 18.757L33.1489 10.2954L29.7751 9.81141C29.5682 9.78174 29.4785 9.53781 29.6178 9.38515L37.1581 1.12404L37.1861 1.09605C37.3608 0.936707 37.6535 1.08732 37.618 1.3266L36.3606 9.78822Z" fill="black"/>
<path d="M12.0538 10.9627C11.4171 10.5664 10.6487 11.1901 10.8896 11.864L10.9162 11.9293L15.5246 22.0693C15.7801 22.6316 16.5701 22.6877 16.9055 22.1676L18.4499 19.7726L25.3595 24.0739C25.9961 24.4702 26.7646 23.8465 26.5237 23.1726L26.4971 23.1073L21.8887 12.9672C21.6331 12.405 20.8432 12.3489 20.5078 12.869L18.9634 15.264L12.0538 10.9627Z" fill="#6EB0D8"/>
<path d="M12.334 10.5281C11.286 9.87565 10.0332 10.8772 10.378 11.9818L10.3991 12.0449L10.4034 12.055L10.43 12.1204L10.4336 12.1298L10.438 12.139L15.0464 22.279C15.4724 23.2163 16.7889 23.3097 17.3478 22.4429L18.6119 20.4826L25.0792 24.5085L25.1292 24.5385C26.1833 25.1387 27.4135 24.1096 27.0177 23.0022L27.0141 22.9919L26.9832 22.9162L26.9796 22.9068L26.9753 22.8976L22.3669 12.7575C21.9409 11.8203 20.6243 11.7269 20.0654 12.5936L18.8013 14.554L12.334 10.5281ZM19.1255 15.974L20.9501 13.1444C21.062 12.9709 21.3253 12.9898 21.4105 13.177L26.0154 23.3088L26.0307 23.3466C26.1016 23.554 25.8786 23.7431 25.6795 23.6598L25.6398 23.6392L18.2878 19.0626L16.4631 21.8922C16.3512 22.0657 16.0879 22.0468 16.0028 21.8596L11.3978 11.7274L11.3825 11.6896C11.3072 11.4684 11.5661 11.2682 11.7735 11.3973L19.1255 15.974Z" fill="black"/>
<path d="M1.19251 33.0518C0.447209 33.1619 0.28205 34.1277 0.9133 34.482L0.976934 34.5142L11.2179 39.2129C11.7857 39.4733 12.4201 39.0076 12.327 38.3987L11.898 35.5948L19.9869 34.4001C20.7321 34.29 20.8973 33.3242 20.2661 32.9699L20.2025 32.9376L9.96146 28.2389C9.39361 27.9784 8.75919 28.4442 8.85236 29.0531L9.28135 31.8571L1.19251 33.0518Z" fill="#6EB0D8"/>
<path d="M1.11466 32.543C-0.11219 32.7242 -0.391711 34.2871 0.605192 34.9002L0.653539 34.9289L0.663163 34.9343L0.673216 34.9392L0.73685 34.9714L0.745854 34.9762L0.755287 34.9804L10.9963 39.6791C11.9132 40.0996 12.9342 39.3842 12.856 38.4166L12.8449 38.3222L12.4937 36.0271L20.0647 34.9089L20.1224 34.8991C21.3001 34.6781 21.5552 33.155 20.5742 32.5517L20.5162 32.5175L20.5062 32.5127L20.4425 32.4804L20.4335 32.4756L20.4241 32.4715L10.1831 27.7728C9.23651 27.3385 8.17925 28.115 8.33449 29.1296L8.68564 31.4248L1.11466 32.543ZM9.87707 32.2894L9.37022 28.9767C9.33914 28.7735 9.55073 28.6184 9.73981 28.7051L19.9727 33.3999L20.0095 33.4186C20.2012 33.5297 20.1588 33.816 19.9528 33.8812L19.909 33.8912L11.3023 35.1624L11.8092 38.4752L11.8123 38.5126C11.814 38.6966 11.6168 38.8279 11.4396 38.7467L1.20638 34.0518L1.17103 34.0336C0.965154 33.9155 1.02695 33.5966 1.27035 33.5606L9.87707 32.2894Z" fill="black"/>
<path d="M60.0223 10.7233C60.6646 10.3359 61.424 10.9702 61.1733 11.6407L61.1458 11.7056L56.3911 21.7803C56.1275 22.3389 55.3368 22.384 55.009 21.8592L53.4994 19.4429L46.5282 23.6473C45.8859 24.0346 45.1266 23.4003 45.3772 22.7298L45.4047 22.6649L50.1594 12.5902C50.423 12.0316 51.2137 11.9865 51.5416 12.5113L53.0511 14.9276L60.0223 10.7233Z" fill="#6EB0D8"/>
<path d="M59.7483 10.2847C60.8057 9.64704 62.0439 10.666 61.6832 11.7657L61.6612 11.8285L61.6567 11.8385L61.6291 11.9035L61.6254 11.9128L61.6209 11.922L56.8662 21.9967C56.4267 22.9278 55.109 23.0028 54.5627 22.1284L53.327 20.1506L46.8022 24.0858L46.7518 24.115C45.6891 24.7005 44.4739 23.6543 44.8857 22.5525L44.8895 22.5423L44.9214 22.467L44.9251 22.4577L44.9296 22.4485L49.6843 12.3739C50.1238 11.4427 51.4416 11.3677 51.9879 12.2421L53.2235 14.2199L59.7483 10.2847ZM52.8788 15.6353L51.0952 12.7805C50.9859 12.6054 50.7224 12.6207 50.6345 12.8066L45.8835 22.8732L45.8676 22.9107C45.7937 23.1171 46.014 23.3092 46.2143 23.2288L46.2543 23.2088L53.6717 18.7352L55.4553 21.59C55.5647 21.7651 55.8282 21.7499 55.916 21.5639L60.6671 11.497L60.683 11.4595C60.7615 11.2393 60.5055 11.0356 60.2963 11.1618L52.8788 15.6353Z" fill="black"/>
<path d="M69.774 33.1601C70.5234 33.2389 70.7303 34.197 70.1149 34.5773L70.0528 34.6122L60.0245 39.7348C59.4685 40.0187 58.8145 39.5799 58.8812 38.9677L59.1883 36.1483L51.0551 35.2929C50.3057 35.214 50.0989 34.2561 50.7142 33.8757L50.7764 33.8408L60.8046 28.7182C61.3607 28.4342 62.0147 28.8731 61.948 29.4853L61.6408 32.3047L69.774 33.1601Z" fill="#6EB0D8"/>
<path d="M69.8298 32.6485C71.0634 32.7783 71.4103 34.3281 70.4409 34.9823L70.3938 35.013L70.3844 35.0188L70.3746 35.0241L70.3124 35.059L70.3036 35.0641L70.2944 35.0687L60.2662 40.1912C59.3683 40.6497 58.3173 39.9776 58.3535 39.0077L58.3605 38.9129L58.6119 36.6052L50.9993 35.8045C49.7658 35.6747 49.4189 34.1249 50.3882 33.4707L50.4447 33.4342L50.4545 33.4289L50.5167 33.394L50.5255 33.3889L50.5347 33.3843L60.563 28.2618C61.4899 27.7883 62.5798 28.5199 62.4687 29.5401L62.2172 31.8478L69.8298 32.6485ZM61.0643 32.7615L61.4273 29.4306C61.4495 29.2263 61.2314 29.0802 61.0462 29.1747L51.0259 34.293L50.99 34.3133C50.8032 34.4323 50.8581 34.7166 51.0667 34.7731L51.1108 34.7813L59.7648 35.6915L59.4019 39.0224L59.4004 39.0599C59.4067 39.2439 59.6093 39.3668 59.7829 39.2783L69.8035 34.1597L69.838 34.1401C70.0386 34.0136 69.9631 33.6975 69.7183 33.6717L61.0643 32.7615Z" fill="black"/>
<path d="M29.33 55.4854V50.5973C29.33 50.5973 23.8313 44.1657 23.7004 41.4644C23.5695 38.7631 26.3188 33.3605 26.3188 33.3605C26.4934 32.9746 27.1829 32.3057 28.5445 32.7173L27.1043 36.3191L31.032 26.6716C31.2065 26.2857 31.8437 25.6683 32.9958 26.2857L35.3523 27.7007C35.6026 27.9056 35.9724 28.5413 35.5475 29.4955C35.8199 28.9806 36.4867 28.2922 37.4471 28.8584L39.6727 30.2733C39.9346 30.3591 40.3273 30.7878 39.8036 31.8169C40.0218 31.3881 40.7724 30.7107 42.0293 31.431L43.7313 32.7173C43.9957 32.8658 44.3714 33.3549 44.0598 34.218C44.3179 33.8295 44.8026 33.5009 45.5641 33.875L47.1352 34.9041C47.2661 35.0327 47.397 35.6502 46.8734 37.0909L45.9569 40.4353C46.0005 42.4934 45.119 47.4587 41.2438 50.8546V55.4854H29.33Z" fill="#FEC665"/>
<path d="M31.456 25.6235C31.9534 25.4317 32.5633 25.468 33.2464 25.8341L33.2579 25.8401L33.2689 25.8466L35.6255 27.2616L35.6582 27.2812L35.6876 27.3053C35.908 27.4857 36.1246 27.8021 36.2174 28.2213C36.6605 28.0674 37.1772 28.0992 37.7164 28.417L37.7241 28.4216L37.7315 28.4263L39.9147 29.8142C40.1842 29.9288 40.4381 30.1803 40.5394 30.5616C40.5469 30.5899 40.5534 30.6186 40.5591 30.6478C41.024 30.5415 41.5646 30.606 42.1557 30.9116L42.2932 30.9867L42.3221 31.0033L42.3485 31.0231L44.0279 32.2924C44.3065 32.4627 44.5631 32.7813 44.6598 33.2209C44.9856 33.1613 45.3395 33.209 45.7084 33.3727L45.7984 33.4149L45.8276 33.4292L45.8547 33.447L47.4687 34.5042L47.5055 34.5402C47.6398 34.6721 47.7023 34.8454 47.7341 34.9848C47.7693 35.1389 47.7827 35.3207 47.773 35.529C47.7537 35.9418 47.6415 36.5012 47.3741 37.2417L46.4809 40.5015C46.5033 42.6657 45.598 47.6027 41.7675 51.0821V56H28.8064V50.7828C28.7731 50.7431 28.7334 50.6957 28.688 50.6411C28.5357 50.458 28.3183 50.1938 28.0574 49.8686C27.536 49.2186 26.8384 48.3224 26.1358 47.3396C25.4344 46.3586 24.7213 45.2822 24.1733 44.2733C23.6364 43.285 23.216 42.2883 23.1773 41.4888C23.1407 40.7344 23.3042 39.8297 23.5481 38.9265C23.7942 38.0149 24.1331 37.0668 24.4727 36.2124C24.8128 35.3567 25.1566 34.5876 25.4152 34.0327C25.5446 33.7551 25.6528 33.5305 25.729 33.3749C25.7671 33.2971 25.7973 33.2364 25.8179 33.195C25.8283 33.1744 25.8363 33.1584 25.8417 33.1476C25.8444 33.1422 25.8467 33.1381 25.8481 33.1352C25.8489 33.1338 25.8493 33.1325 25.8497 33.1317L25.8502 33.1307L25.8504 33.1305C26.1152 32.5723 26.9198 31.8908 28.25 32.119L30.5457 26.4805L30.5495 26.4715L30.5533 26.4627C30.6863 26.1686 30.9812 25.8067 31.456 25.6235ZM32.7386 26.7343C32.2736 26.4867 31.991 26.5226 31.8388 26.5812C31.6658 26.648 31.5551 26.7848 31.5122 26.8767L27.5905 36.5101L26.617 36.131L27.8268 33.1048C27.1365 33.0696 26.8522 33.4481 26.7973 33.5694L26.7924 33.5802L26.7873 33.5905L26.7871 33.5907L26.7855 33.5938C26.7844 33.5961 26.7826 33.5997 26.7802 33.6046C26.7752 33.6143 26.7677 33.629 26.7579 33.6485C26.7384 33.6876 26.7096 33.7459 26.6728 33.8211C26.5991 33.9715 26.4937 34.1901 26.3675 34.461C26.1146 35.0035 25.7791 35.7541 25.4482 36.5867C25.1168 37.4205 24.7929 38.3295 24.5604 39.1905C24.3256 40.06 24.1945 40.8436 24.2234 41.4399C24.2501 41.9911 24.5662 42.8113 25.0971 43.7887C25.6169 44.7454 26.3033 45.7835 26.9929 46.748C27.6813 47.7107 28.3664 48.5914 28.88 49.2317C29.1367 49.5516 29.3501 49.8111 29.4991 49.9902C29.5735 50.0797 29.6319 50.1491 29.6714 50.1959C29.6911 50.2193 29.7061 50.2371 29.7162 50.249C29.7211 50.2548 29.7249 50.2594 29.7274 50.2623C29.7286 50.2637 29.7296 50.2649 29.7302 50.2655L29.7307 50.2663L29.8537 50.41V54.9709H40.7201V50.6241L40.8953 50.4705C44.6203 47.2062 45.4749 42.4085 45.4333 40.446L45.4318 40.3726L46.3676 36.9571L46.373 36.9372L46.3802 36.9179C46.6307 36.2286 46.7134 35.766 46.7267 35.4818C46.7316 35.3748 46.7263 35.2993 46.7192 35.2502L45.3037 34.3228C45.0393 34.199 44.8817 34.2174 44.7933 34.2472C44.6992 34.279 44.6076 34.3502 44.5266 34.4593C44.4744 34.5933 44.41 34.7313 44.3322 34.8733L43.1573 37.311C43.0335 37.5679 42.7211 37.6774 42.4597 37.5557C42.1984 37.4341 42.0869 37.1274 42.2107 36.8706L43.3716 34.4623C43.4166 34.3162 43.4861 34.1544 43.583 33.9967C43.7837 33.3893 43.4996 33.18 43.4715 33.1641L43.4403 33.1466L43.412 33.1252L41.7404 31.8617C41.2354 31.5792 40.9034 31.606 40.7058 31.6766C40.4851 31.7555 40.3377 31.9227 40.2755 32.0406L39.1067 34.7208C38.9927 34.982 38.6849 35.1031 38.4191 34.9911C38.1533 34.8792 38.03 34.5767 38.1439 34.3156L39.3222 31.6143L39.3284 31.6004L39.3353 31.5869C39.5645 31.1364 39.548 30.9043 39.526 30.8214C39.515 30.78 39.5 30.7625 39.4943 30.757L39.4439 30.7407L37.1738 29.2974C36.8476 29.1063 36.6361 29.1479 36.4829 29.227C36.2926 29.3253 36.1244 29.5238 36.0165 29.7247C35.9975 29.7665 35.9775 29.8085 35.9561 29.8508L34.7824 32.4139C34.6637 32.6731 34.3537 32.7886 34.09 32.672C33.8263 32.5553 33.7087 32.2507 33.8274 31.9916L35.0057 29.419C35.0251 29.3741 35.047 29.3282 35.0709 29.2818C35.376 28.5899 35.1253 28.2075 35.0348 28.1128L32.7386 26.7343Z" fill="black"/>
</svg>
