<svg width="24" height="24" viewBox="0 0 24 24" fill="none" xmlns="http://www.w3.org/2000/svg">
<path d="M4 18C3.71667 18 3.47934 17.904 3.288 17.712C3.09667 17.52 3.00067 17.2827 3 17C2.99934 16.7173 3.09534 16.48 3.288 16.288C3.48067 16.096 3.718 16 4 16H15C15.2833 16 15.521 16.096 15.713 16.288C15.905 16.48 16.0007 16.7173 16 17C15.9993 17.2827 15.9033 17.5203 15.712 17.713C15.5207 17.9057 15.2833 18.0013 15 18H4ZM18.9 16.3L15.3 12.7C15.1 12.5 15 12.2667 15 12C15 11.7333 15.1 11.5 15.3 11.3L18.9 7.7C19.0833 7.51667 19.3167 7.425 19.6 7.425C19.8833 7.425 20.1167 7.51667 20.3 7.7C20.4833 7.88333 20.575 8.11667 20.575 8.4C20.575 8.68333 20.4833 8.91667 20.3 9.1L17.4 12L20.3 14.9C20.4833 15.0833 20.575 15.3167 20.575 15.6C20.575 15.8833 20.4833 16.1167 20.3 16.3C20.1167 16.4833 19.8833 16.575 19.6 16.575C19.3167 16.575 19.0833 16.4833 18.9 16.3ZM4 13C3.71667 13 3.47934 12.904 3.288 12.712C3.09667 12.52 3.00067 12.2827 3 12C2.99934 11.7173 3.09534 11.48 3.288 11.288C3.48067 11.096 3.718 11 4 11H12C12.2833 11 12.521 11.096 12.713 11.288C12.905 11.48 13.0007 11.7173 13 12C12.9993 12.2827 12.9033 12.5203 12.712 12.713C12.5207 12.9057 12.2833 13.0013 12 13H4ZM4 8C3.71667 8 3.47934 7.904 3.288 7.712C3.09667 7.52 3.00067 7.28267 3 7C2.99934 6.71733 3.09534 6.48 3.288 6.288C3.48067 6.096 3.718 6 4 6H15C15.2833 6 15.521 6.096 15.713 6.288C15.905 6.48 16.0007 6.71733 16 7C15.9993 7.28267 15.9033 7.52033 15.712 7.713C15.5207 7.90567 15.2833 8.00133 15 8H4Z" fill="white"/>
</svg>
