<svg width="112" height="57" viewBox="0 0 112 57" fill="none" xmlns="http://www.w3.org/2000/svg">
<g clip-path="url(#clip0_18_2231)">
<path d="M65.3099 34.0445L67.7079 30.3944C68.0606 29.8328 68.6248 30.0434 69.1185 30.0434H83.2243H84.5643C85.01 29.9923 85.4277 29.8016 85.7573 29.4988C86.0869 29.196 86.3113 28.7967 86.3981 28.3587C86.4363 27.9008 86.3177 27.4435 86.0616 27.0611C85.8055 26.6788 85.4269 26.3939 84.9875 26.2529C84.1078 25.9321 83.1728 25.7889 82.2369 25.8317H74.6198C73.2233 25.8921 71.8249 25.7741 70.4586 25.4807C69.5037 25.3953 68.5763 25.1169 67.7331 24.6627C66.89 24.2085 66.1487 23.588 65.5546 22.8391C64.9605 22.0901 64.5261 21.2285 64.2779 20.3068C64.0297 19.3852 63.9729 18.4228 64.1109 17.4785C64.1109 16.3554 64.1109 16.1448 62.7004 16.1448H49.723C48.4369 16.135 47.1555 16.3004 45.9145 16.6362C44.481 17.149 43.2529 18.11 42.4138 19.3753C41.5747 20.6406 41.1698 22.1423 41.2596 23.6557C41.1726 25.0239 41.5302 26.3836 42.2796 27.5339C43.0289 28.6842 44.1303 29.5641 45.4208 30.0434C46.1459 30.1461 46.882 30.1461 47.6072 30.0434H54.3074C55.0832 30.0434 55.3654 30.0434 55.2948 29.0607C55.2948 26.8145 55.2948 27.3058 53.4611 27.2356C51.6273 27.1654 50.0757 27.2356 48.3125 27.2356C48.0216 27.2409 47.7352 27.1647 47.4858 27.0158C47.2364 26.8669 47.034 26.6511 46.9019 26.3933L43.587 21.4094C43.587 20.9883 44.0807 21.4094 44.2923 21.4094H60.514C61.5014 21.4094 61.713 21.4094 61.713 22.6028C61.713 26.3933 61.713 30.254 61.713 34.1147C61.713 34.5359 61.713 35.0273 61.0782 35.0273C55.5769 35.0273 50.1462 35.0272 44.7155 34.6763C43.7335 34.5977 42.7634 34.4094 41.8238 34.1147C39.8035 33.6509 38.003 32.5143 36.7204 30.8931C35.4378 29.2719 34.75 27.2633 34.7709 25.2C34.4915 22.8022 34.8381 20.3733 35.777 18.1478C36.7159 15.9222 38.2156 13.9752 40.1311 12.4947C41.8146 11.1547 43.9 10.4134 46.0555 10.3889H90.9825C89.854 12.0735 88.7961 13.6178 87.8087 15.2323C87.559 15.7147 87.171 16.1124 86.6938 16.3748C86.2166 16.6373 85.6718 16.7527 85.1286 16.7064C80.7558 16.7064 76.3125 16.7064 71.8691 16.7064C71.0933 16.7064 70.388 16.7064 70.388 17.8295C70.388 18.9526 70.8817 19.9354 72.0102 19.9354H74.7608C77.6525 19.9354 80.5442 19.9354 83.5064 19.9354C85.1694 19.9027 86.804 20.3668 88.1994 21.2676C89.5949 22.1685 90.6871 23.4648 91.3351 24.9894C91.8254 26.3618 92.0411 27.8164 91.9699 29.2713C91.9699 29.903 91.9699 30.0434 91.1235 30.1838C85.251 32.0722 79.2018 33.3657 73.0681 34.0445L67.2142 34.7465L65.3099 34.0445Z" fill="white"/>
<path d="M50.6398 43.942C50.6398 43.0294 49.7934 43.1698 49.1587 43.0996C48.5239 43.0294 47.6776 42.5381 47.7481 41.6255C47.8186 40.713 48.2418 40.0813 49.1587 40.1514C50.0755 40.2216 49.9345 40.1514 49.9345 39.3091C49.9345 37.6946 49.9345 37.6244 48.2418 37.6946C40.896 37.952 33.5435 37.4344 26.3073 36.1503C22.4686 35.6557 18.7591 34.4409 15.3753 32.5704C14.4116 32.1621 13.5514 31.5453 12.8572 30.7648C12.1629 29.9843 11.652 29.0597 11.3616 28.0582C11.0712 27.0566 11.0086 26.0033 11.1782 24.9747C11.3479 23.946 11.7456 22.9679 12.3425 22.1114L13.6121 19.6545C9.08983 21.0758 5.04223 23.6967 1.90426 27.2356C1.06668 28.1226 0.445467 29.1896 0.088729 30.354C-0.268009 31.5183 -0.350701 32.7488 -0.152947 33.9501C0.0448065 35.1513 0.5177 36.2912 1.22912 37.2813C1.94054 38.2715 2.87139 39.0854 3.9496 39.6601C6.13982 41.0547 8.51325 42.1413 11.0025 42.889C19.3667 45.1523 28.0081 46.2391 36.675 46.118C40.7437 46.2798 44.8171 45.9498 48.806 45.1353C49.9345 44.9949 50.6398 44.8545 50.6398 43.942ZM25.6725 39.5197C25.5533 39.5424 25.4304 39.5369 25.3137 39.5037C25.1971 39.4705 25.0898 39.4106 25.0006 39.3287C24.9115 39.2467 24.8428 39.1451 24.8003 39.032C24.7577 38.9189 24.7424 38.7974 24.7556 38.6773C24.7556 38.186 24.7556 37.9754 25.5315 37.9052C26.3073 37.835 26.4483 37.9052 26.4483 38.6773C26.458 38.7788 26.4474 38.8812 26.4172 38.9786C26.3869 39.076 26.3376 39.1664 26.272 39.2448C26.2064 39.3231 26.1259 39.3877 26.0351 39.4349C25.9444 39.4821 25.8451 39.5109 25.743 39.5197H25.6725ZM28.141 44.4333C28.0334 44.4431 27.9249 44.4304 27.8224 44.396C27.72 44.3616 27.6259 44.3063 27.5463 44.2336C27.4666 44.1609 27.403 44.0724 27.3597 43.9738C27.3164 43.8753 27.2942 43.7688 27.2947 43.6612C27.257 43.5355 27.2494 43.4027 27.2724 43.2736C27.2954 43.1444 27.3484 43.0223 27.4272 42.9172C27.506 42.812 27.6083 42.7266 27.7262 42.6677C27.844 42.6089 27.9739 42.5782 28.1058 42.5782C28.2376 42.5782 28.3676 42.6089 28.4854 42.6677C28.6032 42.7266 28.7056 42.812 28.7843 42.9172C28.8631 43.0223 28.9161 43.1444 28.9391 43.2736C28.9621 43.4027 28.9545 43.5355 28.9168 43.6612C28.9168 44.0824 28.7053 44.4333 28.2116 44.4333H28.141ZM31.9496 40.5024C31.845 40.5135 31.7392 40.5011 31.64 40.4662C31.5409 40.4313 31.4508 40.3748 31.3764 40.3007C31.302 40.2267 31.2452 40.1371 31.2102 40.0384C31.1751 39.9396 31.1627 39.8344 31.1738 39.7303C31.151 39.6116 31.1565 39.4893 31.1898 39.3732C31.2232 39.2571 31.2834 39.1503 31.3657 39.0616C31.448 38.9728 31.5501 38.9045 31.6638 38.8622C31.7774 38.8198 31.8995 38.8046 32.0201 38.8177C32.5138 38.8177 32.7254 39.1687 32.7959 39.6601C32.8665 40.1515 32.5844 40.4322 32.0201 40.5024H31.9496ZM35.0529 43.942C35.0529 44.5035 34.7002 44.8545 34.136 44.7843C34.0211 44.7862 33.9072 44.7627 33.8025 44.7154C33.6978 44.6682 33.605 44.5984 33.5308 44.511C33.4566 44.4237 33.4027 44.3211 33.3732 44.2105C33.3437 44.1 33.3393 43.9843 33.3602 43.8718C33.3682 43.7634 33.3992 43.6579 33.451 43.5623C33.5028 43.4666 33.5743 43.3829 33.6609 43.3167C33.7474 43.2504 33.847 43.2031 33.9532 43.1778C34.0594 43.1525 34.1697 43.1498 34.2771 43.1698C34.7708 43.24 35.1234 43.4506 35.1234 43.942H35.0529ZM37.0982 42.4679C36.926 42.4911 36.7508 42.4743 36.5861 42.419C36.4215 42.3637 36.2719 42.2713 36.149 42.1491C36.0262 42.0268 35.9333 41.8779 35.8778 41.714C35.8222 41.5502 35.8054 41.3758 35.8287 41.2044C35.8054 41.033 35.8222 40.8586 35.8778 40.6947C35.9333 40.5308 36.0262 40.382 36.149 40.2597C36.2719 40.1374 36.4215 40.045 36.5861 39.9897C36.7508 39.9344 36.926 39.9177 37.0982 39.9409C37.874 39.9409 38.2972 40.4322 38.4383 41.1342C38.5793 41.8361 37.9446 42.4679 37.0982 42.4679ZM39.9899 44.7141C39.8755 44.7514 39.7533 44.7589 39.6352 44.736C39.517 44.713 39.4067 44.6603 39.3148 44.5829C39.2229 44.5055 39.1524 44.4059 39.1101 44.2938C39.0677 44.1816 39.055 44.0605 39.073 43.942C39.073 43.4506 39.073 43.1698 39.9899 43.0996C40.1856 43.1279 40.3668 43.2183 40.5067 43.3575C40.6465 43.4966 40.7373 43.677 40.7657 43.8718C40.7657 44.5737 40.5541 44.9247 39.9899 44.9247V44.7141ZM42.9521 39.9409C42.9521 40.7832 42.4584 41.2746 41.6826 41.2044C41.5035 41.2305 41.3207 41.2133 41.1497 41.1543C40.9787 41.0953 40.8244 40.9963 40.7 40.8655C40.5755 40.7347 40.4844 40.5761 40.4345 40.4029C40.3846 40.2298 40.3772 40.0472 40.4131 39.8707C40.4131 39.0985 40.9068 38.7476 41.6826 38.6072C41.8719 38.6147 42.0574 38.6621 42.227 38.7462C42.3965 38.8304 42.5462 38.9493 42.6662 39.0952C42.7861 39.2412 42.8737 39.4108 42.923 39.5928C42.9722 39.7749 42.9822 39.9653 42.9521 40.1514V39.9409ZM44.4332 44.1526C43.7279 44.1526 43.3753 44.1526 43.3048 43.1698C43.2844 42.9015 43.3681 42.6355 43.5386 42.4267C43.7091 42.2178 43.9535 42.0818 44.2216 42.0467C44.9269 42.0467 45.3501 42.3977 45.4206 43.0996C45.486 43.2498 45.5095 43.4147 45.4888 43.5771C45.4681 43.7395 45.4039 43.8933 45.303 44.0225C45.202 44.1517 45.068 44.2515 44.915 44.3114C44.762 44.3713 44.5956 44.3892 44.4332 44.3631V44.1526ZM44.9974 39.9409C44.9763 39.7667 44.994 39.5901 45.0493 39.4235C45.1046 39.2569 45.1962 39.1045 45.3174 38.9772C45.4386 38.8498 45.5866 38.7506 45.7507 38.6867C45.9148 38.6227 46.0911 38.5956 46.267 38.6072C46.4364 38.5969 46.606 38.6226 46.7647 38.6825C46.9234 38.7423 47.0675 38.835 47.1875 38.9545C47.3075 39.0739 47.4007 39.2173 47.4608 39.3753C47.521 39.5332 47.5468 39.7021 47.5365 39.8707C47.5461 40.0424 47.5204 40.2143 47.4609 40.3758C47.4014 40.5373 47.3094 40.685 47.1905 40.8098C47.0717 40.9347 46.9285 41.0341 46.7697 41.1019C46.6108 41.1698 46.4398 41.2046 46.267 41.2044C46.1132 41.2239 45.9569 41.2117 45.8081 41.1684C45.6592 41.1252 45.5209 41.0519 45.4018 40.9531C45.2827 40.8543 45.1853 40.7321 45.1157 40.5942C45.0462 40.4563 45.0059 40.3055 44.9974 40.1514V39.9409ZM47.5365 44.4333C47.3245 44.4157 47.1269 44.3192 46.9831 44.1631C46.8394 44.007 46.7599 43.8028 46.7607 43.591C46.7602 43.4834 46.7824 43.3769 46.8257 43.2783C46.869 43.1798 46.9326 43.0913 47.0122 43.0186C47.0919 42.9459 47.186 42.8906 47.2884 42.8562C47.3909 42.8218 47.4994 42.8091 47.607 42.8188C47.7059 42.8184 47.8038 42.8386 47.8943 42.8781C47.9848 42.9177 48.0659 42.9758 48.1324 43.0486C48.1989 43.1214 48.2493 43.2073 48.2803 43.3008C48.3113 43.3942 48.3222 43.4931 48.3123 43.591C48.3603 43.7123 48.3766 43.8437 48.3597 43.973C48.3429 44.1022 48.2934 44.2252 48.216 44.3303C48.1385 44.4354 48.0356 44.5193 47.9168 44.5741C47.798 44.629 47.6671 44.653 47.5365 44.6439V44.4333Z" fill="#FFDD00"/>
<path d="M39.8489 9.40611C37.6285 11.0293 35.8176 13.144 34.5593 15.5833C34.5593 16.0746 33.9245 16.0044 33.4308 16.0044H27.1537C26.3074 16.0044 25.9547 16.0044 25.9547 17.1275C25.9547 19.2334 25.9547 21.4094 25.9547 23.5153C25.9142 24.0021 25.9783 24.4919 26.1427 24.9521C26.3072 25.4123 26.5683 25.8324 26.9086 26.1843C27.2489 26.5363 27.6606 26.8121 28.1163 26.9934C28.5721 27.1746 29.0614 27.2572 29.5517 27.2356C30.6802 27.2356 32.0907 27.2356 32.9371 27.2356C33.7834 27.2356 33.854 29.1309 34.3477 30.1136C34.7015 30.9403 35.2595 31.6647 35.9698 32.2195C36.6539 32.8789 37.3846 33.4888 38.1562 34.0445C34.3499 34.6704 30.4663 34.6704 26.66 34.0445C25.1673 33.7851 23.774 33.125 22.6305 32.1354C21.487 31.1457 20.6367 29.8642 20.1713 28.4289C19.3958 25.7619 19.039 22.9916 19.1134 20.2161C19.1134 13.9688 19.1134 7.65123 19.1134 1.40389C19.1134 0.491355 19.1134 0.210577 20.2419 0.280772C21.3703 0.350967 23.4157 0.280772 25.0378 0.280772C26.66 0.280772 26.0958 0.280769 26.0958 1.33369C26.0958 3.65012 26.0958 5.96655 26.0958 8.35318C26.0958 9.4763 26.0958 9.82728 27.5769 9.82728L39.8489 9.40611Z" fill="white"/>
<path d="M72.5742 3.93091C75.3393 2.72077 78.2583 1.89411 81.2493 1.47409C86.6892 0.471839 92.2267 0.0949959 97.7531 0.350974C99.8102 0.456455 101.847 0.810011 103.819 1.40389C107.345 2.52701 107.98 5.12422 105.441 7.86182C103.43 9.9912 101.038 11.7289 98.3878 12.986L99.5868 11.6524C99.8493 11.4033 100.058 11.1037 100.201 10.7719C100.344 10.4401 100.417 10.0829 100.417 9.72198C100.417 9.36104 100.344 9.00385 100.201 8.67205C100.058 8.34024 99.8493 8.04072 99.5868 7.79163C97.5817 6.11091 95.1336 5.03888 92.5339 4.70306C87.1176 3.91971 81.6377 3.66112 76.1712 3.93091H72.5742Z" fill="#C7C8CA"/>
<path d="M78.3576 38.186C78.3235 38.5962 78.1396 38.9798 77.8407 39.2643C77.5419 39.5488 77.1487 39.7146 76.7355 39.7303C76.3543 39.6517 76.0121 39.4446 75.7663 39.1442C75.5206 38.8437 75.3865 38.4681 75.3865 38.0807C75.3865 37.6933 75.5206 37.3178 75.7663 37.0173C76.0121 36.7168 76.3543 36.5098 76.7355 36.4312C77.1724 36.4814 77.5765 36.6863 77.8743 37.0085C78.1721 37.3306 78.3436 37.7485 78.3576 38.186Z" fill="#FFDD00"/>
<path d="M59.879 39.5899C59.9104 39.8249 59.8894 40.064 59.8175 40.29C59.7456 40.516 59.6246 40.7235 59.463 40.8978C59.3014 41.072 59.1033 41.2086 58.8826 41.298C58.662 41.3874 58.4242 41.4273 58.1863 41.415C57.9707 41.425 57.7552 41.3901 57.5539 41.3125C57.3525 41.2349 57.1696 41.1163 57.017 40.9643C56.8643 40.8124 56.7451 40.6304 56.6672 40.43C56.5892 40.2296 56.5541 40.0152 56.5642 39.8005C56.5542 39.5766 56.5911 39.3531 56.6726 39.1442C56.7541 38.9353 56.8785 38.7455 57.0377 38.5871C57.1969 38.4286 57.3875 38.3049 57.5974 38.2237C57.8073 38.1426 58.0319 38.1058 58.2569 38.1158C58.4607 38.1064 58.6644 38.137 58.8563 38.2061C59.0481 38.2751 59.2245 38.3811 59.3752 38.518C59.5258 38.6549 59.6479 38.8201 59.7344 39.004C59.8208 39.1879 59.87 39.387 59.879 39.5899Z" fill="#FFDD00"/>
<path d="M70.0354 39.8005C69.8315 39.7915 69.6315 39.7426 69.4467 39.6565C69.2619 39.5705 69.0959 39.449 68.9583 39.299C68.8208 39.149 68.7143 38.9735 68.6449 38.7826C68.5756 38.5916 68.5448 38.3889 68.5542 38.186C68.5346 37.9625 68.5621 37.7374 68.6348 37.525C68.7075 37.3126 68.8238 37.1177 68.9765 36.9525C69.1291 36.7874 69.3146 36.6558 69.5212 36.566C69.7278 36.4762 69.951 36.4303 70.1764 36.4312C70.3953 36.4217 70.6138 36.4564 70.8189 36.5333C71.0239 36.6102 71.2111 36.7276 71.3693 36.8785C71.5275 37.0294 71.6533 37.2105 71.7392 37.4111C71.8251 37.6117 71.8693 37.8276 71.8691 38.0456C71.8509 38.5174 71.6496 38.9638 71.3077 39.291C70.9658 39.6182 70.5097 39.8009 70.0354 39.8005Z" fill="#FFDD00"/>
<path d="M54.9421 43.24C54.9421 43.6496 54.7786 44.0424 54.4877 44.332C54.1967 44.6216 53.802 44.7843 53.3905 44.7843C53.0093 44.7057 52.6671 44.4986 52.4214 44.1982C52.1757 43.8977 52.0415 43.5221 52.0415 43.1347C52.0415 42.7473 52.1757 42.3718 52.4214 42.0713C52.6671 41.7708 53.0093 41.5638 53.3905 41.4852C53.827 41.5211 54.2325 41.7239 54.5219 42.0512C54.8112 42.3784 54.9619 42.8046 54.9421 43.24Z" fill="#FFDD00"/>
<path d="M63.6171 42.4679C63.2055 42.4679 62.8109 42.3052 62.5199 42.0156C62.2289 41.726 62.0654 41.3332 62.0654 40.9236C62.1445 40.5443 62.3525 40.2036 62.6544 39.9591C62.9562 39.7145 63.3336 39.581 63.7229 39.581C64.1121 39.581 64.4895 39.7145 64.7914 39.9591C65.0933 40.2036 65.3013 40.5443 65.3803 40.9236C65.3442 41.358 65.1404 41.7616 64.8116 42.0496C64.4828 42.3376 64.0546 42.4875 63.6171 42.4679Z" fill="#FFDD00"/>
<path d="M88.7254 35.9398C88.0201 35.9398 87.5264 35.4484 87.5264 34.6763C87.5261 34.5135 87.5593 34.3524 87.6239 34.2028C87.6885 34.0532 87.7832 33.9184 87.9021 33.8067C88.021 33.6949 88.1617 33.6085 88.3154 33.5528C88.4691 33.4972 88.6326 33.4734 88.7959 33.483C88.9533 33.471 89.1115 33.4943 89.2587 33.5511C89.4059 33.6079 89.5385 33.6968 89.6467 33.8112C89.7549 33.9256 89.836 34.0627 89.884 34.2124C89.9321 34.3621 89.9459 34.5206 89.9244 34.6763C89.934 34.8388 89.9101 35.0016 89.8542 35.1545C89.7982 35.3075 89.7114 35.4475 89.5991 35.5658C89.4868 35.6842 89.3514 35.7784 89.2011 35.8427C89.0508 35.907 88.8889 35.9401 88.7254 35.9398Z" fill="#FFDD00"/>
<path d="M81.8135 36.2907C81.1082 36.2907 80.6145 35.8696 80.6851 35.0974C80.6614 34.9353 80.6761 34.7698 80.728 34.6143C80.7799 34.4588 80.8675 34.3175 80.9839 34.2016C81.1004 34.0857 81.2424 33.9985 81.3986 33.9468C81.5549 33.8952 81.7211 33.8806 81.884 33.9041C82.0442 33.8938 82.2047 33.9176 82.3549 33.9739C82.505 34.0302 82.6414 34.1178 82.7549 34.2307C82.8684 34.3437 82.9563 34.4794 83.0129 34.6288C83.0695 34.7783 83.0934 34.9381 83.083 35.0974C83.083 35.8696 82.6599 36.2907 81.8135 36.2907Z" fill="#FFDD00"/>
<path d="M54.9419 38.8178C54.9423 38.953 54.9146 39.0868 54.8606 39.2108C54.8067 39.3349 54.7276 39.4465 54.6283 39.5387C54.529 39.631 54.4116 39.7018 54.2836 39.7469C54.1555 39.7919 54.0195 39.8102 53.884 39.8005C53.7416 39.802 53.6005 39.7727 53.4705 39.7148C53.3405 39.6569 53.2246 39.5717 53.1308 39.465C53.037 39.3583 52.9675 39.2326 52.9271 39.0967C52.8866 38.9608 52.8763 38.8177 52.8966 38.6774C52.8841 38.539 52.9035 38.3997 52.9534 38.2699C53.0032 38.1402 53.0822 38.0234 53.1842 37.9286C53.2862 37.8339 53.4087 37.7635 53.5422 37.723C53.6757 37.6824 53.8167 37.6727 53.9545 37.6947C54.6598 37.6947 54.9419 38.186 54.9419 38.8178Z" fill="white"/>
<path d="M100.01 29.5521C100.146 29.5517 100.28 29.5793 100.405 29.633C100.53 29.6867 100.642 29.7654 100.734 29.8642C100.827 29.9631 100.898 30.0799 100.943 30.2073C100.989 30.3348 101.007 30.4701 100.997 30.605C101.018 30.736 101.009 30.8699 100.973 30.9974C100.936 31.1249 100.872 31.2428 100.784 31.3431C100.697 31.4433 100.589 31.5234 100.467 31.5778C100.346 31.6321 100.214 31.6595 100.081 31.6579C99.9427 31.6798 99.8017 31.6702 99.6682 31.6296C99.5347 31.5891 99.4122 31.5187 99.3102 31.4239C99.2081 31.3291 99.1292 31.2124 99.0794 31.0827C99.0295 30.9529 99.0101 30.8135 99.0226 30.6752C99.0022 30.5349 99.0126 30.3918 99.053 30.2559C99.0935 30.1199 99.163 29.9943 99.2568 29.8876C99.3506 29.7809 99.4664 29.6957 99.5965 29.6378C99.7265 29.5798 99.8676 29.5506 100.01 29.5521Z" fill="#FFDD00"/>
<path d="M106.358 29.0607C106.38 29.1886 106.372 29.3199 106.335 29.4444C106.298 29.5689 106.233 29.6831 106.144 29.7783C106.055 29.8734 105.946 29.9468 105.824 29.9928C105.702 30.0388 105.571 30.0561 105.441 30.0434C105.304 30.0757 105.162 30.0763 105.025 30.0452C104.888 30.014 104.76 29.952 104.651 29.8638C104.542 29.7756 104.454 29.6636 104.396 29.5366C104.337 29.4095 104.308 29.2707 104.312 29.1309C104.303 29.0017 104.319 28.872 104.36 28.7491C104.401 28.6262 104.466 28.5126 104.551 28.4147C104.636 28.3169 104.74 28.2367 104.856 28.1789C104.973 28.1212 105.099 28.0868 105.229 28.0779C105.368 28.0684 105.508 28.0863 105.64 28.1306C105.772 28.1748 105.894 28.2446 105.999 28.336C106.103 28.4273 106.189 28.5383 106.251 28.6627C106.312 28.787 106.349 28.9223 106.358 29.0607Z" fill="#FFDD00"/>
<path d="M94.2267 31.5175C94.7205 31.5175 95.0731 31.5175 95.0731 32.3598C95.0955 32.4877 95.0878 32.6191 95.0508 32.7435C95.0137 32.868 94.9482 32.9823 94.8595 33.0774C94.7707 33.1726 94.6611 33.246 94.5391 33.292C94.4171 33.338 94.286 33.3553 94.1562 33.3426C94.0264 33.3553 93.8954 33.338 93.7734 33.292C93.6514 33.246 93.5417 33.1726 93.453 33.0774C93.3642 32.9823 93.2987 32.868 93.2617 32.7435C93.2246 32.6191 93.217 32.4877 93.2393 32.3598C93.2483 32.2399 93.2809 32.1228 93.3354 32.0155C93.3899 31.9081 93.4653 31.8126 93.557 31.7343C93.6488 31.656 93.7552 31.5965 93.8701 31.5593C93.9851 31.5221 94.1063 31.5079 94.2267 31.5175Z" fill="#FFDD00"/>
<path d="M61.0076 42.4679C61.0076 43.0295 60.6549 43.3804 60.0907 43.3804C59.9702 43.3716 59.8526 43.3391 59.7447 43.2848C59.6369 43.2305 59.5408 43.1556 59.4622 43.0643C59.3835 42.9729 59.3238 42.867 59.2864 42.7526C59.249 42.6382 59.2347 42.5176 59.2444 42.3977C59.2621 42.1867 59.359 41.9901 59.5159 41.847C59.6727 41.7039 59.878 41.6248 60.0907 41.6256C60.6549 41.8361 60.9371 42.4679 61.0076 42.4679Z" fill="white"/>
<path d="M85.34 34.6763C84.8463 34.6763 84.4936 34.3253 84.5642 33.7637C84.5637 33.6562 84.5859 33.5497 84.6292 33.4511C84.6725 33.3525 84.736 33.2641 84.8157 33.1914C84.8954 33.1187 84.9895 33.0633 85.0919 33.0289C85.1943 32.9945 85.3029 32.9818 85.4105 32.9916C85.9042 32.9916 86.2568 32.9916 86.2568 33.8339C86.2568 34.6763 85.9042 34.6763 85.34 34.6763Z" fill="white"/>
<path d="M65.8036 36.4312C65.911 36.4111 66.0213 36.4138 66.1275 36.4391C66.2337 36.4645 66.3333 36.5118 66.4198 36.578C66.5064 36.6443 66.5779 36.728 66.6297 36.8236C66.6815 36.9193 66.7125 37.0247 66.7205 37.1331C66.7205 37.6947 66.7205 38.0457 65.8742 38.0457C65.0278 38.0457 65.0278 38.0457 65.0278 37.3437C65.0278 36.6418 65.3099 36.5014 65.8036 36.4312Z" fill="white"/>
<path d="M74.7607 36.2908C74.7607 36.8523 74.4081 37.0629 73.8438 37.0629C73.2796 37.0629 72.9975 37.0629 73.068 36.2908C73.0571 36.1774 73.0715 36.0631 73.1102 35.956C73.1488 35.8488 73.2108 35.7515 73.2917 35.671C73.3726 35.5905 73.4704 35.5288 73.578 35.4904C73.6856 35.4519 73.8005 35.4375 73.9144 35.4484C74.4786 35.4484 74.6902 35.7994 74.7607 36.2908Z" fill="white"/>
<path d="M57.6927 43.6612C57.6927 44.1526 57.34 44.5036 56.7053 44.4334C56.4932 44.4157 56.2957 44.3193 56.1519 44.1632C56.0081 44.0071 55.9287 43.8028 55.9294 43.591C55.9842 43.4003 56.0998 43.2326 56.2589 43.1132C56.418 42.9938 56.6118 42.9291 56.8111 42.9291C57.0103 42.9291 57.2041 42.9938 57.3632 43.1132C57.5223 43.2326 57.6379 43.4003 57.6927 43.591V43.6612Z" fill="white"/>
<path d="M84.0706 36.4311C84.0706 35.8696 84.0706 35.5186 84.9874 35.5888C85.9043 35.659 85.8338 35.5888 85.8338 36.3609C85.8445 36.4835 85.8282 36.6069 85.786 36.7224C85.7437 36.838 85.6765 36.943 85.5891 37.03C85.5017 37.1169 85.3963 37.1838 85.2801 37.2259C85.164 37.2679 85.04 37.2842 84.9169 37.2735C84.3527 37.2735 84.1411 36.9225 84.0706 36.4311Z" fill="white"/>
<path d="M79.98 37.2735C80.5442 37.2735 80.8968 37.2735 80.8968 38.1158C80.8968 38.9582 80.8968 38.888 80.121 38.888C79.3452 38.888 79.2747 38.888 79.2041 38.1158C79.1943 38.0087 79.2071 37.9007 79.2417 37.7988C79.2762 37.6968 79.3318 37.6032 79.4048 37.5239C79.4779 37.4446 79.5668 37.3813 79.6658 37.3382C79.7649 37.2951 79.8719 37.2731 79.98 37.2735Z" fill="#FFDD00"/>
<path d="M62.3475 36.8523C62.7707 36.8523 63.1234 36.8523 63.1939 37.6244C63.2048 37.7377 63.1904 37.8521 63.1518 37.9592C63.1131 38.0663 63.0511 38.1637 62.9702 38.2441C62.8893 38.3246 62.7916 38.3863 62.6839 38.4248C62.5763 38.4633 62.4614 38.4776 62.3475 38.4668C62.2429 38.4778 62.1372 38.4655 62.038 38.4306C61.9388 38.3957 61.8487 38.3391 61.7744 38.2651C61.7 38.1911 61.6432 38.1014 61.6081 38.0027C61.5731 37.904 61.5606 37.7987 61.5717 37.6946C61.5012 37.1331 61.8538 36.9225 62.3475 36.8523Z" fill="#FFDD00"/>
<path d="M78.3578 35.9397C78.2501 35.9495 78.1416 35.9368 78.0392 35.9024C77.9368 35.868 77.8427 35.8127 77.763 35.74C77.6833 35.6673 77.6198 35.5788 77.5765 35.4802C77.5331 35.3817 77.511 35.2752 77.5114 35.1676C77.4982 35.0475 77.5135 34.926 77.5561 34.8129C77.5986 34.6998 77.6673 34.5982 77.7564 34.5163C77.8456 34.4344 77.9528 34.3744 78.0695 34.3412C78.1862 34.308 78.3091 34.3026 78.4283 34.3253C78.922 34.3253 79.1336 34.6762 79.1336 35.1676C79.1447 35.2717 79.1323 35.377 79.0972 35.4757C79.0621 35.5744 79.0053 35.664 78.931 35.7381C78.8566 35.8121 78.7665 35.8686 78.6673 35.9035C78.5681 35.9384 78.4624 35.9508 78.3578 35.9397Z" fill="#FFDD00"/>
<path d="M73.2797 39.1687C73.3878 39.1683 73.4948 39.1903 73.5938 39.2334C73.6928 39.2766 73.7817 39.3398 73.8548 39.4191C73.9278 39.4984 73.9834 39.592 74.018 39.694C74.0525 39.7959 74.0653 39.9039 74.0555 40.0111C74.0555 40.5024 74.0555 40.7832 73.2091 40.7832C73.0977 40.7968 72.9845 40.7837 72.8792 40.745C72.7738 40.7064 72.6792 40.6432 72.6033 40.5608C72.5275 40.4784 72.4724 40.3792 72.4429 40.2713C72.4133 40.1635 72.41 40.0502 72.4333 39.9409C72.4329 39.8333 72.455 39.7268 72.4983 39.6282C72.5417 39.5297 72.6052 39.4412 72.6849 39.3685C72.7646 39.2958 72.8586 39.2405 72.9611 39.2061C73.0635 39.1717 73.172 39.1589 73.2797 39.1687Z" fill="#FFDD00"/>
<path d="M67.4962 40.2919C68.0604 40.2919 68.3425 40.2919 68.4131 40.9938C68.4227 41.1045 68.4103 41.216 68.3765 41.3219C68.3426 41.4278 68.2881 41.526 68.216 41.6108C68.1439 41.6956 68.0556 41.7654 67.9563 41.8161C67.857 41.8668 67.7485 41.8975 67.6372 41.9064C67.5234 41.9172 67.4085 41.9029 67.3009 41.8644C67.1932 41.8259 67.0955 41.7642 67.0146 41.6837C66.9337 41.6032 66.8717 41.5059 66.833 41.3988C66.7944 41.2917 66.78 41.1773 66.7909 41.064C66.781 40.9661 66.7919 40.8672 66.8229 40.7738C66.8539 40.6803 66.9043 40.5944 66.9708 40.5216C67.0373 40.4488 67.1184 40.3907 67.2089 40.3512C67.2995 40.3116 67.3973 40.2914 67.4962 40.2919Z" fill="#FFDD00"/>
<path d="M90.9824 31.9387C91.4056 31.9387 91.6877 31.9387 91.6877 32.6406C91.6877 33.3426 91.6877 33.2724 91.1235 33.3426C90.5593 33.4128 90.4182 33.3426 90.3477 32.6406C90.3468 32.466 90.4113 32.2973 90.5287 32.1675C90.6461 32.0377 90.8079 31.9561 90.9824 31.9387Z" fill="#FFDD00"/>
<path d="M92.5339 34.1147C92.56 34.1959 92.5643 34.2825 92.5465 34.3659C92.5288 34.4494 92.4895 34.5267 92.4326 34.5905C92.3757 34.6542 92.303 34.7021 92.2219 34.7295C92.1407 34.7568 92.0538 34.7627 91.9697 34.7464C91.5465 34.7464 91.2644 34.7464 91.2644 34.1849C91.2644 33.6233 91.2644 33.4829 91.9697 33.4829C92.0501 33.4823 92.1297 33.4988 92.2032 33.5313C92.2767 33.5638 92.3424 33.6116 92.3958 33.6714C92.4493 33.7312 92.4892 33.8017 92.513 33.8782C92.5369 33.9546 92.544 34.0353 92.5339 34.1147Z" fill="#FFDD00"/>
<path d="M112 26.9548C112 27.376 112 27.6568 111.365 27.6568C111.279 27.6684 111.191 27.66 111.109 27.6324C111.027 27.6047 110.952 27.5585 110.891 27.4974C110.829 27.4362 110.783 27.3618 110.755 27.2799C110.727 27.1979 110.719 27.1107 110.73 27.025C110.73 26.674 110.73 26.4635 111.295 26.4635C111.374 26.4427 111.457 26.4394 111.537 26.4538C111.618 26.4681 111.695 26.4998 111.762 26.5465C111.829 26.5933 111.885 26.654 111.926 26.7245C111.967 26.795 111.992 26.8736 112 26.9548Z" fill="white"/>
<path d="M97.1185 32.9214C97.1185 32.9214 96.6248 32.9214 96.6248 32.43C96.6236 32.311 96.6658 32.1956 96.7436 32.1052C96.8214 32.0148 96.9296 31.9557 97.048 31.9387C97.4006 31.9387 97.5417 31.9387 97.5417 32.3598C97.5417 32.781 97.4006 32.8512 97.1185 32.9214Z" fill="white"/>
<path d="M96.8362 30.5348C96.8362 30.5348 97.3299 30.5348 97.3299 30.956C97.3299 31.3771 97.3299 31.3771 96.8362 31.4473C96.3425 31.5175 96.413 31.4473 96.3425 30.956C96.272 30.4646 96.5541 30.5348 96.8362 30.5348Z" fill="white"/>
<path d="M108.756 28.4289C108.655 28.4303 108.556 28.3957 108.479 28.3313C108.401 28.267 108.349 28.1771 108.332 28.0779C108.32 28.0107 108.324 27.9414 108.344 27.876C108.364 27.8106 108.401 27.7512 108.449 27.7028C108.498 27.6544 108.557 27.6185 108.623 27.5983C108.689 27.578 108.759 27.574 108.826 27.5866C108.826 27.5866 109.179 27.5866 109.249 28.0078C109.32 28.4289 109.038 28.4289 108.756 28.4289Z" fill="white"/>
<path d="M60.7253 54.1905H57.1989L56.5641 56.2261H55.083L58.1863 47.0306H59.7379L62.8412 56.5069H61.3601L60.7253 54.1905ZM60.7253 52.9971L59.3147 48.6451L57.9042 52.9971H60.7253Z" fill="white"/>
<path d="M67.99 49.4874C68.4253 49.7841 68.7285 50.2368 68.8364 50.7509V46.6094H70.2469V56.5069H68.8364V54.8222C68.6911 55.3197 68.3956 55.7608 67.99 56.0857C67.5522 56.4359 66.999 56.6111 66.4384 56.577C65.9133 56.5882 65.3971 56.4414 64.9573 56.1559C64.4747 55.8307 64.1051 55.3648 63.8993 54.8222C63.6189 54.2045 63.4739 53.5345 63.4739 52.8567C63.4739 52.1789 63.6189 51.5089 63.8993 50.8913C64.0171 50.3428 64.3148 49.8489 64.7457 49.4874C65.1855 49.2018 65.7017 49.0551 66.2268 49.0662C66.534 49.0112 66.8493 49.0203 67.1528 49.0928C67.4563 49.1653 67.7413 49.2996 67.99 49.4874ZM65.451 50.9614C65.0537 51.4581 64.853 52.0824 64.8867 52.7163C64.8654 53.3486 65.0648 53.9687 65.451 54.4712C65.6224 54.6763 65.8385 54.8398 66.0829 54.9492C66.3274 55.0587 66.5936 55.1113 66.8615 55.1029C67.2065 55.2064 67.5745 55.2064 67.9195 55.1029C68.2079 54.871 68.4476 54.5848 68.6248 54.2606C68.9042 53.4412 68.9042 52.553 68.6248 51.7336C68.4476 51.4094 68.2079 51.1232 67.9195 50.8913C67.5745 50.7878 67.2065 50.7878 66.8615 50.8913C66.644 50.7834 66.4064 50.7215 66.1636 50.7095C65.9209 50.6974 65.6783 50.7354 65.451 50.8211V50.9614Z" fill="white"/>
<path d="M74.5492 54.6116L76.383 48.9258H77.8641L75.3251 55.9453H73.7029L71.2344 48.9258H72.645L74.5492 54.6116Z" fill="white"/>
<path d="M78.8515 46.1883C79.0597 46.1348 79.2781 46.1348 79.4862 46.1883C79.6911 46.113 79.9162 46.113 80.121 46.1883C80.2111 46.2673 80.2832 46.3645 80.3326 46.4734C80.382 46.5824 80.4075 46.7005 80.4075 46.82C80.4075 46.9395 80.382 47.0576 80.3326 47.1666C80.2832 47.2755 80.2111 47.3727 80.121 47.4517C79.9174 47.5337 79.6898 47.5337 79.4862 47.4517C79.279 47.5122 79.0587 47.5122 78.8515 47.4517C78.7141 47.2695 78.6399 47.0478 78.6399 46.82C78.6399 46.5922 78.7141 46.3705 78.8515 46.1883ZM80.1915 48.9258V55.9453H78.8515V48.9258H80.1915Z" fill="white"/>
<path d="M85.9042 49.4874C86.4042 49.941 86.7077 50.5702 86.7506 51.2422H85.481C85.437 50.8673 85.2623 50.5196 84.9873 50.2595C84.7157 50.0206 84.3621 49.8949 83.9999 49.9085C83.8773 49.8564 83.7454 49.8295 83.612 49.8295C83.4787 49.8295 83.3467 49.8564 83.2241 49.9085C83.1776 50.0197 83.1536 50.139 83.1536 50.2595C83.1536 50.38 83.1776 50.4993 83.2241 50.6105C83.1853 50.699 83.1652 50.7946 83.1652 50.8913C83.1652 50.9879 83.1853 51.0835 83.2241 51.172C83.3871 51.2042 83.5548 51.2042 83.7178 51.172H84.5642L85.7632 51.523C86.0799 51.6508 86.3504 51.8711 86.539 52.1548C86.8484 52.531 87.0174 53.0023 87.0174 53.4885C87.0174 53.9747 86.8484 54.4459 86.539 54.8222C86.0616 55.207 85.4602 55.4065 84.8463 55.3837C84.1339 55.4107 83.4347 55.187 82.8715 54.752C82.3621 54.2971 82.0362 53.6734 81.9546 52.9971H83.2946C83.3428 53.3507 83.5182 53.675 83.7883 53.9096C83.9256 54.0492 84.0905 54.1588 84.2727 54.2313C84.4548 54.3038 84.6502 54.3377 84.8463 54.3308C85.0968 54.4221 85.3716 54.4221 85.6221 54.3308C85.6745 54.2088 85.7015 54.0774 85.7015 53.9447C85.7015 53.812 85.6745 53.6807 85.6221 53.5587C85.6929 53.3781 85.6929 53.1777 85.6221 52.9971C85.4885 52.8421 85.319 52.7217 85.1284 52.6461H84.2115L83.0831 52.2952C82.7663 52.1674 82.4958 51.9471 82.3072 51.6634C82.1836 51.2991 82.1836 50.9046 82.3072 50.5403C82.2933 50.2627 82.3432 49.9856 82.4532 49.7301C82.5632 49.4747 82.7304 49.2476 82.942 49.0662C83.1817 48.8575 83.4618 48.7 83.7651 48.6034C84.0684 48.5068 84.3884 48.4732 84.7052 48.5046C85.1958 48.7035 85.614 49.0463 85.9042 49.4874Z" fill="white"/>
<path d="M92.9572 49.4874C93.4777 49.8076 93.8941 50.2708 94.1562 50.8211C94.4366 51.4387 94.5817 52.1087 94.5817 52.7865C94.5817 53.4643 94.4366 54.1343 94.1562 54.752C93.8739 55.2887 93.4619 55.747 92.9572 56.0857C92.4396 56.3709 91.856 56.5161 91.2645 56.5069C90.6513 56.5098 90.0464 56.3653 89.5013 56.0857C89.0163 55.745 88.6276 55.2856 88.3728 54.752C88.0517 54.1462 87.8838 53.4715 87.8838 52.7865C87.8838 52.1015 88.0517 51.4269 88.3728 50.8211C88.609 50.2757 89.0015 49.8118 89.5013 49.4874C90.0464 49.2077 90.6513 49.0633 91.2645 49.0662C91.856 49.057 92.4396 49.2022 92.9572 49.4874ZM90.2771 50.6105C89.9736 50.8268 89.7308 51.1167 89.5718 51.4528C89.4518 51.8894 89.4518 52.35 89.5718 52.7865C89.4584 53.2239 89.4584 53.6828 89.5718 54.1202C89.7297 54.4382 89.9741 54.7058 90.2771 54.8924C90.5983 54.9945 90.9434 54.9945 91.2645 54.8924C91.5616 54.994 91.8843 54.994 92.1814 54.8924C92.4994 54.7242 92.7487 54.4513 92.8867 54.1202C93.0002 53.6828 93.0002 53.2239 92.8867 52.7865C93.0067 52.35 93.0067 51.8894 92.8867 51.4528C92.7525 51.1016 92.5043 50.8051 92.1814 50.6105C91.88 50.5389 91.5659 50.5389 91.2645 50.6105C90.9119 50.4476 90.524 50.3752 90.1361 50.3999L90.2771 50.6105Z" fill="white"/>
<path d="M98.0352 49.4874C98.4533 49.2114 98.9441 49.0648 99.4458 49.0662V50.7509H99.0932C98.8257 50.7283 98.5564 50.7603 98.3017 50.8447C98.0471 50.9292 97.8124 51.0645 97.612 51.2423C97.4242 51.45 97.283 51.6951 97.1978 51.9614C97.1127 52.2277 97.0856 52.509 97.1183 52.7866V56.5069H95.7078V49.4874H97.1183V50.8913C97.2734 50.3414 97.5932 49.8517 98.0352 49.4874Z" fill="white"/>
</g>
<defs>
<clipPath id="clip0_18_2231">
<rect width="112" height="56.2963" fill="white"/>
</clipPath>
</defs>
</svg>
